G75*
%MOIN*%
%OFA0B0*%
%FSLAX25Y25*%
%IPPOS*%
%LPD*%
%AMOC8*
5,1,8,0,0,1.08239X$1,22.5*
%
%ADD10C,0.00000*%
%ADD11C,0.00400*%
%ADD12C,0.00600*%
%ADD13C,0.00500*%
%ADD14C,0.00394*%
%ADD15C,0.00800*%
%ADD16C,0.01200*%
D10*
X0028775Y0011058D02*
X0028775Y0404759D01*
X0422476Y0404759D01*
X0422476Y0011058D01*
X0028775Y0011058D01*
X0072081Y0060271D02*
X0072083Y0060424D01*
X0072089Y0060578D01*
X0072099Y0060731D01*
X0072113Y0060883D01*
X0072131Y0061036D01*
X0072153Y0061187D01*
X0072178Y0061338D01*
X0072208Y0061489D01*
X0072242Y0061639D01*
X0072279Y0061787D01*
X0072320Y0061935D01*
X0072365Y0062081D01*
X0072414Y0062227D01*
X0072467Y0062371D01*
X0072523Y0062513D01*
X0072583Y0062654D01*
X0072647Y0062794D01*
X0072714Y0062932D01*
X0072785Y0063068D01*
X0072860Y0063202D01*
X0072937Y0063334D01*
X0073019Y0063464D01*
X0073103Y0063592D01*
X0073191Y0063718D01*
X0073282Y0063841D01*
X0073376Y0063962D01*
X0073474Y0064080D01*
X0073574Y0064196D01*
X0073678Y0064309D01*
X0073784Y0064420D01*
X0073893Y0064528D01*
X0074005Y0064633D01*
X0074119Y0064734D01*
X0074237Y0064833D01*
X0074356Y0064929D01*
X0074478Y0065022D01*
X0074603Y0065111D01*
X0074730Y0065198D01*
X0074859Y0065280D01*
X0074990Y0065360D01*
X0075123Y0065436D01*
X0075258Y0065509D01*
X0075395Y0065578D01*
X0075534Y0065643D01*
X0075674Y0065705D01*
X0075816Y0065763D01*
X0075959Y0065818D01*
X0076104Y0065869D01*
X0076250Y0065916D01*
X0076397Y0065959D01*
X0076545Y0065998D01*
X0076694Y0066034D01*
X0076844Y0066065D01*
X0076995Y0066093D01*
X0077146Y0066117D01*
X0077299Y0066137D01*
X0077451Y0066153D01*
X0077604Y0066165D01*
X0077757Y0066173D01*
X0077910Y0066177D01*
X0078064Y0066177D01*
X0078217Y0066173D01*
X0078370Y0066165D01*
X0078523Y0066153D01*
X0078675Y0066137D01*
X0078828Y0066117D01*
X0078979Y0066093D01*
X0079130Y0066065D01*
X0079280Y0066034D01*
X0079429Y0065998D01*
X0079577Y0065959D01*
X0079724Y0065916D01*
X0079870Y0065869D01*
X0080015Y0065818D01*
X0080158Y0065763D01*
X0080300Y0065705D01*
X0080440Y0065643D01*
X0080579Y0065578D01*
X0080716Y0065509D01*
X0080851Y0065436D01*
X0080984Y0065360D01*
X0081115Y0065280D01*
X0081244Y0065198D01*
X0081371Y0065111D01*
X0081496Y0065022D01*
X0081618Y0064929D01*
X0081737Y0064833D01*
X0081855Y0064734D01*
X0081969Y0064633D01*
X0082081Y0064528D01*
X0082190Y0064420D01*
X0082296Y0064309D01*
X0082400Y0064196D01*
X0082500Y0064080D01*
X0082598Y0063962D01*
X0082692Y0063841D01*
X0082783Y0063718D01*
X0082871Y0063592D01*
X0082955Y0063464D01*
X0083037Y0063334D01*
X0083114Y0063202D01*
X0083189Y0063068D01*
X0083260Y0062932D01*
X0083327Y0062794D01*
X0083391Y0062654D01*
X0083451Y0062513D01*
X0083507Y0062371D01*
X0083560Y0062227D01*
X0083609Y0062081D01*
X0083654Y0061935D01*
X0083695Y0061787D01*
X0083732Y0061639D01*
X0083766Y0061489D01*
X0083796Y0061338D01*
X0083821Y0061187D01*
X0083843Y0061036D01*
X0083861Y0060883D01*
X0083875Y0060731D01*
X0083885Y0060578D01*
X0083891Y0060424D01*
X0083893Y0060271D01*
X0083891Y0060118D01*
X0083885Y0059964D01*
X0083875Y0059811D01*
X0083861Y0059659D01*
X0083843Y0059506D01*
X0083821Y0059355D01*
X0083796Y0059204D01*
X0083766Y0059053D01*
X0083732Y0058903D01*
X0083695Y0058755D01*
X0083654Y0058607D01*
X0083609Y0058461D01*
X0083560Y0058315D01*
X0083507Y0058171D01*
X0083451Y0058029D01*
X0083391Y0057888D01*
X0083327Y0057748D01*
X0083260Y0057610D01*
X0083189Y0057474D01*
X0083114Y0057340D01*
X0083037Y0057208D01*
X0082955Y0057078D01*
X0082871Y0056950D01*
X0082783Y0056824D01*
X0082692Y0056701D01*
X0082598Y0056580D01*
X0082500Y0056462D01*
X0082400Y0056346D01*
X0082296Y0056233D01*
X0082190Y0056122D01*
X0082081Y0056014D01*
X0081969Y0055909D01*
X0081855Y0055808D01*
X0081737Y0055709D01*
X0081618Y0055613D01*
X0081496Y0055520D01*
X0081371Y0055431D01*
X0081244Y0055344D01*
X0081115Y0055262D01*
X0080984Y0055182D01*
X0080851Y0055106D01*
X0080716Y0055033D01*
X0080579Y0054964D01*
X0080440Y0054899D01*
X0080300Y0054837D01*
X0080158Y0054779D01*
X0080015Y0054724D01*
X0079870Y0054673D01*
X0079724Y0054626D01*
X0079577Y0054583D01*
X0079429Y0054544D01*
X0079280Y0054508D01*
X0079130Y0054477D01*
X0078979Y0054449D01*
X0078828Y0054425D01*
X0078675Y0054405D01*
X0078523Y0054389D01*
X0078370Y0054377D01*
X0078217Y0054369D01*
X0078064Y0054365D01*
X0077910Y0054365D01*
X0077757Y0054369D01*
X0077604Y0054377D01*
X0077451Y0054389D01*
X0077299Y0054405D01*
X0077146Y0054425D01*
X0076995Y0054449D01*
X0076844Y0054477D01*
X0076694Y0054508D01*
X0076545Y0054544D01*
X0076397Y0054583D01*
X0076250Y0054626D01*
X0076104Y0054673D01*
X0075959Y0054724D01*
X0075816Y0054779D01*
X0075674Y0054837D01*
X0075534Y0054899D01*
X0075395Y0054964D01*
X0075258Y0055033D01*
X0075123Y0055106D01*
X0074990Y0055182D01*
X0074859Y0055262D01*
X0074730Y0055344D01*
X0074603Y0055431D01*
X0074478Y0055520D01*
X0074356Y0055613D01*
X0074237Y0055709D01*
X0074119Y0055808D01*
X0074005Y0055909D01*
X0073893Y0056014D01*
X0073784Y0056122D01*
X0073678Y0056233D01*
X0073574Y0056346D01*
X0073474Y0056462D01*
X0073376Y0056580D01*
X0073282Y0056701D01*
X0073191Y0056824D01*
X0073103Y0056950D01*
X0073019Y0057078D01*
X0072937Y0057208D01*
X0072860Y0057340D01*
X0072785Y0057474D01*
X0072714Y0057610D01*
X0072647Y0057748D01*
X0072583Y0057888D01*
X0072523Y0058029D01*
X0072467Y0058171D01*
X0072414Y0058315D01*
X0072365Y0058461D01*
X0072320Y0058607D01*
X0072279Y0058755D01*
X0072242Y0058903D01*
X0072208Y0059053D01*
X0072178Y0059204D01*
X0072153Y0059355D01*
X0072131Y0059506D01*
X0072113Y0059659D01*
X0072099Y0059811D01*
X0072089Y0059964D01*
X0072083Y0060118D01*
X0072081Y0060271D01*
X0353733Y0198735D02*
X0353735Y0198818D01*
X0353741Y0198901D01*
X0353751Y0198984D01*
X0353765Y0199066D01*
X0353782Y0199148D01*
X0353804Y0199228D01*
X0353829Y0199307D01*
X0353858Y0199385D01*
X0353891Y0199462D01*
X0353928Y0199537D01*
X0353967Y0199610D01*
X0354011Y0199681D01*
X0354057Y0199750D01*
X0354107Y0199817D01*
X0354160Y0199881D01*
X0354216Y0199943D01*
X0354275Y0200002D01*
X0354337Y0200058D01*
X0354401Y0200111D01*
X0354468Y0200161D01*
X0354537Y0200207D01*
X0354608Y0200251D01*
X0354681Y0200290D01*
X0354756Y0200327D01*
X0354833Y0200360D01*
X0354911Y0200389D01*
X0354990Y0200414D01*
X0355070Y0200436D01*
X0355152Y0200453D01*
X0355234Y0200467D01*
X0355317Y0200477D01*
X0355400Y0200483D01*
X0355483Y0200485D01*
X0355566Y0200483D01*
X0355649Y0200477D01*
X0355732Y0200467D01*
X0355814Y0200453D01*
X0355896Y0200436D01*
X0355976Y0200414D01*
X0356055Y0200389D01*
X0356133Y0200360D01*
X0356210Y0200327D01*
X0356285Y0200290D01*
X0356358Y0200251D01*
X0356429Y0200207D01*
X0356498Y0200161D01*
X0356565Y0200111D01*
X0356629Y0200058D01*
X0356691Y0200002D01*
X0356750Y0199943D01*
X0356806Y0199881D01*
X0356859Y0199817D01*
X0356909Y0199750D01*
X0356955Y0199681D01*
X0356999Y0199610D01*
X0357038Y0199537D01*
X0357075Y0199462D01*
X0357108Y0199385D01*
X0357137Y0199307D01*
X0357162Y0199228D01*
X0357184Y0199148D01*
X0357201Y0199066D01*
X0357215Y0198984D01*
X0357225Y0198901D01*
X0357231Y0198818D01*
X0357233Y0198735D01*
X0357231Y0198652D01*
X0357225Y0198569D01*
X0357215Y0198486D01*
X0357201Y0198404D01*
X0357184Y0198322D01*
X0357162Y0198242D01*
X0357137Y0198163D01*
X0357108Y0198085D01*
X0357075Y0198008D01*
X0357038Y0197933D01*
X0356999Y0197860D01*
X0356955Y0197789D01*
X0356909Y0197720D01*
X0356859Y0197653D01*
X0356806Y0197589D01*
X0356750Y0197527D01*
X0356691Y0197468D01*
X0356629Y0197412D01*
X0356565Y0197359D01*
X0356498Y0197309D01*
X0356429Y0197263D01*
X0356358Y0197219D01*
X0356285Y0197180D01*
X0356210Y0197143D01*
X0356133Y0197110D01*
X0356055Y0197081D01*
X0355976Y0197056D01*
X0355896Y0197034D01*
X0355814Y0197017D01*
X0355732Y0197003D01*
X0355649Y0196993D01*
X0355566Y0196987D01*
X0355483Y0196985D01*
X0355400Y0196987D01*
X0355317Y0196993D01*
X0355234Y0197003D01*
X0355152Y0197017D01*
X0355070Y0197034D01*
X0354990Y0197056D01*
X0354911Y0197081D01*
X0354833Y0197110D01*
X0354756Y0197143D01*
X0354681Y0197180D01*
X0354608Y0197219D01*
X0354537Y0197263D01*
X0354468Y0197309D01*
X0354401Y0197359D01*
X0354337Y0197412D01*
X0354275Y0197468D01*
X0354216Y0197527D01*
X0354160Y0197589D01*
X0354107Y0197653D01*
X0354057Y0197720D01*
X0354011Y0197789D01*
X0353967Y0197860D01*
X0353928Y0197933D01*
X0353891Y0198008D01*
X0353858Y0198085D01*
X0353829Y0198163D01*
X0353804Y0198242D01*
X0353782Y0198322D01*
X0353765Y0198404D01*
X0353751Y0198486D01*
X0353741Y0198569D01*
X0353735Y0198652D01*
X0353733Y0198735D01*
X0361733Y0198735D02*
X0361735Y0198818D01*
X0361741Y0198901D01*
X0361751Y0198984D01*
X0361765Y0199066D01*
X0361782Y0199148D01*
X0361804Y0199228D01*
X0361829Y0199307D01*
X0361858Y0199385D01*
X0361891Y0199462D01*
X0361928Y0199537D01*
X0361967Y0199610D01*
X0362011Y0199681D01*
X0362057Y0199750D01*
X0362107Y0199817D01*
X0362160Y0199881D01*
X0362216Y0199943D01*
X0362275Y0200002D01*
X0362337Y0200058D01*
X0362401Y0200111D01*
X0362468Y0200161D01*
X0362537Y0200207D01*
X0362608Y0200251D01*
X0362681Y0200290D01*
X0362756Y0200327D01*
X0362833Y0200360D01*
X0362911Y0200389D01*
X0362990Y0200414D01*
X0363070Y0200436D01*
X0363152Y0200453D01*
X0363234Y0200467D01*
X0363317Y0200477D01*
X0363400Y0200483D01*
X0363483Y0200485D01*
X0363566Y0200483D01*
X0363649Y0200477D01*
X0363732Y0200467D01*
X0363814Y0200453D01*
X0363896Y0200436D01*
X0363976Y0200414D01*
X0364055Y0200389D01*
X0364133Y0200360D01*
X0364210Y0200327D01*
X0364285Y0200290D01*
X0364358Y0200251D01*
X0364429Y0200207D01*
X0364498Y0200161D01*
X0364565Y0200111D01*
X0364629Y0200058D01*
X0364691Y0200002D01*
X0364750Y0199943D01*
X0364806Y0199881D01*
X0364859Y0199817D01*
X0364909Y0199750D01*
X0364955Y0199681D01*
X0364999Y0199610D01*
X0365038Y0199537D01*
X0365075Y0199462D01*
X0365108Y0199385D01*
X0365137Y0199307D01*
X0365162Y0199228D01*
X0365184Y0199148D01*
X0365201Y0199066D01*
X0365215Y0198984D01*
X0365225Y0198901D01*
X0365231Y0198818D01*
X0365233Y0198735D01*
X0365231Y0198652D01*
X0365225Y0198569D01*
X0365215Y0198486D01*
X0365201Y0198404D01*
X0365184Y0198322D01*
X0365162Y0198242D01*
X0365137Y0198163D01*
X0365108Y0198085D01*
X0365075Y0198008D01*
X0365038Y0197933D01*
X0364999Y0197860D01*
X0364955Y0197789D01*
X0364909Y0197720D01*
X0364859Y0197653D01*
X0364806Y0197589D01*
X0364750Y0197527D01*
X0364691Y0197468D01*
X0364629Y0197412D01*
X0364565Y0197359D01*
X0364498Y0197309D01*
X0364429Y0197263D01*
X0364358Y0197219D01*
X0364285Y0197180D01*
X0364210Y0197143D01*
X0364133Y0197110D01*
X0364055Y0197081D01*
X0363976Y0197056D01*
X0363896Y0197034D01*
X0363814Y0197017D01*
X0363732Y0197003D01*
X0363649Y0196993D01*
X0363566Y0196987D01*
X0363483Y0196985D01*
X0363400Y0196987D01*
X0363317Y0196993D01*
X0363234Y0197003D01*
X0363152Y0197017D01*
X0363070Y0197034D01*
X0362990Y0197056D01*
X0362911Y0197081D01*
X0362833Y0197110D01*
X0362756Y0197143D01*
X0362681Y0197180D01*
X0362608Y0197219D01*
X0362537Y0197263D01*
X0362468Y0197309D01*
X0362401Y0197359D01*
X0362337Y0197412D01*
X0362275Y0197468D01*
X0362216Y0197527D01*
X0362160Y0197589D01*
X0362107Y0197653D01*
X0362057Y0197720D01*
X0362011Y0197789D01*
X0361967Y0197860D01*
X0361928Y0197933D01*
X0361891Y0198008D01*
X0361858Y0198085D01*
X0361829Y0198163D01*
X0361804Y0198242D01*
X0361782Y0198322D01*
X0361765Y0198404D01*
X0361751Y0198486D01*
X0361741Y0198569D01*
X0361735Y0198652D01*
X0361733Y0198735D01*
X0357733Y0218735D02*
X0357735Y0218818D01*
X0357741Y0218901D01*
X0357751Y0218984D01*
X0357765Y0219066D01*
X0357782Y0219148D01*
X0357804Y0219228D01*
X0357829Y0219307D01*
X0357858Y0219385D01*
X0357891Y0219462D01*
X0357928Y0219537D01*
X0357967Y0219610D01*
X0358011Y0219681D01*
X0358057Y0219750D01*
X0358107Y0219817D01*
X0358160Y0219881D01*
X0358216Y0219943D01*
X0358275Y0220002D01*
X0358337Y0220058D01*
X0358401Y0220111D01*
X0358468Y0220161D01*
X0358537Y0220207D01*
X0358608Y0220251D01*
X0358681Y0220290D01*
X0358756Y0220327D01*
X0358833Y0220360D01*
X0358911Y0220389D01*
X0358990Y0220414D01*
X0359070Y0220436D01*
X0359152Y0220453D01*
X0359234Y0220467D01*
X0359317Y0220477D01*
X0359400Y0220483D01*
X0359483Y0220485D01*
X0359566Y0220483D01*
X0359649Y0220477D01*
X0359732Y0220467D01*
X0359814Y0220453D01*
X0359896Y0220436D01*
X0359976Y0220414D01*
X0360055Y0220389D01*
X0360133Y0220360D01*
X0360210Y0220327D01*
X0360285Y0220290D01*
X0360358Y0220251D01*
X0360429Y0220207D01*
X0360498Y0220161D01*
X0360565Y0220111D01*
X0360629Y0220058D01*
X0360691Y0220002D01*
X0360750Y0219943D01*
X0360806Y0219881D01*
X0360859Y0219817D01*
X0360909Y0219750D01*
X0360955Y0219681D01*
X0360999Y0219610D01*
X0361038Y0219537D01*
X0361075Y0219462D01*
X0361108Y0219385D01*
X0361137Y0219307D01*
X0361162Y0219228D01*
X0361184Y0219148D01*
X0361201Y0219066D01*
X0361215Y0218984D01*
X0361225Y0218901D01*
X0361231Y0218818D01*
X0361233Y0218735D01*
X0361231Y0218652D01*
X0361225Y0218569D01*
X0361215Y0218486D01*
X0361201Y0218404D01*
X0361184Y0218322D01*
X0361162Y0218242D01*
X0361137Y0218163D01*
X0361108Y0218085D01*
X0361075Y0218008D01*
X0361038Y0217933D01*
X0360999Y0217860D01*
X0360955Y0217789D01*
X0360909Y0217720D01*
X0360859Y0217653D01*
X0360806Y0217589D01*
X0360750Y0217527D01*
X0360691Y0217468D01*
X0360629Y0217412D01*
X0360565Y0217359D01*
X0360498Y0217309D01*
X0360429Y0217263D01*
X0360358Y0217219D01*
X0360285Y0217180D01*
X0360210Y0217143D01*
X0360133Y0217110D01*
X0360055Y0217081D01*
X0359976Y0217056D01*
X0359896Y0217034D01*
X0359814Y0217017D01*
X0359732Y0217003D01*
X0359649Y0216993D01*
X0359566Y0216987D01*
X0359483Y0216985D01*
X0359400Y0216987D01*
X0359317Y0216993D01*
X0359234Y0217003D01*
X0359152Y0217017D01*
X0359070Y0217034D01*
X0358990Y0217056D01*
X0358911Y0217081D01*
X0358833Y0217110D01*
X0358756Y0217143D01*
X0358681Y0217180D01*
X0358608Y0217219D01*
X0358537Y0217263D01*
X0358468Y0217309D01*
X0358401Y0217359D01*
X0358337Y0217412D01*
X0358275Y0217468D01*
X0358216Y0217527D01*
X0358160Y0217589D01*
X0358107Y0217653D01*
X0358057Y0217720D01*
X0358011Y0217789D01*
X0357967Y0217860D01*
X0357928Y0217933D01*
X0357891Y0218008D01*
X0357858Y0218085D01*
X0357829Y0218163D01*
X0357804Y0218242D01*
X0357782Y0218322D01*
X0357765Y0218404D01*
X0357751Y0218486D01*
X0357741Y0218569D01*
X0357735Y0218652D01*
X0357733Y0218735D01*
X0367357Y0355546D02*
X0367359Y0355699D01*
X0367365Y0355853D01*
X0367375Y0356006D01*
X0367389Y0356158D01*
X0367407Y0356311D01*
X0367429Y0356462D01*
X0367454Y0356613D01*
X0367484Y0356764D01*
X0367518Y0356914D01*
X0367555Y0357062D01*
X0367596Y0357210D01*
X0367641Y0357356D01*
X0367690Y0357502D01*
X0367743Y0357646D01*
X0367799Y0357788D01*
X0367859Y0357929D01*
X0367923Y0358069D01*
X0367990Y0358207D01*
X0368061Y0358343D01*
X0368136Y0358477D01*
X0368213Y0358609D01*
X0368295Y0358739D01*
X0368379Y0358867D01*
X0368467Y0358993D01*
X0368558Y0359116D01*
X0368652Y0359237D01*
X0368750Y0359355D01*
X0368850Y0359471D01*
X0368954Y0359584D01*
X0369060Y0359695D01*
X0369169Y0359803D01*
X0369281Y0359908D01*
X0369395Y0360009D01*
X0369513Y0360108D01*
X0369632Y0360204D01*
X0369754Y0360297D01*
X0369879Y0360386D01*
X0370006Y0360473D01*
X0370135Y0360555D01*
X0370266Y0360635D01*
X0370399Y0360711D01*
X0370534Y0360784D01*
X0370671Y0360853D01*
X0370810Y0360918D01*
X0370950Y0360980D01*
X0371092Y0361038D01*
X0371235Y0361093D01*
X0371380Y0361144D01*
X0371526Y0361191D01*
X0371673Y0361234D01*
X0371821Y0361273D01*
X0371970Y0361309D01*
X0372120Y0361340D01*
X0372271Y0361368D01*
X0372422Y0361392D01*
X0372575Y0361412D01*
X0372727Y0361428D01*
X0372880Y0361440D01*
X0373033Y0361448D01*
X0373186Y0361452D01*
X0373340Y0361452D01*
X0373493Y0361448D01*
X0373646Y0361440D01*
X0373799Y0361428D01*
X0373951Y0361412D01*
X0374104Y0361392D01*
X0374255Y0361368D01*
X0374406Y0361340D01*
X0374556Y0361309D01*
X0374705Y0361273D01*
X0374853Y0361234D01*
X0375000Y0361191D01*
X0375146Y0361144D01*
X0375291Y0361093D01*
X0375434Y0361038D01*
X0375576Y0360980D01*
X0375716Y0360918D01*
X0375855Y0360853D01*
X0375992Y0360784D01*
X0376127Y0360711D01*
X0376260Y0360635D01*
X0376391Y0360555D01*
X0376520Y0360473D01*
X0376647Y0360386D01*
X0376772Y0360297D01*
X0376894Y0360204D01*
X0377013Y0360108D01*
X0377131Y0360009D01*
X0377245Y0359908D01*
X0377357Y0359803D01*
X0377466Y0359695D01*
X0377572Y0359584D01*
X0377676Y0359471D01*
X0377776Y0359355D01*
X0377874Y0359237D01*
X0377968Y0359116D01*
X0378059Y0358993D01*
X0378147Y0358867D01*
X0378231Y0358739D01*
X0378313Y0358609D01*
X0378390Y0358477D01*
X0378465Y0358343D01*
X0378536Y0358207D01*
X0378603Y0358069D01*
X0378667Y0357929D01*
X0378727Y0357788D01*
X0378783Y0357646D01*
X0378836Y0357502D01*
X0378885Y0357356D01*
X0378930Y0357210D01*
X0378971Y0357062D01*
X0379008Y0356914D01*
X0379042Y0356764D01*
X0379072Y0356613D01*
X0379097Y0356462D01*
X0379119Y0356311D01*
X0379137Y0356158D01*
X0379151Y0356006D01*
X0379161Y0355853D01*
X0379167Y0355699D01*
X0379169Y0355546D01*
X0379167Y0355393D01*
X0379161Y0355239D01*
X0379151Y0355086D01*
X0379137Y0354934D01*
X0379119Y0354781D01*
X0379097Y0354630D01*
X0379072Y0354479D01*
X0379042Y0354328D01*
X0379008Y0354178D01*
X0378971Y0354030D01*
X0378930Y0353882D01*
X0378885Y0353736D01*
X0378836Y0353590D01*
X0378783Y0353446D01*
X0378727Y0353304D01*
X0378667Y0353163D01*
X0378603Y0353023D01*
X0378536Y0352885D01*
X0378465Y0352749D01*
X0378390Y0352615D01*
X0378313Y0352483D01*
X0378231Y0352353D01*
X0378147Y0352225D01*
X0378059Y0352099D01*
X0377968Y0351976D01*
X0377874Y0351855D01*
X0377776Y0351737D01*
X0377676Y0351621D01*
X0377572Y0351508D01*
X0377466Y0351397D01*
X0377357Y0351289D01*
X0377245Y0351184D01*
X0377131Y0351083D01*
X0377013Y0350984D01*
X0376894Y0350888D01*
X0376772Y0350795D01*
X0376647Y0350706D01*
X0376520Y0350619D01*
X0376391Y0350537D01*
X0376260Y0350457D01*
X0376127Y0350381D01*
X0375992Y0350308D01*
X0375855Y0350239D01*
X0375716Y0350174D01*
X0375576Y0350112D01*
X0375434Y0350054D01*
X0375291Y0349999D01*
X0375146Y0349948D01*
X0375000Y0349901D01*
X0374853Y0349858D01*
X0374705Y0349819D01*
X0374556Y0349783D01*
X0374406Y0349752D01*
X0374255Y0349724D01*
X0374104Y0349700D01*
X0373951Y0349680D01*
X0373799Y0349664D01*
X0373646Y0349652D01*
X0373493Y0349644D01*
X0373340Y0349640D01*
X0373186Y0349640D01*
X0373033Y0349644D01*
X0372880Y0349652D01*
X0372727Y0349664D01*
X0372575Y0349680D01*
X0372422Y0349700D01*
X0372271Y0349724D01*
X0372120Y0349752D01*
X0371970Y0349783D01*
X0371821Y0349819D01*
X0371673Y0349858D01*
X0371526Y0349901D01*
X0371380Y0349948D01*
X0371235Y0349999D01*
X0371092Y0350054D01*
X0370950Y0350112D01*
X0370810Y0350174D01*
X0370671Y0350239D01*
X0370534Y0350308D01*
X0370399Y0350381D01*
X0370266Y0350457D01*
X0370135Y0350537D01*
X0370006Y0350619D01*
X0369879Y0350706D01*
X0369754Y0350795D01*
X0369632Y0350888D01*
X0369513Y0350984D01*
X0369395Y0351083D01*
X0369281Y0351184D01*
X0369169Y0351289D01*
X0369060Y0351397D01*
X0368954Y0351508D01*
X0368850Y0351621D01*
X0368750Y0351737D01*
X0368652Y0351855D01*
X0368558Y0351976D01*
X0368467Y0352099D01*
X0368379Y0352225D01*
X0368295Y0352353D01*
X0368213Y0352483D01*
X0368136Y0352615D01*
X0368061Y0352749D01*
X0367990Y0352885D01*
X0367923Y0353023D01*
X0367859Y0353163D01*
X0367799Y0353304D01*
X0367743Y0353446D01*
X0367690Y0353590D01*
X0367641Y0353736D01*
X0367596Y0353882D01*
X0367555Y0354030D01*
X0367518Y0354178D01*
X0367484Y0354328D01*
X0367454Y0354479D01*
X0367429Y0354630D01*
X0367407Y0354781D01*
X0367389Y0354934D01*
X0367375Y0355086D01*
X0367365Y0355239D01*
X0367359Y0355393D01*
X0367357Y0355546D01*
X0072081Y0355546D02*
X0072083Y0355699D01*
X0072089Y0355853D01*
X0072099Y0356006D01*
X0072113Y0356158D01*
X0072131Y0356311D01*
X0072153Y0356462D01*
X0072178Y0356613D01*
X0072208Y0356764D01*
X0072242Y0356914D01*
X0072279Y0357062D01*
X0072320Y0357210D01*
X0072365Y0357356D01*
X0072414Y0357502D01*
X0072467Y0357646D01*
X0072523Y0357788D01*
X0072583Y0357929D01*
X0072647Y0358069D01*
X0072714Y0358207D01*
X0072785Y0358343D01*
X0072860Y0358477D01*
X0072937Y0358609D01*
X0073019Y0358739D01*
X0073103Y0358867D01*
X0073191Y0358993D01*
X0073282Y0359116D01*
X0073376Y0359237D01*
X0073474Y0359355D01*
X0073574Y0359471D01*
X0073678Y0359584D01*
X0073784Y0359695D01*
X0073893Y0359803D01*
X0074005Y0359908D01*
X0074119Y0360009D01*
X0074237Y0360108D01*
X0074356Y0360204D01*
X0074478Y0360297D01*
X0074603Y0360386D01*
X0074730Y0360473D01*
X0074859Y0360555D01*
X0074990Y0360635D01*
X0075123Y0360711D01*
X0075258Y0360784D01*
X0075395Y0360853D01*
X0075534Y0360918D01*
X0075674Y0360980D01*
X0075816Y0361038D01*
X0075959Y0361093D01*
X0076104Y0361144D01*
X0076250Y0361191D01*
X0076397Y0361234D01*
X0076545Y0361273D01*
X0076694Y0361309D01*
X0076844Y0361340D01*
X0076995Y0361368D01*
X0077146Y0361392D01*
X0077299Y0361412D01*
X0077451Y0361428D01*
X0077604Y0361440D01*
X0077757Y0361448D01*
X0077910Y0361452D01*
X0078064Y0361452D01*
X0078217Y0361448D01*
X0078370Y0361440D01*
X0078523Y0361428D01*
X0078675Y0361412D01*
X0078828Y0361392D01*
X0078979Y0361368D01*
X0079130Y0361340D01*
X0079280Y0361309D01*
X0079429Y0361273D01*
X0079577Y0361234D01*
X0079724Y0361191D01*
X0079870Y0361144D01*
X0080015Y0361093D01*
X0080158Y0361038D01*
X0080300Y0360980D01*
X0080440Y0360918D01*
X0080579Y0360853D01*
X0080716Y0360784D01*
X0080851Y0360711D01*
X0080984Y0360635D01*
X0081115Y0360555D01*
X0081244Y0360473D01*
X0081371Y0360386D01*
X0081496Y0360297D01*
X0081618Y0360204D01*
X0081737Y0360108D01*
X0081855Y0360009D01*
X0081969Y0359908D01*
X0082081Y0359803D01*
X0082190Y0359695D01*
X0082296Y0359584D01*
X0082400Y0359471D01*
X0082500Y0359355D01*
X0082598Y0359237D01*
X0082692Y0359116D01*
X0082783Y0358993D01*
X0082871Y0358867D01*
X0082955Y0358739D01*
X0083037Y0358609D01*
X0083114Y0358477D01*
X0083189Y0358343D01*
X0083260Y0358207D01*
X0083327Y0358069D01*
X0083391Y0357929D01*
X0083451Y0357788D01*
X0083507Y0357646D01*
X0083560Y0357502D01*
X0083609Y0357356D01*
X0083654Y0357210D01*
X0083695Y0357062D01*
X0083732Y0356914D01*
X0083766Y0356764D01*
X0083796Y0356613D01*
X0083821Y0356462D01*
X0083843Y0356311D01*
X0083861Y0356158D01*
X0083875Y0356006D01*
X0083885Y0355853D01*
X0083891Y0355699D01*
X0083893Y0355546D01*
X0083891Y0355393D01*
X0083885Y0355239D01*
X0083875Y0355086D01*
X0083861Y0354934D01*
X0083843Y0354781D01*
X0083821Y0354630D01*
X0083796Y0354479D01*
X0083766Y0354328D01*
X0083732Y0354178D01*
X0083695Y0354030D01*
X0083654Y0353882D01*
X0083609Y0353736D01*
X0083560Y0353590D01*
X0083507Y0353446D01*
X0083451Y0353304D01*
X0083391Y0353163D01*
X0083327Y0353023D01*
X0083260Y0352885D01*
X0083189Y0352749D01*
X0083114Y0352615D01*
X0083037Y0352483D01*
X0082955Y0352353D01*
X0082871Y0352225D01*
X0082783Y0352099D01*
X0082692Y0351976D01*
X0082598Y0351855D01*
X0082500Y0351737D01*
X0082400Y0351621D01*
X0082296Y0351508D01*
X0082190Y0351397D01*
X0082081Y0351289D01*
X0081969Y0351184D01*
X0081855Y0351083D01*
X0081737Y0350984D01*
X0081618Y0350888D01*
X0081496Y0350795D01*
X0081371Y0350706D01*
X0081244Y0350619D01*
X0081115Y0350537D01*
X0080984Y0350457D01*
X0080851Y0350381D01*
X0080716Y0350308D01*
X0080579Y0350239D01*
X0080440Y0350174D01*
X0080300Y0350112D01*
X0080158Y0350054D01*
X0080015Y0349999D01*
X0079870Y0349948D01*
X0079724Y0349901D01*
X0079577Y0349858D01*
X0079429Y0349819D01*
X0079280Y0349783D01*
X0079130Y0349752D01*
X0078979Y0349724D01*
X0078828Y0349700D01*
X0078675Y0349680D01*
X0078523Y0349664D01*
X0078370Y0349652D01*
X0078217Y0349644D01*
X0078064Y0349640D01*
X0077910Y0349640D01*
X0077757Y0349644D01*
X0077604Y0349652D01*
X0077451Y0349664D01*
X0077299Y0349680D01*
X0077146Y0349700D01*
X0076995Y0349724D01*
X0076844Y0349752D01*
X0076694Y0349783D01*
X0076545Y0349819D01*
X0076397Y0349858D01*
X0076250Y0349901D01*
X0076104Y0349948D01*
X0075959Y0349999D01*
X0075816Y0350054D01*
X0075674Y0350112D01*
X0075534Y0350174D01*
X0075395Y0350239D01*
X0075258Y0350308D01*
X0075123Y0350381D01*
X0074990Y0350457D01*
X0074859Y0350537D01*
X0074730Y0350619D01*
X0074603Y0350706D01*
X0074478Y0350795D01*
X0074356Y0350888D01*
X0074237Y0350984D01*
X0074119Y0351083D01*
X0074005Y0351184D01*
X0073893Y0351289D01*
X0073784Y0351397D01*
X0073678Y0351508D01*
X0073574Y0351621D01*
X0073474Y0351737D01*
X0073376Y0351855D01*
X0073282Y0351976D01*
X0073191Y0352099D01*
X0073103Y0352225D01*
X0073019Y0352353D01*
X0072937Y0352483D01*
X0072860Y0352615D01*
X0072785Y0352749D01*
X0072714Y0352885D01*
X0072647Y0353023D01*
X0072583Y0353163D01*
X0072523Y0353304D01*
X0072467Y0353446D01*
X0072414Y0353590D01*
X0072365Y0353736D01*
X0072320Y0353882D01*
X0072279Y0354030D01*
X0072242Y0354178D01*
X0072208Y0354328D01*
X0072178Y0354479D01*
X0072153Y0354630D01*
X0072131Y0354781D01*
X0072113Y0354934D01*
X0072099Y0355086D01*
X0072089Y0355239D01*
X0072083Y0355393D01*
X0072081Y0355546D01*
X0367357Y0060271D02*
X0367359Y0060424D01*
X0367365Y0060578D01*
X0367375Y0060731D01*
X0367389Y0060883D01*
X0367407Y0061036D01*
X0367429Y0061187D01*
X0367454Y0061338D01*
X0367484Y0061489D01*
X0367518Y0061639D01*
X0367555Y0061787D01*
X0367596Y0061935D01*
X0367641Y0062081D01*
X0367690Y0062227D01*
X0367743Y0062371D01*
X0367799Y0062513D01*
X0367859Y0062654D01*
X0367923Y0062794D01*
X0367990Y0062932D01*
X0368061Y0063068D01*
X0368136Y0063202D01*
X0368213Y0063334D01*
X0368295Y0063464D01*
X0368379Y0063592D01*
X0368467Y0063718D01*
X0368558Y0063841D01*
X0368652Y0063962D01*
X0368750Y0064080D01*
X0368850Y0064196D01*
X0368954Y0064309D01*
X0369060Y0064420D01*
X0369169Y0064528D01*
X0369281Y0064633D01*
X0369395Y0064734D01*
X0369513Y0064833D01*
X0369632Y0064929D01*
X0369754Y0065022D01*
X0369879Y0065111D01*
X0370006Y0065198D01*
X0370135Y0065280D01*
X0370266Y0065360D01*
X0370399Y0065436D01*
X0370534Y0065509D01*
X0370671Y0065578D01*
X0370810Y0065643D01*
X0370950Y0065705D01*
X0371092Y0065763D01*
X0371235Y0065818D01*
X0371380Y0065869D01*
X0371526Y0065916D01*
X0371673Y0065959D01*
X0371821Y0065998D01*
X0371970Y0066034D01*
X0372120Y0066065D01*
X0372271Y0066093D01*
X0372422Y0066117D01*
X0372575Y0066137D01*
X0372727Y0066153D01*
X0372880Y0066165D01*
X0373033Y0066173D01*
X0373186Y0066177D01*
X0373340Y0066177D01*
X0373493Y0066173D01*
X0373646Y0066165D01*
X0373799Y0066153D01*
X0373951Y0066137D01*
X0374104Y0066117D01*
X0374255Y0066093D01*
X0374406Y0066065D01*
X0374556Y0066034D01*
X0374705Y0065998D01*
X0374853Y0065959D01*
X0375000Y0065916D01*
X0375146Y0065869D01*
X0375291Y0065818D01*
X0375434Y0065763D01*
X0375576Y0065705D01*
X0375716Y0065643D01*
X0375855Y0065578D01*
X0375992Y0065509D01*
X0376127Y0065436D01*
X0376260Y0065360D01*
X0376391Y0065280D01*
X0376520Y0065198D01*
X0376647Y0065111D01*
X0376772Y0065022D01*
X0376894Y0064929D01*
X0377013Y0064833D01*
X0377131Y0064734D01*
X0377245Y0064633D01*
X0377357Y0064528D01*
X0377466Y0064420D01*
X0377572Y0064309D01*
X0377676Y0064196D01*
X0377776Y0064080D01*
X0377874Y0063962D01*
X0377968Y0063841D01*
X0378059Y0063718D01*
X0378147Y0063592D01*
X0378231Y0063464D01*
X0378313Y0063334D01*
X0378390Y0063202D01*
X0378465Y0063068D01*
X0378536Y0062932D01*
X0378603Y0062794D01*
X0378667Y0062654D01*
X0378727Y0062513D01*
X0378783Y0062371D01*
X0378836Y0062227D01*
X0378885Y0062081D01*
X0378930Y0061935D01*
X0378971Y0061787D01*
X0379008Y0061639D01*
X0379042Y0061489D01*
X0379072Y0061338D01*
X0379097Y0061187D01*
X0379119Y0061036D01*
X0379137Y0060883D01*
X0379151Y0060731D01*
X0379161Y0060578D01*
X0379167Y0060424D01*
X0379169Y0060271D01*
X0379167Y0060118D01*
X0379161Y0059964D01*
X0379151Y0059811D01*
X0379137Y0059659D01*
X0379119Y0059506D01*
X0379097Y0059355D01*
X0379072Y0059204D01*
X0379042Y0059053D01*
X0379008Y0058903D01*
X0378971Y0058755D01*
X0378930Y0058607D01*
X0378885Y0058461D01*
X0378836Y0058315D01*
X0378783Y0058171D01*
X0378727Y0058029D01*
X0378667Y0057888D01*
X0378603Y0057748D01*
X0378536Y0057610D01*
X0378465Y0057474D01*
X0378390Y0057340D01*
X0378313Y0057208D01*
X0378231Y0057078D01*
X0378147Y0056950D01*
X0378059Y0056824D01*
X0377968Y0056701D01*
X0377874Y0056580D01*
X0377776Y0056462D01*
X0377676Y0056346D01*
X0377572Y0056233D01*
X0377466Y0056122D01*
X0377357Y0056014D01*
X0377245Y0055909D01*
X0377131Y0055808D01*
X0377013Y0055709D01*
X0376894Y0055613D01*
X0376772Y0055520D01*
X0376647Y0055431D01*
X0376520Y0055344D01*
X0376391Y0055262D01*
X0376260Y0055182D01*
X0376127Y0055106D01*
X0375992Y0055033D01*
X0375855Y0054964D01*
X0375716Y0054899D01*
X0375576Y0054837D01*
X0375434Y0054779D01*
X0375291Y0054724D01*
X0375146Y0054673D01*
X0375000Y0054626D01*
X0374853Y0054583D01*
X0374705Y0054544D01*
X0374556Y0054508D01*
X0374406Y0054477D01*
X0374255Y0054449D01*
X0374104Y0054425D01*
X0373951Y0054405D01*
X0373799Y0054389D01*
X0373646Y0054377D01*
X0373493Y0054369D01*
X0373340Y0054365D01*
X0373186Y0054365D01*
X0373033Y0054369D01*
X0372880Y0054377D01*
X0372727Y0054389D01*
X0372575Y0054405D01*
X0372422Y0054425D01*
X0372271Y0054449D01*
X0372120Y0054477D01*
X0371970Y0054508D01*
X0371821Y0054544D01*
X0371673Y0054583D01*
X0371526Y0054626D01*
X0371380Y0054673D01*
X0371235Y0054724D01*
X0371092Y0054779D01*
X0370950Y0054837D01*
X0370810Y0054899D01*
X0370671Y0054964D01*
X0370534Y0055033D01*
X0370399Y0055106D01*
X0370266Y0055182D01*
X0370135Y0055262D01*
X0370006Y0055344D01*
X0369879Y0055431D01*
X0369754Y0055520D01*
X0369632Y0055613D01*
X0369513Y0055709D01*
X0369395Y0055808D01*
X0369281Y0055909D01*
X0369169Y0056014D01*
X0369060Y0056122D01*
X0368954Y0056233D01*
X0368850Y0056346D01*
X0368750Y0056462D01*
X0368652Y0056580D01*
X0368558Y0056701D01*
X0368467Y0056824D01*
X0368379Y0056950D01*
X0368295Y0057078D01*
X0368213Y0057208D01*
X0368136Y0057340D01*
X0368061Y0057474D01*
X0367990Y0057610D01*
X0367923Y0057748D01*
X0367859Y0057888D01*
X0367799Y0058029D01*
X0367743Y0058171D01*
X0367690Y0058315D01*
X0367641Y0058461D01*
X0367596Y0058607D01*
X0367555Y0058755D01*
X0367518Y0058903D01*
X0367484Y0059053D01*
X0367454Y0059204D01*
X0367429Y0059355D01*
X0367407Y0059506D01*
X0367389Y0059659D01*
X0367375Y0059811D01*
X0367365Y0059964D01*
X0367359Y0060118D01*
X0367357Y0060271D01*
D11*
X0381096Y0133948D02*
X0381096Y0136750D01*
X0382497Y0136750D01*
X0382964Y0136283D01*
X0382964Y0135349D01*
X0382497Y0134882D01*
X0381096Y0134882D01*
X0382030Y0134882D02*
X0382964Y0133948D01*
X0384042Y0133948D02*
X0385910Y0133948D01*
X0384976Y0133948D02*
X0384976Y0136750D01*
X0384042Y0135816D01*
X0386989Y0136283D02*
X0386989Y0134415D01*
X0388857Y0136283D01*
X0388857Y0134415D01*
X0388390Y0133948D01*
X0387456Y0133948D01*
X0386989Y0134415D01*
X0386989Y0136283D02*
X0387456Y0136750D01*
X0388390Y0136750D01*
X0388857Y0136283D01*
X0379394Y0162159D02*
X0379861Y0162626D01*
X0379861Y0163093D01*
X0379394Y0163560D01*
X0377993Y0163560D01*
X0377993Y0162626D01*
X0378460Y0162159D01*
X0379394Y0162159D01*
X0377993Y0163560D02*
X0378927Y0164494D01*
X0379861Y0164961D01*
X0376915Y0164494D02*
X0376915Y0163560D01*
X0376448Y0163093D01*
X0375047Y0163093D01*
X0375047Y0162159D02*
X0375047Y0164961D01*
X0376448Y0164961D01*
X0376915Y0164494D01*
X0373968Y0164961D02*
X0373034Y0164961D01*
X0373501Y0164961D02*
X0373501Y0162626D01*
X0373034Y0162159D01*
X0372567Y0162159D01*
X0372100Y0162626D01*
X0375899Y0191376D02*
X0375431Y0191843D01*
X0375899Y0191376D02*
X0376833Y0191376D01*
X0377300Y0191843D01*
X0377300Y0192311D01*
X0376833Y0192778D01*
X0375899Y0192778D01*
X0375431Y0193245D01*
X0375431Y0193712D01*
X0375899Y0194179D01*
X0376833Y0194179D01*
X0377300Y0193712D01*
X0378378Y0194179D02*
X0378378Y0191376D01*
X0379312Y0192311D01*
X0380246Y0191376D01*
X0380246Y0194179D01*
X0381325Y0194179D02*
X0382726Y0194179D01*
X0383193Y0193712D01*
X0383193Y0191843D01*
X0382726Y0191376D01*
X0381325Y0191376D01*
X0381325Y0194179D01*
X0363508Y0194696D02*
X0363508Y0192828D01*
X0363041Y0192361D01*
X0361639Y0192361D01*
X0361639Y0195163D01*
X0363041Y0195163D01*
X0363508Y0194696D01*
X0360561Y0195163D02*
X0360561Y0192361D01*
X0359627Y0193295D01*
X0358693Y0192361D01*
X0358693Y0195163D01*
X0357615Y0194696D02*
X0357148Y0195163D01*
X0356214Y0195163D01*
X0355746Y0194696D01*
X0355746Y0194229D01*
X0356214Y0193762D01*
X0357148Y0193762D01*
X0357615Y0193295D01*
X0357615Y0192828D01*
X0357148Y0192361D01*
X0356214Y0192361D01*
X0355746Y0192828D01*
X0340181Y0203955D02*
X0338313Y0203955D01*
X0340181Y0205823D01*
X0340181Y0206290D01*
X0339714Y0206758D01*
X0338780Y0206758D01*
X0338313Y0206290D01*
X0336300Y0206758D02*
X0336300Y0203955D01*
X0335366Y0203955D02*
X0337234Y0203955D01*
X0335366Y0205823D02*
X0336300Y0206758D01*
X0334288Y0206290D02*
X0334288Y0204422D01*
X0333821Y0203955D01*
X0332887Y0203955D01*
X0332420Y0204422D01*
X0332420Y0206290D01*
X0332887Y0206758D01*
X0333821Y0206758D01*
X0334288Y0206290D01*
X0333354Y0204889D02*
X0334288Y0203955D01*
X0322672Y0217554D02*
X0321491Y0217554D01*
X0316882Y0217959D02*
X0315948Y0217025D01*
X0315948Y0217492D02*
X0315948Y0216091D01*
X0316882Y0216091D02*
X0314080Y0216091D01*
X0314080Y0217492D01*
X0314547Y0217959D01*
X0315481Y0217959D01*
X0315948Y0217492D01*
X0316882Y0219037D02*
X0314080Y0219037D01*
X0316882Y0220906D01*
X0314080Y0220906D01*
X0314547Y0221984D02*
X0314080Y0222451D01*
X0314080Y0223385D01*
X0314547Y0223852D01*
X0315014Y0223852D01*
X0315481Y0223385D01*
X0315948Y0223852D01*
X0316415Y0223852D01*
X0316882Y0223385D01*
X0316882Y0222451D01*
X0316415Y0221984D01*
X0315481Y0222918D02*
X0315481Y0223385D01*
X0321491Y0229759D02*
X0322672Y0229759D01*
X0326971Y0235270D02*
X0326971Y0238073D01*
X0328372Y0238073D01*
X0328839Y0237606D01*
X0328839Y0236672D01*
X0328372Y0236205D01*
X0326971Y0236205D01*
X0327905Y0236205D02*
X0328839Y0235270D01*
X0329918Y0235270D02*
X0331786Y0235270D01*
X0330852Y0235270D02*
X0330852Y0238073D01*
X0329918Y0237139D01*
X0332864Y0236672D02*
X0334733Y0236672D01*
X0334265Y0238073D02*
X0332864Y0236672D01*
X0334265Y0238073D02*
X0334265Y0235270D01*
X0330744Y0249743D02*
X0329810Y0249743D01*
X0329343Y0250210D01*
X0328264Y0250210D02*
X0328264Y0252078D01*
X0327797Y0252545D01*
X0326863Y0252545D01*
X0326396Y0252078D01*
X0326396Y0250210D01*
X0326863Y0249743D01*
X0327797Y0249743D01*
X0328264Y0250210D01*
X0328264Y0249743D02*
X0327330Y0250677D01*
X0329343Y0252078D02*
X0329810Y0252545D01*
X0330744Y0252545D01*
X0331211Y0252078D01*
X0331211Y0251611D01*
X0330744Y0251144D01*
X0331211Y0250677D01*
X0331211Y0250210D01*
X0330744Y0249743D01*
X0330744Y0251144D02*
X0330277Y0251144D01*
X0324905Y0271251D02*
X0323971Y0271251D01*
X0323504Y0271718D01*
X0322426Y0271251D02*
X0320558Y0271251D01*
X0321492Y0271251D02*
X0321492Y0274053D01*
X0320558Y0273119D01*
X0319480Y0272652D02*
X0319012Y0272185D01*
X0317611Y0272185D01*
X0317611Y0271251D02*
X0317611Y0274053D01*
X0319012Y0274053D01*
X0319480Y0273586D01*
X0319480Y0272652D01*
X0318545Y0272185D02*
X0319480Y0271251D01*
X0323504Y0273586D02*
X0323971Y0274053D01*
X0324905Y0274053D01*
X0325373Y0273586D01*
X0325373Y0273119D01*
X0324905Y0272652D01*
X0325373Y0272185D01*
X0325373Y0271718D01*
X0324905Y0271251D01*
X0324905Y0272652D02*
X0324438Y0272652D01*
X0332257Y0304861D02*
X0331790Y0305328D01*
X0331790Y0307196D01*
X0332257Y0307663D01*
X0333191Y0307663D01*
X0333658Y0307196D01*
X0333658Y0305328D01*
X0333191Y0304861D01*
X0332257Y0304861D01*
X0332724Y0305795D02*
X0333658Y0304861D01*
X0334736Y0304861D02*
X0336605Y0306729D01*
X0336605Y0307196D01*
X0336137Y0307663D01*
X0335203Y0307663D01*
X0334736Y0307196D01*
X0334736Y0304861D02*
X0336605Y0304861D01*
X0309524Y0304674D02*
X0309524Y0305608D01*
X0309057Y0306075D01*
X0309524Y0307154D02*
X0309524Y0309022D01*
X0309524Y0308088D02*
X0306721Y0308088D01*
X0307655Y0307154D01*
X0307188Y0306075D02*
X0306721Y0305608D01*
X0306721Y0304674D01*
X0307188Y0304207D01*
X0309057Y0304207D01*
X0309524Y0304674D01*
X0325003Y0331727D02*
X0325003Y0334529D01*
X0326404Y0334529D01*
X0326871Y0334062D01*
X0326871Y0333128D01*
X0326404Y0332661D01*
X0325003Y0332661D01*
X0325937Y0332661D02*
X0326871Y0331727D01*
X0327949Y0331727D02*
X0329818Y0331727D01*
X0328883Y0331727D02*
X0328883Y0334529D01*
X0327949Y0333595D01*
X0330896Y0334062D02*
X0331363Y0334529D01*
X0332297Y0334529D01*
X0332764Y0334062D01*
X0332764Y0333595D01*
X0330896Y0331727D01*
X0332764Y0331727D01*
X0340603Y0354388D02*
X0340136Y0354855D01*
X0340136Y0356724D01*
X0340603Y0357191D01*
X0341537Y0357191D01*
X0342004Y0356724D01*
X0342004Y0354855D01*
X0341537Y0354388D01*
X0340603Y0354388D01*
X0341070Y0355322D02*
X0342004Y0354388D01*
X0343083Y0354388D02*
X0344951Y0354388D01*
X0344017Y0354388D02*
X0344017Y0357191D01*
X0343083Y0356256D01*
X0333748Y0380940D02*
X0331880Y0380940D01*
X0332814Y0380940D02*
X0332814Y0383742D01*
X0331880Y0382808D01*
X0330802Y0380940D02*
X0328934Y0380940D01*
X0329868Y0380940D02*
X0329868Y0383742D01*
X0328934Y0382808D01*
X0327855Y0383275D02*
X0327855Y0382341D01*
X0327388Y0381874D01*
X0325987Y0381874D01*
X0326921Y0381874D02*
X0327855Y0380940D01*
X0325987Y0380940D02*
X0325987Y0383742D01*
X0327388Y0383742D01*
X0327855Y0383275D01*
X0266491Y0275498D02*
X0266491Y0272695D01*
X0265557Y0272695D02*
X0267425Y0272695D01*
X0265557Y0274564D02*
X0266491Y0275498D01*
X0263544Y0275498D02*
X0263544Y0272695D01*
X0262610Y0272695D02*
X0264479Y0272695D01*
X0262610Y0274564D02*
X0263544Y0275498D01*
X0261532Y0275031D02*
X0261532Y0273162D01*
X0261065Y0272695D01*
X0260131Y0272695D01*
X0259664Y0273162D01*
X0259664Y0275031D01*
X0260131Y0275498D01*
X0261065Y0275498D01*
X0261532Y0275031D01*
X0260598Y0273629D02*
X0261532Y0272695D01*
X0253646Y0273162D02*
X0253178Y0272695D01*
X0252244Y0272695D01*
X0251777Y0273162D01*
X0253646Y0275031D01*
X0253646Y0273162D01*
X0253646Y0275031D02*
X0253178Y0275498D01*
X0252244Y0275498D01*
X0251777Y0275031D01*
X0251777Y0273162D01*
X0250699Y0272695D02*
X0248831Y0272695D01*
X0249765Y0272695D02*
X0249765Y0275498D01*
X0248831Y0274564D01*
X0247753Y0275031D02*
X0247753Y0273162D01*
X0247285Y0272695D01*
X0246351Y0272695D01*
X0245884Y0273162D01*
X0245884Y0275031D01*
X0246351Y0275498D01*
X0247285Y0275498D01*
X0247753Y0275031D01*
X0246818Y0273629D02*
X0247753Y0272695D01*
X0236920Y0273162D02*
X0236920Y0275031D01*
X0236452Y0275498D01*
X0235518Y0275498D01*
X0235051Y0275031D01*
X0235051Y0274564D01*
X0235518Y0274096D01*
X0236920Y0274096D01*
X0236920Y0273162D02*
X0236452Y0272695D01*
X0235518Y0272695D01*
X0235051Y0273162D01*
X0233973Y0273162D02*
X0233506Y0272695D01*
X0232572Y0272695D01*
X0232105Y0273162D01*
X0232105Y0275031D01*
X0232572Y0275498D01*
X0233506Y0275498D01*
X0233973Y0275031D01*
X0233973Y0273162D01*
X0233973Y0272695D02*
X0233039Y0273629D01*
X0223140Y0273629D02*
X0223140Y0273162D01*
X0222673Y0272695D01*
X0221739Y0272695D01*
X0221272Y0273162D01*
X0221272Y0273629D01*
X0221739Y0274096D01*
X0222673Y0274096D01*
X0223140Y0273629D01*
X0222673Y0274096D02*
X0223140Y0274564D01*
X0223140Y0275031D01*
X0222673Y0275498D01*
X0221739Y0275498D01*
X0221272Y0275031D01*
X0221272Y0274564D01*
X0221739Y0274096D01*
X0220193Y0273162D02*
X0219726Y0272695D01*
X0218792Y0272695D01*
X0218325Y0273162D01*
X0218325Y0275031D01*
X0218792Y0275498D01*
X0219726Y0275498D01*
X0220193Y0275031D01*
X0220193Y0273162D01*
X0220193Y0272695D02*
X0219259Y0273629D01*
X0207392Y0275031D02*
X0205524Y0273162D01*
X0205524Y0272695D01*
X0204445Y0272695D02*
X0203511Y0273629D01*
X0203044Y0272695D02*
X0202577Y0273162D01*
X0202577Y0275031D01*
X0203044Y0275498D01*
X0203978Y0275498D01*
X0204445Y0275031D01*
X0204445Y0273162D01*
X0203978Y0272695D01*
X0203044Y0272695D01*
X0205524Y0275498D02*
X0207392Y0275498D01*
X0207392Y0275031D01*
X0193612Y0275498D02*
X0192678Y0275031D01*
X0191744Y0274096D01*
X0193145Y0274096D01*
X0193612Y0273629D01*
X0193612Y0273162D01*
X0193145Y0272695D01*
X0192211Y0272695D01*
X0191744Y0273162D01*
X0191744Y0274096D01*
X0190666Y0273162D02*
X0190199Y0272695D01*
X0189265Y0272695D01*
X0188798Y0273162D01*
X0188798Y0275031D01*
X0189265Y0275498D01*
X0190199Y0275498D01*
X0190666Y0275031D01*
X0190666Y0273162D01*
X0190666Y0272695D02*
X0189732Y0273629D01*
X0179833Y0273162D02*
X0179366Y0272695D01*
X0178432Y0272695D01*
X0177965Y0273162D01*
X0177965Y0274096D02*
X0178899Y0274564D01*
X0179366Y0274564D01*
X0179833Y0274096D01*
X0179833Y0273162D01*
X0177965Y0274096D02*
X0177965Y0275498D01*
X0179833Y0275498D01*
X0176886Y0275031D02*
X0176886Y0273162D01*
X0176419Y0272695D01*
X0175485Y0272695D01*
X0175018Y0273162D01*
X0175018Y0275031D01*
X0175485Y0275498D01*
X0176419Y0275498D01*
X0176886Y0275031D01*
X0175952Y0273629D02*
X0176886Y0272695D01*
X0166053Y0274096D02*
X0164185Y0274096D01*
X0165586Y0275498D01*
X0165586Y0272695D01*
X0163107Y0272695D02*
X0162173Y0273629D01*
X0162640Y0272695D02*
X0161706Y0272695D01*
X0161239Y0273162D01*
X0161239Y0275031D01*
X0161706Y0275498D01*
X0162640Y0275498D01*
X0163107Y0275031D01*
X0163107Y0273162D01*
X0162640Y0272695D01*
X0186223Y0225277D02*
X0187624Y0225277D01*
X0188091Y0224810D01*
X0188091Y0223876D01*
X0187624Y0223409D01*
X0186223Y0223409D01*
X0186223Y0222475D02*
X0186223Y0225277D01*
X0187157Y0223409D02*
X0188091Y0222475D01*
X0189170Y0222942D02*
X0189637Y0222475D01*
X0190571Y0222475D01*
X0191038Y0222942D01*
X0191038Y0223409D01*
X0190571Y0223876D01*
X0190104Y0223876D01*
X0190571Y0223876D02*
X0191038Y0224343D01*
X0191038Y0224810D01*
X0190571Y0225277D01*
X0189637Y0225277D01*
X0189170Y0224810D01*
X0189170Y0219372D02*
X0191038Y0219372D01*
X0191038Y0218905D01*
X0189170Y0217037D01*
X0189170Y0216570D01*
X0188091Y0217037D02*
X0187624Y0216570D01*
X0186690Y0216570D01*
X0186223Y0217037D01*
X0186223Y0218905D01*
X0186690Y0219372D01*
X0187624Y0219372D01*
X0188091Y0218905D01*
X0187624Y0213466D02*
X0186690Y0213466D01*
X0186223Y0212999D01*
X0186223Y0211131D01*
X0186690Y0210664D01*
X0187624Y0210664D01*
X0188091Y0211131D01*
X0189170Y0211131D02*
X0189637Y0210664D01*
X0190571Y0210664D01*
X0191038Y0211131D01*
X0191038Y0212999D01*
X0190571Y0213466D01*
X0189637Y0213466D01*
X0189170Y0212999D01*
X0189170Y0212532D01*
X0189637Y0212065D01*
X0191038Y0212065D01*
X0188091Y0212999D02*
X0187624Y0213466D01*
X0187624Y0207561D02*
X0188091Y0207094D01*
X0188091Y0206160D01*
X0187624Y0205693D01*
X0186223Y0205693D01*
X0187157Y0205693D02*
X0188091Y0204759D01*
X0189170Y0205226D02*
X0189170Y0206160D01*
X0190571Y0206160D01*
X0191038Y0205693D01*
X0191038Y0205226D01*
X0190571Y0204759D01*
X0189637Y0204759D01*
X0189170Y0205226D01*
X0189170Y0206160D02*
X0190104Y0207094D01*
X0191038Y0207561D01*
X0187624Y0207561D02*
X0186223Y0207561D01*
X0186223Y0204759D01*
X0186690Y0201655D02*
X0186223Y0201188D01*
X0186223Y0199320D01*
X0186690Y0198853D01*
X0187624Y0198853D01*
X0188091Y0199320D01*
X0189170Y0198853D02*
X0191038Y0198853D01*
X0190104Y0198853D02*
X0190104Y0201655D01*
X0189170Y0200721D01*
X0188091Y0201188D02*
X0187624Y0201655D01*
X0186690Y0201655D01*
X0192116Y0200721D02*
X0193050Y0201655D01*
X0193050Y0198853D01*
X0192116Y0198853D02*
X0193984Y0198853D01*
X0193517Y0195750D02*
X0192583Y0195750D01*
X0192116Y0195283D01*
X0193517Y0195750D02*
X0193984Y0195283D01*
X0193984Y0194816D01*
X0192116Y0192948D01*
X0193984Y0192948D01*
X0191038Y0192948D02*
X0189170Y0192948D01*
X0190104Y0192948D02*
X0190104Y0195750D01*
X0189170Y0194816D01*
X0188091Y0195283D02*
X0187624Y0195750D01*
X0186690Y0195750D01*
X0186223Y0195283D01*
X0186223Y0193415D01*
X0186690Y0192948D01*
X0187624Y0192948D01*
X0188091Y0193415D01*
X0200849Y0178236D02*
X0201316Y0178236D01*
X0201784Y0177769D01*
X0202251Y0178236D01*
X0202718Y0178236D01*
X0203185Y0177769D01*
X0203185Y0176835D01*
X0202718Y0176368D01*
X0203185Y0175290D02*
X0203185Y0173422D01*
X0203185Y0174356D02*
X0200382Y0174356D01*
X0201316Y0173422D01*
X0200849Y0172343D02*
X0200382Y0171876D01*
X0200382Y0170942D01*
X0200849Y0170475D01*
X0202718Y0170475D01*
X0203185Y0170942D01*
X0203185Y0171876D01*
X0202718Y0172343D01*
X0200849Y0176368D02*
X0200382Y0176835D01*
X0200382Y0177769D01*
X0200849Y0178236D01*
X0201784Y0177769D02*
X0201784Y0177302D01*
X0207272Y0177769D02*
X0208673Y0176368D01*
X0208673Y0178236D01*
X0210074Y0177769D02*
X0207272Y0177769D01*
X0207272Y0174356D02*
X0210074Y0174356D01*
X0210074Y0173422D02*
X0210074Y0175290D01*
X0208206Y0173422D02*
X0207272Y0174356D01*
X0207739Y0172343D02*
X0207272Y0171876D01*
X0207272Y0170942D01*
X0207739Y0170475D01*
X0209607Y0170475D01*
X0210074Y0170942D01*
X0210074Y0171876D01*
X0209607Y0172343D01*
X0213178Y0171876D02*
X0213645Y0172343D01*
X0214579Y0172343D01*
X0215046Y0171876D01*
X0215046Y0170475D01*
X0215980Y0170475D02*
X0213178Y0170475D01*
X0213178Y0171876D01*
X0213645Y0173422D02*
X0214112Y0173422D01*
X0214579Y0173889D01*
X0214579Y0174823D01*
X0215046Y0175290D01*
X0215513Y0175290D01*
X0215980Y0174823D01*
X0215980Y0173889D01*
X0215513Y0173422D01*
X0215046Y0173422D01*
X0214579Y0173889D01*
X0214579Y0174823D02*
X0214112Y0175290D01*
X0213645Y0175290D01*
X0213178Y0174823D01*
X0213178Y0173889D01*
X0213645Y0173422D01*
X0215046Y0171409D02*
X0215980Y0172343D01*
X0220067Y0171876D02*
X0220534Y0172343D01*
X0221469Y0172343D01*
X0221936Y0171876D01*
X0221936Y0170475D01*
X0222870Y0170475D02*
X0220067Y0170475D01*
X0220067Y0171876D01*
X0220534Y0173422D02*
X0221002Y0173422D01*
X0221469Y0173889D01*
X0221469Y0175290D01*
X0222403Y0175290D02*
X0220534Y0175290D01*
X0220067Y0174823D01*
X0220067Y0173889D01*
X0220534Y0173422D01*
X0222403Y0173422D02*
X0222870Y0173889D01*
X0222870Y0174823D01*
X0222403Y0175290D01*
X0222870Y0172343D02*
X0221936Y0171409D01*
X0225973Y0170942D02*
X0226440Y0170475D01*
X0228308Y0170475D01*
X0228775Y0170942D01*
X0228775Y0171876D01*
X0228308Y0172343D01*
X0228775Y0173422D02*
X0228775Y0175290D01*
X0228775Y0174356D02*
X0225973Y0174356D01*
X0226907Y0173422D01*
X0226440Y0172343D02*
X0225973Y0171876D01*
X0225973Y0170942D01*
X0225973Y0176368D02*
X0227374Y0176368D01*
X0226907Y0177302D01*
X0226907Y0177769D01*
X0227374Y0178236D01*
X0228308Y0178236D01*
X0228775Y0177769D01*
X0228775Y0176835D01*
X0228308Y0176368D01*
X0225973Y0176368D02*
X0225973Y0178236D01*
X0229165Y0183936D02*
X0230099Y0183936D01*
X0229632Y0183936D02*
X0229632Y0186739D01*
X0229165Y0186739D02*
X0230099Y0186739D01*
X0231129Y0186272D02*
X0231129Y0184403D01*
X0231596Y0183936D01*
X0232530Y0183936D01*
X0232997Y0184403D01*
X0234076Y0183936D02*
X0235944Y0183936D01*
X0235010Y0183936D02*
X0235010Y0186739D01*
X0234076Y0185804D01*
X0232997Y0186272D02*
X0232530Y0186739D01*
X0231596Y0186739D01*
X0231129Y0186272D01*
X0248689Y0209735D02*
X0249623Y0209735D01*
X0250090Y0210202D01*
X0251168Y0209735D02*
X0253036Y0209735D01*
X0252102Y0209735D02*
X0252102Y0212538D01*
X0251168Y0211603D01*
X0250090Y0212070D02*
X0249623Y0212538D01*
X0248689Y0212538D01*
X0248221Y0212070D01*
X0248221Y0210202D01*
X0248689Y0209735D01*
X0254115Y0210202D02*
X0255983Y0212070D01*
X0255983Y0210202D01*
X0255516Y0209735D01*
X0254582Y0209735D01*
X0254115Y0210202D01*
X0254115Y0212070D01*
X0254582Y0212538D01*
X0255516Y0212538D01*
X0255983Y0212070D01*
X0255516Y0215641D02*
X0255516Y0218443D01*
X0254115Y0217042D01*
X0255983Y0217042D01*
X0253036Y0217042D02*
X0253036Y0217976D01*
X0252569Y0218443D01*
X0251168Y0218443D01*
X0251168Y0215641D01*
X0251168Y0216575D02*
X0252569Y0216575D01*
X0253036Y0217042D01*
X0252102Y0216575D02*
X0253036Y0215641D01*
X0252569Y0222530D02*
X0253036Y0222997D01*
X0252569Y0222530D02*
X0251635Y0222530D01*
X0251168Y0222997D01*
X0251168Y0224866D01*
X0251635Y0225333D01*
X0252569Y0225333D01*
X0253036Y0224866D01*
X0254115Y0223932D02*
X0255516Y0223932D01*
X0255983Y0223465D01*
X0255983Y0222997D01*
X0255516Y0222530D01*
X0254582Y0222530D01*
X0254115Y0222997D01*
X0254115Y0223932D01*
X0255049Y0224866D01*
X0255983Y0225333D01*
X0277267Y0223334D02*
X0277267Y0221466D01*
X0277734Y0220999D01*
X0278668Y0220999D01*
X0279135Y0221466D01*
X0280213Y0221466D02*
X0280213Y0221933D01*
X0280680Y0222400D01*
X0281614Y0222400D01*
X0282081Y0221933D01*
X0282081Y0221466D01*
X0281614Y0220999D01*
X0280680Y0220999D01*
X0280213Y0221466D01*
X0280680Y0222400D02*
X0280213Y0222867D01*
X0280213Y0223334D01*
X0280680Y0223801D01*
X0281614Y0223801D01*
X0282081Y0223334D01*
X0282081Y0222867D01*
X0281614Y0222400D01*
X0279135Y0223334D02*
X0278668Y0223801D01*
X0277734Y0223801D01*
X0277267Y0223334D01*
X0284195Y0209601D02*
X0283728Y0209134D01*
X0283728Y0208667D01*
X0284195Y0208200D01*
X0285129Y0208200D01*
X0285596Y0207733D01*
X0285596Y0207265D01*
X0285129Y0206798D01*
X0284195Y0206798D01*
X0283728Y0207265D01*
X0284195Y0209601D02*
X0285129Y0209601D01*
X0285596Y0209134D01*
X0287608Y0209601D02*
X0288543Y0209601D01*
X0288075Y0209601D02*
X0288075Y0207265D01*
X0287608Y0206798D01*
X0287141Y0206798D01*
X0286674Y0207265D01*
X0289621Y0206798D02*
X0291489Y0206798D01*
X0290555Y0206798D02*
X0290555Y0209601D01*
X0289621Y0208667D01*
X0293570Y0208667D02*
X0294037Y0208200D01*
X0294971Y0208200D01*
X0295439Y0207733D01*
X0295439Y0207265D01*
X0294971Y0206798D01*
X0294037Y0206798D01*
X0293570Y0207265D01*
X0293570Y0208667D02*
X0293570Y0209134D01*
X0294037Y0209601D01*
X0294971Y0209601D01*
X0295439Y0209134D01*
X0297451Y0209601D02*
X0298385Y0209601D01*
X0297918Y0209601D02*
X0297918Y0207265D01*
X0297451Y0206798D01*
X0296984Y0206798D01*
X0296517Y0207265D01*
X0299463Y0206798D02*
X0301332Y0208667D01*
X0301332Y0209134D01*
X0300865Y0209601D01*
X0299930Y0209601D01*
X0299463Y0209134D01*
X0299463Y0206798D02*
X0301332Y0206798D01*
X0281097Y0206652D02*
X0281097Y0205718D01*
X0280630Y0205251D01*
X0279696Y0205251D01*
X0279229Y0205718D01*
X0279229Y0206652D02*
X0280163Y0207119D01*
X0280630Y0207119D01*
X0281097Y0206652D01*
X0281097Y0208053D02*
X0279229Y0208053D01*
X0279229Y0206652D01*
X0278151Y0206652D02*
X0277683Y0206185D01*
X0276282Y0206185D01*
X0276282Y0205251D02*
X0276282Y0208053D01*
X0277683Y0208053D01*
X0278151Y0207586D01*
X0278151Y0206652D01*
X0277216Y0206185D02*
X0278151Y0205251D01*
X0267803Y0177049D02*
X0265935Y0177049D01*
X0265935Y0175648D01*
X0266869Y0176115D01*
X0267336Y0176115D01*
X0267803Y0175648D01*
X0267803Y0174714D01*
X0267336Y0174247D01*
X0266402Y0174247D01*
X0265935Y0174714D01*
X0264857Y0174247D02*
X0262989Y0174247D01*
X0263923Y0174247D02*
X0263923Y0177049D01*
X0262989Y0176115D01*
X0261910Y0175648D02*
X0261443Y0175181D01*
X0260042Y0175181D01*
X0260976Y0175181D02*
X0261910Y0174247D01*
X0261910Y0175648D02*
X0261910Y0176582D01*
X0261443Y0177049D01*
X0260042Y0177049D01*
X0260042Y0174247D01*
X0282879Y0165974D02*
X0283346Y0166441D01*
X0283813Y0166441D01*
X0284280Y0165974D01*
X0284747Y0166441D01*
X0285214Y0166441D01*
X0285681Y0165974D01*
X0285681Y0165040D01*
X0285214Y0164573D01*
X0285681Y0163494D02*
X0285681Y0161626D01*
X0285681Y0162560D02*
X0282879Y0162560D01*
X0283813Y0161626D01*
X0283346Y0160548D02*
X0285214Y0160548D01*
X0285681Y0160081D01*
X0285681Y0159147D01*
X0285214Y0158680D01*
X0283346Y0158680D01*
X0282879Y0159147D01*
X0282879Y0160081D01*
X0283346Y0160548D01*
X0284747Y0159614D02*
X0285681Y0160548D01*
X0283346Y0164573D02*
X0282879Y0165040D01*
X0282879Y0165974D01*
X0284280Y0165974D02*
X0284280Y0165507D01*
X0276905Y0152495D02*
X0275724Y0152495D01*
X0271114Y0146121D02*
X0268312Y0146121D01*
X0269713Y0144720D01*
X0269713Y0146588D01*
X0271114Y0143642D02*
X0268312Y0143642D01*
X0268312Y0141774D02*
X0271114Y0143642D01*
X0271114Y0141774D02*
X0268312Y0141774D01*
X0268779Y0140695D02*
X0269713Y0140695D01*
X0270180Y0140228D01*
X0270180Y0138827D01*
X0271114Y0138827D02*
X0268312Y0138827D01*
X0268312Y0140228D01*
X0268779Y0140695D01*
X0270180Y0139761D02*
X0271114Y0140695D01*
X0275724Y0140291D02*
X0276905Y0140291D01*
X0280051Y0137873D02*
X0280519Y0136938D01*
X0281453Y0136004D01*
X0281453Y0137405D01*
X0281920Y0137873D01*
X0282387Y0137873D01*
X0282854Y0137405D01*
X0282854Y0136471D01*
X0282387Y0136004D01*
X0281453Y0136004D01*
X0282854Y0134926D02*
X0282854Y0133058D01*
X0282854Y0133992D02*
X0280051Y0133992D01*
X0280986Y0133058D01*
X0281453Y0131980D02*
X0281920Y0131512D01*
X0281920Y0130111D01*
X0282854Y0130111D02*
X0280051Y0130111D01*
X0280051Y0131512D01*
X0280519Y0131980D01*
X0281453Y0131980D01*
X0281920Y0131045D02*
X0282854Y0131980D01*
X0260740Y0127686D02*
X0257938Y0127686D01*
X0259339Y0126285D01*
X0259339Y0128153D01*
X0260740Y0125207D02*
X0260740Y0123339D01*
X0260740Y0124273D02*
X0257938Y0124273D01*
X0258872Y0123339D01*
X0258405Y0122260D02*
X0260273Y0122260D01*
X0260740Y0121793D01*
X0260740Y0120859D01*
X0260273Y0120392D01*
X0258405Y0120392D01*
X0257938Y0120859D01*
X0257938Y0121793D01*
X0258405Y0122260D01*
X0259806Y0121326D02*
X0260740Y0122260D01*
X0259217Y0108963D02*
X0258750Y0108963D01*
X0258283Y0108496D01*
X0258283Y0107095D01*
X0259217Y0107095D01*
X0259684Y0107562D01*
X0259684Y0108496D01*
X0259217Y0108963D01*
X0257349Y0108029D02*
X0258283Y0107095D01*
X0257349Y0108029D02*
X0256882Y0108963D01*
X0256882Y0105083D02*
X0259684Y0105083D01*
X0259684Y0104149D02*
X0259684Y0106017D01*
X0257816Y0104149D02*
X0256882Y0105083D01*
X0257349Y0103070D02*
X0256882Y0102603D01*
X0256882Y0101669D01*
X0257349Y0101202D01*
X0259217Y0101202D01*
X0259684Y0101669D01*
X0259684Y0102603D01*
X0259217Y0103070D01*
X0258989Y0092112D02*
X0258522Y0091645D01*
X0258522Y0089777D01*
X0258989Y0089309D01*
X0259923Y0089309D01*
X0260390Y0089777D01*
X0260390Y0091645D01*
X0259923Y0092112D01*
X0258989Y0092112D01*
X0259456Y0090244D02*
X0260390Y0089309D01*
X0261469Y0089309D02*
X0263337Y0089309D01*
X0262403Y0089309D02*
X0262403Y0092112D01*
X0261469Y0091178D01*
X0264415Y0090711D02*
X0265349Y0091178D01*
X0265816Y0091178D01*
X0266283Y0090711D01*
X0266283Y0089777D01*
X0265816Y0089309D01*
X0264882Y0089309D01*
X0264415Y0089777D01*
X0264415Y0090711D02*
X0264415Y0092112D01*
X0266283Y0092112D01*
X0270701Y0092105D02*
X0270701Y0090237D01*
X0270701Y0092105D02*
X0271168Y0092105D01*
X0273036Y0090237D01*
X0273503Y0090237D01*
X0273503Y0089158D02*
X0273503Y0087290D01*
X0273503Y0088224D02*
X0270701Y0088224D01*
X0271635Y0087290D01*
X0271168Y0086212D02*
X0272102Y0086212D01*
X0272569Y0085745D01*
X0272569Y0084344D01*
X0272569Y0085278D02*
X0273503Y0086212D01*
X0273503Y0084344D02*
X0270701Y0084344D01*
X0270701Y0085745D01*
X0271168Y0086212D01*
X0272257Y0069474D02*
X0271790Y0069007D01*
X0271790Y0067139D01*
X0272257Y0066672D01*
X0273191Y0066672D01*
X0273658Y0067139D01*
X0273658Y0069007D01*
X0273191Y0069474D01*
X0272257Y0069474D01*
X0272724Y0067606D02*
X0273658Y0066672D01*
X0274736Y0066672D02*
X0276605Y0066672D01*
X0275670Y0066672D02*
X0275670Y0069474D01*
X0274736Y0068540D01*
X0277683Y0068073D02*
X0279084Y0068073D01*
X0279551Y0067606D01*
X0279551Y0067139D01*
X0279084Y0066672D01*
X0278150Y0066672D01*
X0277683Y0067139D01*
X0277683Y0068073D01*
X0278617Y0069007D01*
X0279551Y0069474D01*
X0279690Y0042207D02*
X0280624Y0042207D01*
X0281091Y0041740D01*
X0281091Y0041273D01*
X0280624Y0040805D01*
X0279690Y0040805D01*
X0279223Y0041273D01*
X0279223Y0041740D01*
X0279690Y0042207D01*
X0279690Y0040805D02*
X0279223Y0040338D01*
X0279223Y0039871D01*
X0279690Y0039404D01*
X0280624Y0039404D01*
X0281091Y0039871D01*
X0281091Y0040338D01*
X0280624Y0040805D01*
X0278144Y0039404D02*
X0276276Y0039404D01*
X0277210Y0039404D02*
X0277210Y0042207D01*
X0276276Y0041273D01*
X0275198Y0041740D02*
X0275198Y0040805D01*
X0274731Y0040338D01*
X0273330Y0040338D01*
X0274264Y0040338D02*
X0275198Y0039404D01*
X0273330Y0039404D02*
X0273330Y0042207D01*
X0274731Y0042207D01*
X0275198Y0041740D01*
X0183776Y0062036D02*
X0183309Y0061569D01*
X0183776Y0062036D02*
X0183776Y0062503D01*
X0183309Y0062970D01*
X0180974Y0062970D01*
X0180974Y0062503D02*
X0180974Y0063437D01*
X0180974Y0064515D02*
X0180974Y0065916D01*
X0181441Y0066383D01*
X0182375Y0066383D01*
X0182842Y0065916D01*
X0182842Y0064515D01*
X0183776Y0064515D02*
X0180974Y0064515D01*
X0182375Y0067462D02*
X0182375Y0069330D01*
X0180974Y0068863D02*
X0182375Y0067462D01*
X0183776Y0068863D02*
X0180974Y0068863D01*
X0194477Y0170475D02*
X0194477Y0171876D01*
X0194944Y0172343D01*
X0195878Y0172343D01*
X0196345Y0171876D01*
X0196345Y0170475D01*
X0197279Y0170475D02*
X0194477Y0170475D01*
X0196345Y0171409D02*
X0197279Y0172343D01*
X0197279Y0173422D02*
X0196812Y0173422D01*
X0194944Y0175290D01*
X0194477Y0175290D01*
X0194477Y0173422D01*
X0218074Y0232975D02*
X0219942Y0232975D01*
X0220409Y0233442D01*
X0220409Y0234376D01*
X0219942Y0234843D01*
X0219942Y0235922D02*
X0220409Y0236389D01*
X0220409Y0237323D01*
X0219942Y0237790D01*
X0219008Y0237790D01*
X0218541Y0237323D01*
X0218541Y0236856D01*
X0219008Y0235922D01*
X0217607Y0235922D01*
X0217607Y0237790D01*
X0218074Y0234843D02*
X0217607Y0234376D01*
X0217607Y0233442D01*
X0218074Y0232975D01*
X0229038Y0246097D02*
X0229038Y0248900D01*
X0230439Y0248900D01*
X0230906Y0248432D01*
X0230906Y0247498D01*
X0230439Y0247031D01*
X0229038Y0247031D01*
X0229972Y0247031D02*
X0230906Y0246097D01*
X0231985Y0246097D02*
X0233853Y0247965D01*
X0233853Y0248432D01*
X0233386Y0248900D01*
X0232452Y0248900D01*
X0231985Y0248432D01*
X0231985Y0246097D02*
X0233853Y0246097D01*
X0239373Y0246072D02*
X0239373Y0247940D01*
X0239840Y0248407D01*
X0240774Y0248407D01*
X0241241Y0247940D01*
X0242319Y0247006D02*
X0244188Y0247006D01*
X0243721Y0245605D02*
X0243721Y0248407D01*
X0242319Y0247006D01*
X0241241Y0246072D02*
X0240774Y0245605D01*
X0239840Y0245605D01*
X0239373Y0246072D01*
X0250200Y0248558D02*
X0250200Y0251360D01*
X0251601Y0251360D01*
X0252068Y0250893D01*
X0252068Y0249959D01*
X0251601Y0249492D01*
X0250200Y0249492D01*
X0251134Y0249492D02*
X0252068Y0248558D01*
X0253146Y0248558D02*
X0255014Y0248558D01*
X0254080Y0248558D02*
X0254080Y0251360D01*
X0253146Y0250426D01*
X0304136Y0164961D02*
X0305071Y0164961D01*
X0304604Y0164961D02*
X0304604Y0162626D01*
X0304136Y0162159D01*
X0303669Y0162159D01*
X0303202Y0162626D01*
X0306149Y0162159D02*
X0306149Y0164961D01*
X0307550Y0164961D01*
X0308017Y0164494D01*
X0308017Y0163560D01*
X0307550Y0163093D01*
X0306149Y0163093D01*
X0309095Y0162626D02*
X0309562Y0162159D01*
X0310497Y0162159D01*
X0310964Y0162626D01*
X0310964Y0163560D01*
X0310497Y0164027D01*
X0310030Y0164027D01*
X0309095Y0163560D01*
X0309095Y0164961D01*
X0310964Y0164961D01*
X0364264Y0239169D02*
X0363797Y0239636D01*
X0363797Y0241504D01*
X0364264Y0241971D01*
X0365198Y0241971D01*
X0365665Y0241504D01*
X0365665Y0239636D01*
X0365198Y0239169D01*
X0364264Y0239169D01*
X0364731Y0240103D02*
X0365665Y0239169D01*
X0366743Y0239169D02*
X0368611Y0239169D01*
X0367677Y0239169D02*
X0367677Y0241971D01*
X0366743Y0241037D01*
X0369690Y0241971D02*
X0371558Y0241971D01*
X0371558Y0241504D01*
X0369690Y0239636D01*
X0369690Y0239169D01*
X0360642Y0264928D02*
X0358774Y0264928D01*
X0358307Y0265395D01*
X0358307Y0266329D01*
X0358774Y0266796D01*
X0358774Y0267875D02*
X0358307Y0268342D01*
X0358307Y0269276D01*
X0358774Y0269743D01*
X0359241Y0269743D01*
X0361109Y0267875D01*
X0361109Y0269743D01*
X0360642Y0266796D02*
X0361109Y0266329D01*
X0361109Y0265395D01*
X0360642Y0264928D01*
X0385866Y0265345D02*
X0385866Y0264411D01*
X0386333Y0263944D01*
X0388201Y0263944D01*
X0388669Y0264411D01*
X0388669Y0265345D01*
X0388201Y0265812D01*
X0388201Y0266890D02*
X0388669Y0267358D01*
X0388669Y0268292D01*
X0388201Y0268759D01*
X0387734Y0268759D01*
X0387267Y0268292D01*
X0387267Y0267825D01*
X0387267Y0268292D02*
X0386800Y0268759D01*
X0386333Y0268759D01*
X0385866Y0268292D01*
X0385866Y0267358D01*
X0386333Y0266890D01*
X0386333Y0265812D02*
X0385866Y0265345D01*
X0411912Y0252560D02*
X0412846Y0252560D01*
X0412379Y0252560D02*
X0412379Y0250225D01*
X0411912Y0249757D01*
X0411445Y0249757D01*
X0410978Y0250225D01*
X0413924Y0250692D02*
X0415326Y0250692D01*
X0415793Y0251159D01*
X0415793Y0252093D01*
X0415326Y0252560D01*
X0413924Y0252560D01*
X0413924Y0249757D01*
X0416871Y0250225D02*
X0417338Y0249757D01*
X0418272Y0249757D01*
X0418739Y0250225D01*
X0418739Y0250692D01*
X0418272Y0251159D01*
X0417805Y0251159D01*
X0418272Y0251159D02*
X0418739Y0251626D01*
X0418739Y0252093D01*
X0418272Y0252560D01*
X0417338Y0252560D01*
X0416871Y0252093D01*
X0182792Y0393728D02*
X0182792Y0394196D01*
X0182325Y0394663D01*
X0179990Y0394663D01*
X0179990Y0394196D02*
X0179990Y0395130D01*
X0179990Y0396208D02*
X0179990Y0397609D01*
X0180457Y0398076D01*
X0181391Y0398076D01*
X0181858Y0397609D01*
X0181858Y0396208D01*
X0182792Y0396208D02*
X0179990Y0396208D01*
X0180924Y0399154D02*
X0179990Y0400089D01*
X0182792Y0400089D01*
X0182792Y0401023D02*
X0182792Y0399154D01*
X0182792Y0393728D02*
X0182325Y0393261D01*
X0087564Y0253544D02*
X0086629Y0253544D01*
X0086162Y0253077D01*
X0085084Y0253077D02*
X0085084Y0252143D01*
X0084617Y0251676D01*
X0083216Y0251676D01*
X0083216Y0250742D02*
X0083216Y0253544D01*
X0084617Y0253544D01*
X0085084Y0253077D01*
X0087564Y0253544D02*
X0088031Y0253077D01*
X0088031Y0252610D01*
X0086162Y0250742D01*
X0088031Y0250742D01*
X0081670Y0251209D02*
X0081670Y0253544D01*
X0081203Y0253544D02*
X0082138Y0253544D01*
X0081670Y0251209D02*
X0081203Y0250742D01*
X0080736Y0250742D01*
X0080269Y0251209D01*
D12*
X0212543Y0218747D02*
X0212543Y0196125D01*
X0214511Y0194157D01*
X0237133Y0194157D01*
X0239102Y0196125D01*
X0239102Y0218747D01*
X0237133Y0220716D01*
X0214511Y0220716D01*
X0212543Y0218747D01*
X0233696Y0217279D02*
X0233698Y0217367D01*
X0233704Y0217455D01*
X0233714Y0217543D01*
X0233728Y0217631D01*
X0233745Y0217717D01*
X0233767Y0217803D01*
X0233792Y0217887D01*
X0233822Y0217971D01*
X0233854Y0218053D01*
X0233891Y0218133D01*
X0233931Y0218212D01*
X0233975Y0218289D01*
X0234022Y0218364D01*
X0234072Y0218436D01*
X0234126Y0218507D01*
X0234182Y0218574D01*
X0234242Y0218640D01*
X0234304Y0218702D01*
X0234370Y0218762D01*
X0234437Y0218818D01*
X0234508Y0218872D01*
X0234580Y0218922D01*
X0234655Y0218969D01*
X0234732Y0219013D01*
X0234811Y0219053D01*
X0234891Y0219090D01*
X0234973Y0219122D01*
X0235057Y0219152D01*
X0235141Y0219177D01*
X0235227Y0219199D01*
X0235313Y0219216D01*
X0235401Y0219230D01*
X0235489Y0219240D01*
X0235577Y0219246D01*
X0235665Y0219248D01*
X0235753Y0219246D01*
X0235841Y0219240D01*
X0235929Y0219230D01*
X0236017Y0219216D01*
X0236103Y0219199D01*
X0236189Y0219177D01*
X0236273Y0219152D01*
X0236357Y0219122D01*
X0236439Y0219090D01*
X0236519Y0219053D01*
X0236598Y0219013D01*
X0236675Y0218969D01*
X0236750Y0218922D01*
X0236822Y0218872D01*
X0236893Y0218818D01*
X0236960Y0218762D01*
X0237026Y0218702D01*
X0237088Y0218640D01*
X0237148Y0218574D01*
X0237204Y0218507D01*
X0237258Y0218436D01*
X0237308Y0218364D01*
X0237355Y0218289D01*
X0237399Y0218212D01*
X0237439Y0218133D01*
X0237476Y0218053D01*
X0237508Y0217971D01*
X0237538Y0217887D01*
X0237563Y0217803D01*
X0237585Y0217717D01*
X0237602Y0217631D01*
X0237616Y0217543D01*
X0237626Y0217455D01*
X0237632Y0217367D01*
X0237634Y0217279D01*
X0237632Y0217191D01*
X0237626Y0217103D01*
X0237616Y0217015D01*
X0237602Y0216927D01*
X0237585Y0216841D01*
X0237563Y0216755D01*
X0237538Y0216671D01*
X0237508Y0216587D01*
X0237476Y0216505D01*
X0237439Y0216425D01*
X0237399Y0216346D01*
X0237355Y0216269D01*
X0237308Y0216194D01*
X0237258Y0216122D01*
X0237204Y0216051D01*
X0237148Y0215984D01*
X0237088Y0215918D01*
X0237026Y0215856D01*
X0236960Y0215796D01*
X0236893Y0215740D01*
X0236822Y0215686D01*
X0236750Y0215636D01*
X0236675Y0215589D01*
X0236598Y0215545D01*
X0236519Y0215505D01*
X0236439Y0215468D01*
X0236357Y0215436D01*
X0236273Y0215406D01*
X0236189Y0215381D01*
X0236103Y0215359D01*
X0236017Y0215342D01*
X0235929Y0215328D01*
X0235841Y0215318D01*
X0235753Y0215312D01*
X0235665Y0215310D01*
X0235577Y0215312D01*
X0235489Y0215318D01*
X0235401Y0215328D01*
X0235313Y0215342D01*
X0235227Y0215359D01*
X0235141Y0215381D01*
X0235057Y0215406D01*
X0234973Y0215436D01*
X0234891Y0215468D01*
X0234811Y0215505D01*
X0234732Y0215545D01*
X0234655Y0215589D01*
X0234580Y0215636D01*
X0234508Y0215686D01*
X0234437Y0215740D01*
X0234370Y0215796D01*
X0234304Y0215856D01*
X0234242Y0215918D01*
X0234182Y0215984D01*
X0234126Y0216051D01*
X0234072Y0216122D01*
X0234022Y0216194D01*
X0233975Y0216269D01*
X0233931Y0216346D01*
X0233891Y0216425D01*
X0233854Y0216505D01*
X0233822Y0216587D01*
X0233792Y0216671D01*
X0233767Y0216755D01*
X0233745Y0216841D01*
X0233728Y0216927D01*
X0233714Y0217015D01*
X0233704Y0217103D01*
X0233698Y0217191D01*
X0233696Y0217279D01*
X0313129Y0303334D02*
X0313129Y0305334D01*
X0314129Y0304334D02*
X0312129Y0304334D01*
X0313129Y0307834D02*
X0313129Y0309834D01*
X0310629Y0306334D02*
X0310632Y0306543D01*
X0310639Y0306751D01*
X0310652Y0306959D01*
X0310670Y0307167D01*
X0310693Y0307374D01*
X0310721Y0307581D01*
X0310754Y0307787D01*
X0310792Y0307992D01*
X0310836Y0308196D01*
X0310884Y0308399D01*
X0310937Y0308601D01*
X0310995Y0308801D01*
X0311058Y0309000D01*
X0311126Y0309198D01*
X0311199Y0309393D01*
X0311276Y0309587D01*
X0311358Y0309779D01*
X0311445Y0309968D01*
X0311537Y0310156D01*
X0311633Y0310341D01*
X0311733Y0310524D01*
X0311838Y0310704D01*
X0311948Y0310881D01*
X0312062Y0311056D01*
X0312180Y0311228D01*
X0312302Y0311397D01*
X0312428Y0311563D01*
X0312558Y0311726D01*
X0312693Y0311886D01*
X0312831Y0312042D01*
X0312973Y0312195D01*
X0313119Y0312344D01*
X0313268Y0312490D01*
X0313421Y0312632D01*
X0313577Y0312770D01*
X0313737Y0312905D01*
X0313900Y0313035D01*
X0314066Y0313161D01*
X0314235Y0313283D01*
X0314407Y0313401D01*
X0314582Y0313515D01*
X0314759Y0313625D01*
X0314939Y0313730D01*
X0315122Y0313830D01*
X0315307Y0313926D01*
X0315495Y0314018D01*
X0315684Y0314105D01*
X0315876Y0314187D01*
X0316070Y0314264D01*
X0316265Y0314337D01*
X0316463Y0314405D01*
X0316662Y0314468D01*
X0316862Y0314526D01*
X0317064Y0314579D01*
X0317267Y0314627D01*
X0317471Y0314671D01*
X0317676Y0314709D01*
X0317882Y0314742D01*
X0318089Y0314770D01*
X0318296Y0314793D01*
X0318504Y0314811D01*
X0318712Y0314824D01*
X0318920Y0314831D01*
X0319129Y0314834D01*
X0319338Y0314831D01*
X0319546Y0314824D01*
X0319754Y0314811D01*
X0319962Y0314793D01*
X0320169Y0314770D01*
X0320376Y0314742D01*
X0320582Y0314709D01*
X0320787Y0314671D01*
X0320991Y0314627D01*
X0321194Y0314579D01*
X0321396Y0314526D01*
X0321596Y0314468D01*
X0321795Y0314405D01*
X0321993Y0314337D01*
X0322188Y0314264D01*
X0322382Y0314187D01*
X0322574Y0314105D01*
X0322763Y0314018D01*
X0322951Y0313926D01*
X0323136Y0313830D01*
X0323319Y0313730D01*
X0323499Y0313625D01*
X0323676Y0313515D01*
X0323851Y0313401D01*
X0324023Y0313283D01*
X0324192Y0313161D01*
X0324358Y0313035D01*
X0324521Y0312905D01*
X0324681Y0312770D01*
X0324837Y0312632D01*
X0324990Y0312490D01*
X0325139Y0312344D01*
X0325285Y0312195D01*
X0325427Y0312042D01*
X0325565Y0311886D01*
X0325700Y0311726D01*
X0325830Y0311563D01*
X0325956Y0311397D01*
X0326078Y0311228D01*
X0326196Y0311056D01*
X0326310Y0310881D01*
X0326420Y0310704D01*
X0326525Y0310524D01*
X0326625Y0310341D01*
X0326721Y0310156D01*
X0326813Y0309968D01*
X0326900Y0309779D01*
X0326982Y0309587D01*
X0327059Y0309393D01*
X0327132Y0309198D01*
X0327200Y0309000D01*
X0327263Y0308801D01*
X0327321Y0308601D01*
X0327374Y0308399D01*
X0327422Y0308196D01*
X0327466Y0307992D01*
X0327504Y0307787D01*
X0327537Y0307581D01*
X0327565Y0307374D01*
X0327588Y0307167D01*
X0327606Y0306959D01*
X0327619Y0306751D01*
X0327626Y0306543D01*
X0327629Y0306334D01*
X0327626Y0306125D01*
X0327619Y0305917D01*
X0327606Y0305709D01*
X0327588Y0305501D01*
X0327565Y0305294D01*
X0327537Y0305087D01*
X0327504Y0304881D01*
X0327466Y0304676D01*
X0327422Y0304472D01*
X0327374Y0304269D01*
X0327321Y0304067D01*
X0327263Y0303867D01*
X0327200Y0303668D01*
X0327132Y0303470D01*
X0327059Y0303275D01*
X0326982Y0303081D01*
X0326900Y0302889D01*
X0326813Y0302700D01*
X0326721Y0302512D01*
X0326625Y0302327D01*
X0326525Y0302144D01*
X0326420Y0301964D01*
X0326310Y0301787D01*
X0326196Y0301612D01*
X0326078Y0301440D01*
X0325956Y0301271D01*
X0325830Y0301105D01*
X0325700Y0300942D01*
X0325565Y0300782D01*
X0325427Y0300626D01*
X0325285Y0300473D01*
X0325139Y0300324D01*
X0324990Y0300178D01*
X0324837Y0300036D01*
X0324681Y0299898D01*
X0324521Y0299763D01*
X0324358Y0299633D01*
X0324192Y0299507D01*
X0324023Y0299385D01*
X0323851Y0299267D01*
X0323676Y0299153D01*
X0323499Y0299043D01*
X0323319Y0298938D01*
X0323136Y0298838D01*
X0322951Y0298742D01*
X0322763Y0298650D01*
X0322574Y0298563D01*
X0322382Y0298481D01*
X0322188Y0298404D01*
X0321993Y0298331D01*
X0321795Y0298263D01*
X0321596Y0298200D01*
X0321396Y0298142D01*
X0321194Y0298089D01*
X0320991Y0298041D01*
X0320787Y0297997D01*
X0320582Y0297959D01*
X0320376Y0297926D01*
X0320169Y0297898D01*
X0319962Y0297875D01*
X0319754Y0297857D01*
X0319546Y0297844D01*
X0319338Y0297837D01*
X0319129Y0297834D01*
X0318920Y0297837D01*
X0318712Y0297844D01*
X0318504Y0297857D01*
X0318296Y0297875D01*
X0318089Y0297898D01*
X0317882Y0297926D01*
X0317676Y0297959D01*
X0317471Y0297997D01*
X0317267Y0298041D01*
X0317064Y0298089D01*
X0316862Y0298142D01*
X0316662Y0298200D01*
X0316463Y0298263D01*
X0316265Y0298331D01*
X0316070Y0298404D01*
X0315876Y0298481D01*
X0315684Y0298563D01*
X0315495Y0298650D01*
X0315307Y0298742D01*
X0315122Y0298838D01*
X0314939Y0298938D01*
X0314759Y0299043D01*
X0314582Y0299153D01*
X0314407Y0299267D01*
X0314235Y0299385D01*
X0314066Y0299507D01*
X0313900Y0299633D01*
X0313737Y0299763D01*
X0313577Y0299898D01*
X0313421Y0300036D01*
X0313268Y0300178D01*
X0313119Y0300324D01*
X0312973Y0300473D01*
X0312831Y0300626D01*
X0312693Y0300782D01*
X0312558Y0300942D01*
X0312428Y0301105D01*
X0312302Y0301271D01*
X0312180Y0301440D01*
X0312062Y0301612D01*
X0311948Y0301787D01*
X0311838Y0301964D01*
X0311733Y0302144D01*
X0311633Y0302327D01*
X0311537Y0302512D01*
X0311445Y0302700D01*
X0311358Y0302889D01*
X0311276Y0303081D01*
X0311199Y0303275D01*
X0311126Y0303470D01*
X0311058Y0303668D01*
X0310995Y0303867D01*
X0310937Y0304067D01*
X0310884Y0304269D01*
X0310836Y0304472D01*
X0310792Y0304676D01*
X0310754Y0304881D01*
X0310721Y0305087D01*
X0310693Y0305294D01*
X0310670Y0305501D01*
X0310652Y0305709D01*
X0310639Y0305917D01*
X0310632Y0306125D01*
X0310629Y0306334D01*
X0346609Y0270621D02*
X0346609Y0243621D01*
X0346611Y0243561D01*
X0346616Y0243500D01*
X0346625Y0243441D01*
X0346638Y0243382D01*
X0346654Y0243323D01*
X0346674Y0243266D01*
X0346697Y0243211D01*
X0346724Y0243156D01*
X0346753Y0243104D01*
X0346786Y0243053D01*
X0346822Y0243004D01*
X0346860Y0242958D01*
X0346902Y0242914D01*
X0346946Y0242872D01*
X0346992Y0242834D01*
X0347041Y0242798D01*
X0347092Y0242765D01*
X0347144Y0242736D01*
X0347199Y0242709D01*
X0347254Y0242686D01*
X0347311Y0242666D01*
X0347370Y0242650D01*
X0347429Y0242637D01*
X0347488Y0242628D01*
X0347549Y0242623D01*
X0347609Y0242621D01*
X0355609Y0242621D01*
X0355669Y0242623D01*
X0355730Y0242628D01*
X0355789Y0242637D01*
X0355848Y0242650D01*
X0355907Y0242666D01*
X0355964Y0242686D01*
X0356019Y0242709D01*
X0356074Y0242736D01*
X0356126Y0242765D01*
X0356177Y0242798D01*
X0356226Y0242834D01*
X0356272Y0242872D01*
X0356316Y0242914D01*
X0356358Y0242958D01*
X0356396Y0243004D01*
X0356432Y0243053D01*
X0356465Y0243104D01*
X0356494Y0243156D01*
X0356521Y0243211D01*
X0356544Y0243266D01*
X0356564Y0243323D01*
X0356580Y0243382D01*
X0356593Y0243441D01*
X0356602Y0243500D01*
X0356607Y0243561D01*
X0356609Y0243621D01*
X0356609Y0270621D01*
X0356607Y0270681D01*
X0356602Y0270742D01*
X0356593Y0270801D01*
X0356580Y0270860D01*
X0356564Y0270919D01*
X0356544Y0270976D01*
X0356521Y0271031D01*
X0356494Y0271086D01*
X0356465Y0271138D01*
X0356432Y0271189D01*
X0356396Y0271238D01*
X0356358Y0271284D01*
X0356316Y0271328D01*
X0356272Y0271370D01*
X0356226Y0271408D01*
X0356177Y0271444D01*
X0356126Y0271477D01*
X0356074Y0271506D01*
X0356019Y0271533D01*
X0355964Y0271556D01*
X0355907Y0271576D01*
X0355848Y0271592D01*
X0355789Y0271605D01*
X0355730Y0271614D01*
X0355669Y0271619D01*
X0355609Y0271621D01*
X0347609Y0271621D01*
X0347549Y0271619D01*
X0347488Y0271614D01*
X0347429Y0271605D01*
X0347370Y0271592D01*
X0347311Y0271576D01*
X0347254Y0271556D01*
X0347199Y0271533D01*
X0347144Y0271506D01*
X0347092Y0271477D01*
X0347041Y0271444D01*
X0346992Y0271408D01*
X0346946Y0271370D01*
X0346902Y0271328D01*
X0346860Y0271284D01*
X0346822Y0271238D01*
X0346786Y0271189D01*
X0346753Y0271138D01*
X0346724Y0271086D01*
X0346697Y0271031D01*
X0346674Y0270976D01*
X0346654Y0270919D01*
X0346638Y0270860D01*
X0346625Y0270801D01*
X0346616Y0270742D01*
X0346611Y0270681D01*
X0346609Y0270621D01*
X0351609Y0263121D02*
X0351609Y0258321D01*
X0351609Y0255821D02*
X0351609Y0251121D01*
X0374169Y0242637D02*
X0374169Y0269637D01*
X0374171Y0269697D01*
X0374176Y0269758D01*
X0374185Y0269817D01*
X0374198Y0269876D01*
X0374214Y0269935D01*
X0374234Y0269992D01*
X0374257Y0270047D01*
X0374284Y0270102D01*
X0374313Y0270154D01*
X0374346Y0270205D01*
X0374382Y0270254D01*
X0374420Y0270300D01*
X0374462Y0270344D01*
X0374506Y0270386D01*
X0374552Y0270424D01*
X0374601Y0270460D01*
X0374652Y0270493D01*
X0374704Y0270522D01*
X0374759Y0270549D01*
X0374814Y0270572D01*
X0374871Y0270592D01*
X0374930Y0270608D01*
X0374989Y0270621D01*
X0375048Y0270630D01*
X0375109Y0270635D01*
X0375169Y0270637D01*
X0383169Y0270637D01*
X0383229Y0270635D01*
X0383290Y0270630D01*
X0383349Y0270621D01*
X0383408Y0270608D01*
X0383467Y0270592D01*
X0383524Y0270572D01*
X0383579Y0270549D01*
X0383634Y0270522D01*
X0383686Y0270493D01*
X0383737Y0270460D01*
X0383786Y0270424D01*
X0383832Y0270386D01*
X0383876Y0270344D01*
X0383918Y0270300D01*
X0383956Y0270254D01*
X0383992Y0270205D01*
X0384025Y0270154D01*
X0384054Y0270102D01*
X0384081Y0270047D01*
X0384104Y0269992D01*
X0384124Y0269935D01*
X0384140Y0269876D01*
X0384153Y0269817D01*
X0384162Y0269758D01*
X0384167Y0269697D01*
X0384169Y0269637D01*
X0384169Y0242637D01*
X0384167Y0242577D01*
X0384162Y0242516D01*
X0384153Y0242457D01*
X0384140Y0242398D01*
X0384124Y0242339D01*
X0384104Y0242282D01*
X0384081Y0242227D01*
X0384054Y0242172D01*
X0384025Y0242120D01*
X0383992Y0242069D01*
X0383956Y0242020D01*
X0383918Y0241974D01*
X0383876Y0241930D01*
X0383832Y0241888D01*
X0383786Y0241850D01*
X0383737Y0241814D01*
X0383686Y0241781D01*
X0383634Y0241752D01*
X0383579Y0241725D01*
X0383524Y0241702D01*
X0383467Y0241682D01*
X0383408Y0241666D01*
X0383349Y0241653D01*
X0383290Y0241644D01*
X0383229Y0241639D01*
X0383169Y0241637D01*
X0375169Y0241637D01*
X0375109Y0241639D01*
X0375048Y0241644D01*
X0374989Y0241653D01*
X0374930Y0241666D01*
X0374871Y0241682D01*
X0374814Y0241702D01*
X0374759Y0241725D01*
X0374704Y0241752D01*
X0374652Y0241781D01*
X0374601Y0241814D01*
X0374552Y0241850D01*
X0374506Y0241888D01*
X0374462Y0241930D01*
X0374420Y0241974D01*
X0374382Y0242020D01*
X0374346Y0242069D01*
X0374313Y0242120D01*
X0374284Y0242172D01*
X0374257Y0242227D01*
X0374234Y0242282D01*
X0374214Y0242339D01*
X0374198Y0242398D01*
X0374185Y0242457D01*
X0374176Y0242516D01*
X0374171Y0242577D01*
X0374169Y0242637D01*
X0379169Y0250137D02*
X0379169Y0254837D01*
X0379169Y0257337D02*
X0379169Y0262137D01*
X0260432Y0106531D02*
X0260435Y0106740D01*
X0260442Y0106948D01*
X0260455Y0107156D01*
X0260473Y0107364D01*
X0260496Y0107571D01*
X0260524Y0107778D01*
X0260557Y0107984D01*
X0260595Y0108189D01*
X0260639Y0108393D01*
X0260687Y0108596D01*
X0260740Y0108798D01*
X0260798Y0108998D01*
X0260861Y0109197D01*
X0260929Y0109395D01*
X0261002Y0109590D01*
X0261079Y0109784D01*
X0261161Y0109976D01*
X0261248Y0110165D01*
X0261340Y0110353D01*
X0261436Y0110538D01*
X0261536Y0110721D01*
X0261641Y0110901D01*
X0261751Y0111078D01*
X0261865Y0111253D01*
X0261983Y0111425D01*
X0262105Y0111594D01*
X0262231Y0111760D01*
X0262361Y0111923D01*
X0262496Y0112083D01*
X0262634Y0112239D01*
X0262776Y0112392D01*
X0262922Y0112541D01*
X0263071Y0112687D01*
X0263224Y0112829D01*
X0263380Y0112967D01*
X0263540Y0113102D01*
X0263703Y0113232D01*
X0263869Y0113358D01*
X0264038Y0113480D01*
X0264210Y0113598D01*
X0264385Y0113712D01*
X0264562Y0113822D01*
X0264742Y0113927D01*
X0264925Y0114027D01*
X0265110Y0114123D01*
X0265298Y0114215D01*
X0265487Y0114302D01*
X0265679Y0114384D01*
X0265873Y0114461D01*
X0266068Y0114534D01*
X0266266Y0114602D01*
X0266465Y0114665D01*
X0266665Y0114723D01*
X0266867Y0114776D01*
X0267070Y0114824D01*
X0267274Y0114868D01*
X0267479Y0114906D01*
X0267685Y0114939D01*
X0267892Y0114967D01*
X0268099Y0114990D01*
X0268307Y0115008D01*
X0268515Y0115021D01*
X0268723Y0115028D01*
X0268932Y0115031D01*
X0269141Y0115028D01*
X0269349Y0115021D01*
X0269557Y0115008D01*
X0269765Y0114990D01*
X0269972Y0114967D01*
X0270179Y0114939D01*
X0270385Y0114906D01*
X0270590Y0114868D01*
X0270794Y0114824D01*
X0270997Y0114776D01*
X0271199Y0114723D01*
X0271399Y0114665D01*
X0271598Y0114602D01*
X0271796Y0114534D01*
X0271991Y0114461D01*
X0272185Y0114384D01*
X0272377Y0114302D01*
X0272566Y0114215D01*
X0272754Y0114123D01*
X0272939Y0114027D01*
X0273122Y0113927D01*
X0273302Y0113822D01*
X0273479Y0113712D01*
X0273654Y0113598D01*
X0273826Y0113480D01*
X0273995Y0113358D01*
X0274161Y0113232D01*
X0274324Y0113102D01*
X0274484Y0112967D01*
X0274640Y0112829D01*
X0274793Y0112687D01*
X0274942Y0112541D01*
X0275088Y0112392D01*
X0275230Y0112239D01*
X0275368Y0112083D01*
X0275503Y0111923D01*
X0275633Y0111760D01*
X0275759Y0111594D01*
X0275881Y0111425D01*
X0275999Y0111253D01*
X0276113Y0111078D01*
X0276223Y0110901D01*
X0276328Y0110721D01*
X0276428Y0110538D01*
X0276524Y0110353D01*
X0276616Y0110165D01*
X0276703Y0109976D01*
X0276785Y0109784D01*
X0276862Y0109590D01*
X0276935Y0109395D01*
X0277003Y0109197D01*
X0277066Y0108998D01*
X0277124Y0108798D01*
X0277177Y0108596D01*
X0277225Y0108393D01*
X0277269Y0108189D01*
X0277307Y0107984D01*
X0277340Y0107778D01*
X0277368Y0107571D01*
X0277391Y0107364D01*
X0277409Y0107156D01*
X0277422Y0106948D01*
X0277429Y0106740D01*
X0277432Y0106531D01*
X0277429Y0106322D01*
X0277422Y0106114D01*
X0277409Y0105906D01*
X0277391Y0105698D01*
X0277368Y0105491D01*
X0277340Y0105284D01*
X0277307Y0105078D01*
X0277269Y0104873D01*
X0277225Y0104669D01*
X0277177Y0104466D01*
X0277124Y0104264D01*
X0277066Y0104064D01*
X0277003Y0103865D01*
X0276935Y0103667D01*
X0276862Y0103472D01*
X0276785Y0103278D01*
X0276703Y0103086D01*
X0276616Y0102897D01*
X0276524Y0102709D01*
X0276428Y0102524D01*
X0276328Y0102341D01*
X0276223Y0102161D01*
X0276113Y0101984D01*
X0275999Y0101809D01*
X0275881Y0101637D01*
X0275759Y0101468D01*
X0275633Y0101302D01*
X0275503Y0101139D01*
X0275368Y0100979D01*
X0275230Y0100823D01*
X0275088Y0100670D01*
X0274942Y0100521D01*
X0274793Y0100375D01*
X0274640Y0100233D01*
X0274484Y0100095D01*
X0274324Y0099960D01*
X0274161Y0099830D01*
X0273995Y0099704D01*
X0273826Y0099582D01*
X0273654Y0099464D01*
X0273479Y0099350D01*
X0273302Y0099240D01*
X0273122Y0099135D01*
X0272939Y0099035D01*
X0272754Y0098939D01*
X0272566Y0098847D01*
X0272377Y0098760D01*
X0272185Y0098678D01*
X0271991Y0098601D01*
X0271796Y0098528D01*
X0271598Y0098460D01*
X0271399Y0098397D01*
X0271199Y0098339D01*
X0270997Y0098286D01*
X0270794Y0098238D01*
X0270590Y0098194D01*
X0270385Y0098156D01*
X0270179Y0098123D01*
X0269972Y0098095D01*
X0269765Y0098072D01*
X0269557Y0098054D01*
X0269349Y0098041D01*
X0269141Y0098034D01*
X0268932Y0098031D01*
X0268723Y0098034D01*
X0268515Y0098041D01*
X0268307Y0098054D01*
X0268099Y0098072D01*
X0267892Y0098095D01*
X0267685Y0098123D01*
X0267479Y0098156D01*
X0267274Y0098194D01*
X0267070Y0098238D01*
X0266867Y0098286D01*
X0266665Y0098339D01*
X0266465Y0098397D01*
X0266266Y0098460D01*
X0266068Y0098528D01*
X0265873Y0098601D01*
X0265679Y0098678D01*
X0265487Y0098760D01*
X0265298Y0098847D01*
X0265110Y0098939D01*
X0264925Y0099035D01*
X0264742Y0099135D01*
X0264562Y0099240D01*
X0264385Y0099350D01*
X0264210Y0099464D01*
X0264038Y0099582D01*
X0263869Y0099704D01*
X0263703Y0099830D01*
X0263540Y0099960D01*
X0263380Y0100095D01*
X0263224Y0100233D01*
X0263071Y0100375D01*
X0262922Y0100521D01*
X0262776Y0100670D01*
X0262634Y0100823D01*
X0262496Y0100979D01*
X0262361Y0101139D01*
X0262231Y0101302D01*
X0262105Y0101468D01*
X0261983Y0101637D01*
X0261865Y0101809D01*
X0261751Y0101984D01*
X0261641Y0102161D01*
X0261536Y0102341D01*
X0261436Y0102524D01*
X0261340Y0102709D01*
X0261248Y0102897D01*
X0261161Y0103086D01*
X0261079Y0103278D01*
X0261002Y0103472D01*
X0260929Y0103667D01*
X0260861Y0103865D01*
X0260798Y0104064D01*
X0260740Y0104264D01*
X0260687Y0104466D01*
X0260639Y0104669D01*
X0260595Y0104873D01*
X0260557Y0105078D01*
X0260524Y0105284D01*
X0260496Y0105491D01*
X0260473Y0105698D01*
X0260455Y0105906D01*
X0260442Y0106114D01*
X0260435Y0106322D01*
X0260432Y0106531D01*
X0265432Y0100531D02*
X0267432Y0100531D01*
X0269932Y0100531D02*
X0271932Y0100531D01*
X0270932Y0101531D02*
X0270932Y0099531D01*
D13*
X0372279Y0195113D02*
X0386058Y0195113D01*
X0386058Y0197279D01*
X0389208Y0197279D01*
X0389208Y0217751D01*
X0386058Y0217751D01*
X0386058Y0219917D01*
X0372279Y0219917D01*
X0372279Y0217554D01*
X0369129Y0217554D01*
X0369129Y0211058D01*
X0370901Y0211058D01*
X0370901Y0203972D01*
X0369129Y0203972D01*
X0369129Y0197476D01*
X0372279Y0197476D01*
X0372279Y0195113D01*
X0369129Y0203972D02*
X0369129Y0211058D01*
X0373857Y0248873D02*
X0373857Y0265369D01*
X0367857Y0262649D02*
X0367857Y0261594D01*
X0371735Y0266667D02*
X0371960Y0266560D01*
X0372183Y0266448D01*
X0372403Y0266331D01*
X0372620Y0266209D01*
X0372835Y0266081D01*
X0373046Y0265948D01*
X0373254Y0265811D01*
X0373458Y0265668D01*
X0373660Y0265521D01*
X0373857Y0265369D01*
X0362886Y0266621D02*
X0362656Y0266509D01*
X0362429Y0266392D01*
X0362205Y0266270D01*
X0361984Y0266142D01*
X0361767Y0266008D01*
X0361552Y0265870D01*
X0361341Y0265726D01*
X0361134Y0265577D01*
X0360930Y0265423D01*
X0360730Y0265265D01*
X0360534Y0265101D01*
X0360342Y0264933D01*
X0360154Y0264760D01*
X0359970Y0264582D01*
X0359791Y0264401D01*
X0359616Y0264214D01*
X0359446Y0264024D01*
X0359281Y0263830D01*
X0359120Y0263631D01*
X0358964Y0263429D01*
X0358813Y0263223D01*
X0358667Y0263013D01*
X0358527Y0262800D01*
X0358391Y0262584D01*
X0358261Y0262364D01*
X0358136Y0262141D01*
X0358017Y0261916D01*
X0357903Y0261687D01*
X0357795Y0261456D01*
X0357692Y0261222D01*
X0357595Y0260986D01*
X0357504Y0260747D01*
X0357419Y0260507D01*
X0357339Y0260264D01*
X0357266Y0260019D01*
X0357198Y0259773D01*
X0357137Y0259525D01*
X0357082Y0259276D01*
X0357032Y0259026D01*
X0356989Y0258774D01*
X0356952Y0258521D01*
X0356921Y0258268D01*
X0356896Y0258014D01*
X0356877Y0257759D01*
X0356865Y0257504D01*
X0356859Y0257249D01*
X0356859Y0256993D01*
X0356865Y0256738D01*
X0356877Y0256483D01*
X0356896Y0256228D01*
X0356921Y0255974D01*
X0356952Y0255721D01*
X0356989Y0255468D01*
X0357032Y0255216D01*
X0357082Y0254966D01*
X0357137Y0254717D01*
X0357198Y0254469D01*
X0357266Y0254223D01*
X0357339Y0253978D01*
X0357419Y0253735D01*
X0357504Y0253495D01*
X0357595Y0253256D01*
X0357692Y0253020D01*
X0357795Y0252786D01*
X0357903Y0252555D01*
X0358017Y0252326D01*
X0358136Y0252101D01*
X0358261Y0251878D01*
X0358391Y0251658D01*
X0358527Y0251442D01*
X0358667Y0251229D01*
X0358813Y0251019D01*
X0358964Y0250813D01*
X0359120Y0250611D01*
X0359281Y0250412D01*
X0359446Y0250218D01*
X0359616Y0250028D01*
X0359791Y0249841D01*
X0359970Y0249660D01*
X0360154Y0249482D01*
X0360342Y0249309D01*
X0360534Y0249141D01*
X0360730Y0248977D01*
X0360930Y0248819D01*
X0361134Y0248665D01*
X0361341Y0248516D01*
X0361552Y0248372D01*
X0361767Y0248234D01*
X0361984Y0248100D01*
X0362205Y0247972D01*
X0362429Y0247850D01*
X0362656Y0247733D01*
X0362886Y0247621D01*
X0367857Y0251594D02*
X0367857Y0252649D01*
X0371829Y0247619D02*
X0372044Y0247723D01*
X0372257Y0247832D01*
X0372467Y0247946D01*
X0372674Y0248065D01*
X0372879Y0248188D01*
X0373081Y0248316D01*
X0373280Y0248449D01*
X0373475Y0248586D01*
X0373668Y0248727D01*
X0373857Y0248873D01*
D14*
X0337830Y0269917D02*
X0337830Y0275822D01*
X0326019Y0275822D01*
X0326019Y0269917D01*
X0337830Y0269917D01*
X0333893Y0234483D02*
X0327987Y0234483D01*
X0327987Y0222672D01*
X0333893Y0222672D01*
X0333893Y0234483D01*
X0282220Y0220212D02*
X0282220Y0214306D01*
X0282220Y0208401D01*
X0270409Y0208401D01*
X0270409Y0214306D01*
X0282220Y0214306D01*
X0270409Y0214306D01*
X0270409Y0220212D01*
X0282220Y0220212D01*
X0268440Y0220212D02*
X0268440Y0214306D01*
X0256629Y0214306D01*
X0256629Y0220212D01*
X0268440Y0220212D01*
X0268440Y0221196D02*
X0268440Y0227102D01*
X0256629Y0227102D01*
X0256629Y0221196D01*
X0268440Y0221196D01*
X0268440Y0214306D02*
X0268440Y0208401D01*
X0256629Y0208401D01*
X0256629Y0214306D01*
X0268440Y0214306D01*
X0260074Y0241865D02*
X0248263Y0241865D01*
X0248263Y0247771D01*
X0260074Y0247771D01*
X0260074Y0241865D01*
X0248263Y0238913D02*
X0248263Y0244818D01*
X0236452Y0244818D01*
X0230546Y0244818D01*
X0230546Y0233007D01*
X0236452Y0233007D01*
X0236452Y0244818D01*
X0236452Y0238913D01*
X0248263Y0238913D01*
X0227102Y0242850D02*
X0227102Y0231039D01*
X0221196Y0231039D01*
X0221196Y0242850D01*
X0227102Y0242850D01*
X0185271Y0226609D02*
X0185271Y0220704D01*
X0173460Y0220704D01*
X0173460Y0226609D01*
X0185271Y0226609D01*
X0185271Y0220704D02*
X0173460Y0220704D01*
X0173460Y0214798D01*
X0173460Y0208893D01*
X0173460Y0202987D01*
X0173460Y0197082D01*
X0173460Y0191176D01*
X0185271Y0191176D01*
X0185271Y0197082D01*
X0173460Y0197082D01*
X0185271Y0197082D01*
X0185271Y0202987D01*
X0173460Y0202987D01*
X0185271Y0202987D01*
X0185271Y0208893D01*
X0173460Y0208893D01*
X0185271Y0208893D01*
X0185271Y0214798D01*
X0173460Y0214798D01*
X0185271Y0214798D01*
X0185271Y0220704D01*
X0193145Y0169523D02*
X0199050Y0169523D01*
X0199050Y0157712D01*
X0204956Y0157712D01*
X0204956Y0169523D01*
X0199050Y0169523D01*
X0199050Y0157712D01*
X0193145Y0157712D01*
X0193145Y0169523D01*
X0205940Y0169523D02*
X0205940Y0157712D01*
X0211846Y0157712D01*
X0211846Y0169523D01*
X0205940Y0169523D01*
X0211846Y0169523D02*
X0217751Y0169523D01*
X0217751Y0157712D01*
X0211846Y0157712D01*
X0211846Y0169523D01*
X0218735Y0169523D02*
X0224641Y0169523D01*
X0224641Y0157712D01*
X0230546Y0157712D01*
X0230546Y0169523D01*
X0224641Y0169523D01*
X0224641Y0157712D01*
X0218735Y0157712D01*
X0218735Y0169523D01*
X0260074Y0167554D02*
X0271885Y0167554D01*
X0271885Y0173460D01*
X0260074Y0173460D01*
X0260074Y0167554D01*
X0273361Y0138519D02*
X0273361Y0126708D01*
X0279267Y0126708D01*
X0279267Y0138519D01*
X0273361Y0138519D01*
X0274838Y0092751D02*
X0274838Y0080940D01*
X0280743Y0080940D01*
X0280743Y0092751D01*
X0274838Y0092751D01*
X0273361Y0049444D02*
X0273361Y0043539D01*
X0285172Y0043539D01*
X0285172Y0049444D01*
X0273361Y0049444D01*
X0377692Y0137535D02*
X0377692Y0143440D01*
X0389503Y0143440D01*
X0389503Y0137535D01*
X0377692Y0137535D01*
X0336846Y0325035D02*
X0325035Y0325035D01*
X0325035Y0330940D01*
X0336846Y0330940D01*
X0336846Y0325035D01*
X0337830Y0374247D02*
X0326019Y0374247D01*
X0326019Y0380153D01*
X0337830Y0380153D01*
X0337830Y0374247D01*
D15*
X0265684Y0394385D02*
X0263184Y0391885D01*
X0258184Y0391885D01*
X0255684Y0394385D01*
X0253184Y0391885D01*
X0248184Y0391885D01*
X0245684Y0394385D01*
X0243184Y0391885D01*
X0238184Y0391885D01*
X0235684Y0394385D01*
X0233184Y0391885D01*
X0228184Y0391885D01*
X0225684Y0394385D01*
X0223184Y0391885D01*
X0218184Y0391885D01*
X0215684Y0394385D01*
X0213184Y0391885D01*
X0208184Y0391885D01*
X0205684Y0394385D01*
X0203184Y0391885D01*
X0198184Y0391885D01*
X0195684Y0394385D01*
X0193184Y0391885D01*
X0188184Y0391885D01*
X0185684Y0394385D01*
X0185684Y0399385D01*
X0188184Y0401885D01*
X0193184Y0401885D01*
X0195684Y0399385D01*
X0198184Y0401885D01*
X0203184Y0401885D01*
X0205684Y0399385D01*
X0208184Y0401885D01*
X0213184Y0401885D01*
X0215684Y0399385D01*
X0218184Y0401885D01*
X0223184Y0401885D01*
X0225684Y0399385D01*
X0228184Y0401885D01*
X0233184Y0401885D01*
X0235684Y0399385D01*
X0238184Y0401885D01*
X0243184Y0401885D01*
X0245684Y0399385D01*
X0248184Y0401885D01*
X0253184Y0401885D01*
X0255684Y0399385D01*
X0258184Y0401885D01*
X0263184Y0401885D01*
X0265684Y0399385D01*
X0265684Y0394385D01*
X0412102Y0247850D02*
X0409602Y0245350D01*
X0409602Y0240350D01*
X0412102Y0237850D01*
X0409602Y0235350D01*
X0409602Y0230350D01*
X0412102Y0227850D01*
X0409602Y0225350D01*
X0409602Y0220350D01*
X0412102Y0217850D01*
X0409602Y0215350D01*
X0409602Y0210350D01*
X0412102Y0207850D01*
X0409602Y0205350D01*
X0409602Y0200350D01*
X0412102Y0197850D01*
X0409602Y0195350D01*
X0409602Y0190350D01*
X0412102Y0187850D01*
X0409602Y0185350D01*
X0409602Y0180350D01*
X0412102Y0177850D01*
X0409602Y0175350D01*
X0409602Y0170350D01*
X0412102Y0167850D01*
X0417102Y0167850D01*
X0419602Y0170350D01*
X0419602Y0175350D01*
X0417102Y0177850D01*
X0419602Y0180350D01*
X0419602Y0185350D01*
X0417102Y0187850D01*
X0419602Y0190350D01*
X0419602Y0195350D01*
X0417102Y0197850D01*
X0419602Y0200350D01*
X0419602Y0205350D01*
X0417102Y0207850D01*
X0419602Y0210350D01*
X0419602Y0215350D01*
X0417102Y0217850D01*
X0419602Y0220350D01*
X0419602Y0225350D01*
X0417102Y0227850D01*
X0419602Y0230350D01*
X0419602Y0235350D01*
X0417102Y0237850D01*
X0419602Y0240350D01*
X0419602Y0245350D01*
X0417102Y0247850D01*
X0412102Y0247850D01*
X0389700Y0159759D02*
X0384700Y0159759D01*
X0382200Y0157259D01*
X0379700Y0159759D01*
X0374700Y0159759D01*
X0372200Y0157259D01*
X0372200Y0152259D01*
X0374700Y0149759D01*
X0379700Y0149759D01*
X0382200Y0152259D01*
X0384700Y0149759D01*
X0389700Y0149759D01*
X0392200Y0152259D01*
X0392200Y0157259D01*
X0389700Y0159759D01*
X0363302Y0157259D02*
X0363302Y0152259D01*
X0360802Y0149759D01*
X0355802Y0149759D01*
X0353302Y0152259D01*
X0350802Y0149759D01*
X0345802Y0149759D01*
X0343302Y0152259D01*
X0340802Y0149759D01*
X0335802Y0149759D01*
X0333302Y0152259D01*
X0330802Y0149759D01*
X0325802Y0149759D01*
X0323302Y0152259D01*
X0320802Y0149759D01*
X0315802Y0149759D01*
X0313302Y0152259D01*
X0310802Y0149759D01*
X0305802Y0149759D01*
X0303302Y0152259D01*
X0303302Y0157259D01*
X0305802Y0159759D01*
X0310802Y0159759D01*
X0313302Y0157259D01*
X0315802Y0159759D01*
X0320802Y0159759D01*
X0323302Y0157259D01*
X0325802Y0159759D01*
X0330802Y0159759D01*
X0333302Y0157259D01*
X0335802Y0159759D01*
X0340802Y0159759D01*
X0343302Y0157259D01*
X0345802Y0159759D01*
X0350802Y0159759D01*
X0353302Y0157259D01*
X0355802Y0159759D01*
X0360802Y0159759D01*
X0363302Y0157259D01*
X0299507Y0211548D02*
X0299507Y0218048D01*
X0299505Y0218108D01*
X0299500Y0218169D01*
X0299491Y0218228D01*
X0299478Y0218287D01*
X0299462Y0218346D01*
X0299442Y0218403D01*
X0299419Y0218458D01*
X0299392Y0218513D01*
X0299363Y0218565D01*
X0299330Y0218616D01*
X0299294Y0218665D01*
X0299256Y0218711D01*
X0299214Y0218755D01*
X0299170Y0218797D01*
X0299124Y0218835D01*
X0299075Y0218871D01*
X0299024Y0218904D01*
X0298972Y0218933D01*
X0298917Y0218960D01*
X0298862Y0218983D01*
X0298805Y0219003D01*
X0298746Y0219019D01*
X0298687Y0219032D01*
X0298628Y0219041D01*
X0298567Y0219046D01*
X0298507Y0219048D01*
X0292507Y0219048D02*
X0292447Y0219046D01*
X0292386Y0219041D01*
X0292327Y0219032D01*
X0292268Y0219019D01*
X0292209Y0219003D01*
X0292152Y0218983D01*
X0292097Y0218960D01*
X0292042Y0218933D01*
X0291990Y0218904D01*
X0291939Y0218871D01*
X0291890Y0218835D01*
X0291844Y0218797D01*
X0291800Y0218755D01*
X0291758Y0218711D01*
X0291720Y0218665D01*
X0291684Y0218616D01*
X0291651Y0218565D01*
X0291622Y0218513D01*
X0291595Y0218458D01*
X0291572Y0218403D01*
X0291552Y0218346D01*
X0291536Y0218287D01*
X0291523Y0218228D01*
X0291514Y0218169D01*
X0291509Y0218108D01*
X0291507Y0218048D01*
X0291507Y0211548D01*
X0291633Y0211548D02*
X0291633Y0218048D01*
X0291631Y0218108D01*
X0291626Y0218169D01*
X0291617Y0218228D01*
X0291604Y0218287D01*
X0291588Y0218346D01*
X0291568Y0218403D01*
X0291545Y0218458D01*
X0291518Y0218513D01*
X0291489Y0218565D01*
X0291456Y0218616D01*
X0291420Y0218665D01*
X0291382Y0218711D01*
X0291340Y0218755D01*
X0291296Y0218797D01*
X0291250Y0218835D01*
X0291201Y0218871D01*
X0291150Y0218904D01*
X0291098Y0218933D01*
X0291043Y0218960D01*
X0290988Y0218983D01*
X0290931Y0219003D01*
X0290872Y0219019D01*
X0290813Y0219032D01*
X0290754Y0219041D01*
X0290693Y0219046D01*
X0290633Y0219048D01*
X0284633Y0219048D02*
X0284573Y0219046D01*
X0284512Y0219041D01*
X0284453Y0219032D01*
X0284394Y0219019D01*
X0284335Y0219003D01*
X0284278Y0218983D01*
X0284223Y0218960D01*
X0284168Y0218933D01*
X0284116Y0218904D01*
X0284065Y0218871D01*
X0284016Y0218835D01*
X0283970Y0218797D01*
X0283926Y0218755D01*
X0283884Y0218711D01*
X0283846Y0218665D01*
X0283810Y0218616D01*
X0283777Y0218565D01*
X0283748Y0218513D01*
X0283721Y0218458D01*
X0283698Y0218403D01*
X0283678Y0218346D01*
X0283662Y0218287D01*
X0283649Y0218228D01*
X0283640Y0218169D01*
X0283635Y0218108D01*
X0283633Y0218048D01*
X0283633Y0211548D01*
X0283635Y0211488D01*
X0283640Y0211427D01*
X0283649Y0211368D01*
X0283662Y0211309D01*
X0283678Y0211250D01*
X0283698Y0211193D01*
X0283721Y0211138D01*
X0283748Y0211083D01*
X0283777Y0211031D01*
X0283810Y0210980D01*
X0283846Y0210931D01*
X0283884Y0210885D01*
X0283926Y0210841D01*
X0283970Y0210799D01*
X0284016Y0210761D01*
X0284065Y0210725D01*
X0284116Y0210692D01*
X0284168Y0210663D01*
X0284223Y0210636D01*
X0284278Y0210613D01*
X0284335Y0210593D01*
X0284394Y0210577D01*
X0284453Y0210564D01*
X0284512Y0210555D01*
X0284573Y0210550D01*
X0284633Y0210548D01*
X0290633Y0210548D02*
X0290693Y0210550D01*
X0290754Y0210555D01*
X0290813Y0210564D01*
X0290872Y0210577D01*
X0290931Y0210593D01*
X0290988Y0210613D01*
X0291043Y0210636D01*
X0291098Y0210663D01*
X0291150Y0210692D01*
X0291201Y0210725D01*
X0291250Y0210761D01*
X0291296Y0210799D01*
X0291340Y0210841D01*
X0291382Y0210885D01*
X0291420Y0210931D01*
X0291456Y0210980D01*
X0291489Y0211031D01*
X0291518Y0211083D01*
X0291545Y0211138D01*
X0291568Y0211193D01*
X0291588Y0211250D01*
X0291604Y0211309D01*
X0291617Y0211368D01*
X0291626Y0211427D01*
X0291631Y0211488D01*
X0291633Y0211548D01*
X0291507Y0211548D02*
X0291509Y0211488D01*
X0291514Y0211427D01*
X0291523Y0211368D01*
X0291536Y0211309D01*
X0291552Y0211250D01*
X0291572Y0211193D01*
X0291595Y0211138D01*
X0291622Y0211083D01*
X0291651Y0211031D01*
X0291684Y0210980D01*
X0291720Y0210931D01*
X0291758Y0210885D01*
X0291800Y0210841D01*
X0291844Y0210799D01*
X0291890Y0210761D01*
X0291939Y0210725D01*
X0291990Y0210692D01*
X0292042Y0210663D01*
X0292097Y0210636D01*
X0292152Y0210613D01*
X0292209Y0210593D01*
X0292268Y0210577D01*
X0292327Y0210564D01*
X0292386Y0210555D01*
X0292447Y0210550D01*
X0292507Y0210548D01*
X0298507Y0210548D02*
X0298567Y0210550D01*
X0298628Y0210555D01*
X0298687Y0210564D01*
X0298746Y0210577D01*
X0298805Y0210593D01*
X0298862Y0210613D01*
X0298917Y0210636D01*
X0298972Y0210663D01*
X0299024Y0210692D01*
X0299075Y0210725D01*
X0299124Y0210761D01*
X0299170Y0210799D01*
X0299214Y0210841D01*
X0299256Y0210885D01*
X0299294Y0210931D01*
X0299330Y0210980D01*
X0299363Y0211031D01*
X0299392Y0211083D01*
X0299419Y0211138D01*
X0299442Y0211193D01*
X0299462Y0211250D01*
X0299478Y0211309D01*
X0299491Y0211368D01*
X0299500Y0211427D01*
X0299505Y0211488D01*
X0299507Y0211548D01*
X0263184Y0071176D02*
X0258184Y0071176D01*
X0255684Y0068676D01*
X0253184Y0071176D01*
X0248184Y0071176D01*
X0245684Y0068676D01*
X0243184Y0071176D01*
X0238184Y0071176D01*
X0235684Y0068676D01*
X0233184Y0071176D01*
X0228184Y0071176D01*
X0225684Y0068676D01*
X0223184Y0071176D01*
X0218184Y0071176D01*
X0215684Y0068676D01*
X0213184Y0071176D01*
X0208184Y0071176D01*
X0205684Y0068676D01*
X0203184Y0071176D01*
X0198184Y0071176D01*
X0195684Y0068676D01*
X0193184Y0071176D01*
X0188184Y0071176D01*
X0185684Y0068676D01*
X0185684Y0063676D01*
X0188184Y0061176D01*
X0193184Y0061176D01*
X0195684Y0063676D01*
X0198184Y0061176D01*
X0203184Y0061176D01*
X0205684Y0063676D01*
X0208184Y0061176D01*
X0213184Y0061176D01*
X0215684Y0063676D01*
X0218184Y0061176D01*
X0223184Y0061176D01*
X0225684Y0063676D01*
X0228184Y0061176D01*
X0233184Y0061176D01*
X0235684Y0063676D01*
X0238184Y0061176D01*
X0243184Y0061176D01*
X0245684Y0063676D01*
X0248184Y0061176D01*
X0253184Y0061176D01*
X0255684Y0063676D01*
X0258184Y0061176D01*
X0263184Y0061176D01*
X0265684Y0063676D01*
X0265684Y0068676D01*
X0263184Y0071176D01*
X0088893Y0170350D02*
X0086393Y0167850D01*
X0081393Y0167850D01*
X0078893Y0170350D01*
X0078893Y0175350D01*
X0081393Y0177850D01*
X0078893Y0180350D01*
X0078893Y0185350D01*
X0081393Y0187850D01*
X0078893Y0190350D01*
X0078893Y0195350D01*
X0081393Y0197850D01*
X0078893Y0200350D01*
X0078893Y0205350D01*
X0081393Y0207850D01*
X0078893Y0210350D01*
X0078893Y0215350D01*
X0081393Y0217850D01*
X0078893Y0220350D01*
X0078893Y0225350D01*
X0081393Y0227850D01*
X0078893Y0230350D01*
X0078893Y0235350D01*
X0081393Y0237850D01*
X0078893Y0240350D01*
X0078893Y0245350D01*
X0081393Y0247850D01*
X0086393Y0247850D01*
X0088893Y0245350D01*
X0088893Y0240350D01*
X0086393Y0237850D01*
X0088893Y0235350D01*
X0088893Y0230350D01*
X0086393Y0227850D01*
X0088893Y0225350D01*
X0088893Y0220350D01*
X0086393Y0217850D01*
X0088893Y0215350D01*
X0088893Y0210350D01*
X0086393Y0207850D01*
X0088893Y0205350D01*
X0088893Y0200350D01*
X0086393Y0197850D01*
X0088893Y0195350D01*
X0088893Y0190350D01*
X0086393Y0187850D01*
X0088893Y0185350D01*
X0088893Y0180350D01*
X0086393Y0177850D01*
X0088893Y0175350D01*
X0088893Y0170350D01*
D16*
X0349109Y0255821D02*
X0351609Y0255821D01*
X0354109Y0255821D01*
X0354109Y0258321D02*
X0351609Y0258321D01*
X0349109Y0258321D01*
X0376669Y0257337D02*
X0379169Y0257337D01*
X0381669Y0257337D01*
X0381669Y0254837D02*
X0379169Y0254837D01*
X0376669Y0254837D01*
M02*
