%
M48
M72
T01C0.01500
T02C0.02362
T03C0.03200
T04C0.03500
T05C0.04000
T06C0.11811
%
T01
X93735Y79956
X142948Y79956
X184287Y82909
X184287Y71098
X178381Y39602
X177397Y34680
X201019Y25822
X221688Y55350
X237436Y79956
X246216Y116373
X244326Y121294
X241373Y129169
X240389Y136550
X247771Y144917
X248263Y149838
X250231Y154759
X247279Y160665
X242357Y153775
X242357Y148854
X256137Y144917
X259090Y141964
X254661Y140487
X265487Y145409
X264995Y149838
X263027Y153775
X257121Y173460
X257121Y177397
X242357Y178381
X236452Y175428
X226609Y156728
X221688Y156728
X214798Y156728
X208893Y156728
X202003Y156728
X196098Y156728
X196098Y144917
X192161Y144917
X187239Y131629
X196098Y121787
X166078Y134090
X166078Y138519
X166078Y142948
X157712Y139503
X141472Y136058
X141964Y129169
X106531Y139995
X93735Y138027
X92751Y129169
X56334Y161649
X48381Y161649
X43539Y178381
X97672Y177889
X97672Y217751
X58302Y250231
X48460Y251216
X95704Y271885
X93735Y285665
X93735Y326019
X142948Y326019
X160172Y288617
X164602Y288617
X156728Y268932
X153775Y265487
X150822Y268932
X146885Y264995
X140980Y281728
X172476Y256137
X185763Y255645
X194129Y254661
X201511Y256137
X203972Y266964
X210861Y255153
X230546Y264995
X244326Y264995
X259090Y264995
X271885Y264995
X284680Y273854
X281728Y276806
X288617Y271885
X292554Y266964
X295015Y270901
X303381Y274838
X286157Y286649
X287141Y295507
X290586Y297968
X294523Y294523
X298460Y294523
X282220Y295507
X251216Y299444
X245310Y295015
X241373Y297476
X237436Y299936
X213814Y281728
X193145Y287141
X191669Y326019
X192161Y375231
X172968Y376708
X166570Y383106
X209877Y388027
X240389Y388027
X241373Y376216
X241373Y326019
X288617Y326019
X335861Y335861
X389011Y326019
X389011Y291570
X396885Y291570
X389011Y276806
X389011Y272869
X347672Y257121
X339798Y257121
X335861Y241373
X335861Y236944
X334877Y231531
X319129Y236452
X313224Y236452
X309287Y238420
X303381Y239405
X298460Y247279
X287633Y244326
X287633Y240389
X286157Y236452
X290586Y228578
X290586Y222672
X293539Y219720
X279267Y227102
X272869Y229070
X268932Y224641
X268932Y217751
X269917Y210861
X269917Y206924
X274838Y204956
X280743Y202003
X283696Y199050
X291570Y190684
X299444Y190684
X308302Y187239
X312731Y184287
X300428Y175428
X300428Y171491
X300428Y167554
X286649Y169523
X285665Y175428
X281235Y175428
X277298Y175428
X278775Y179365
X278283Y183302
X274838Y189208
X270901Y192161
X250231Y217259
X244818Y221688
X240389Y221688
X236452Y215783
X229562Y218735
X223165Y217751
X217259Y216275
X209877Y221688
X203480Y224641
X195113Y207909
X203480Y197574
X193145Y195606
X189208Y188224
X185271Y189700
X172476Y194129
X172476Y200035
X172476Y205940
X169523Y208893
X172476Y211846
X172476Y217751
X172476Y223657
X168539Y223657
X172476Y229562
X179857Y229562
X182318Y208893
X159680Y187731
X164602Y180350
X162633Y172476
X158204Y172476
X153775Y172476
X146885Y168539
X187239Y168539
X191176Y168539
X211846Y189700
X218735Y198558
X238420Y235468
X261550Y245310
X310763Y224641
X313224Y220704
X313716Y228578
X312239Y244326
X312731Y209877
X309779Y206924
X315684Y206924
X308302Y201019
X304365Y199050
X339798Y195113
X339798Y191176
X347672Y191176
X353578Y203972
X350133Y210369
X350133Y217259
X361452Y226117
X357515Y228578
X369326Y217751
X365389Y190684
X370310Y186747
X389011Y197082
X389011Y203972
X398854Y216275
X404759Y203972
X392948Y174444
X347672Y168539
X343735Y168539
X338814Y168539
X347672Y164602
X347672Y147869
X335861Y130153
X309287Y138027
X298460Y125231
X298460Y118342
X286649Y125231
X286157Y129169
X282712Y121294
X278775Y120802
X279759Y115389
X254661Y128184
X254169Y120310
X254169Y116373
X285665Y141964
X286649Y90291
X288617Y79956
X288617Y75035
X286649Y34680
X286649Y26806
X271885Y30743
X339798Y80940
X389011Y79956
X388027Y128184
X339798Y276806
X334877Y279267
X330448Y278775
X342751Y290586
X339798Y293539
X334877Y293046
X347672Y290586
X160665Y241373
X156235Y225625
X146885Y219720
T02
X376669Y217515
X376669Y212515
X376669Y207515
X376669Y202515
X376669Y197515
X381669Y197515
X381669Y202515
X381669Y207515
X381669Y212515
X381669Y217515
T03
X48381Y380153
X58381Y380153
X58381Y330940
X48381Y330940
X97594Y330940
X107594Y330940
X146806Y330940
X156806Y330940
X196019Y330940
X206019Y330940
X245231Y330940
X255231Y330940
X294444Y330940
X304444Y330940
X319129Y310334
X319129Y302334
X304444Y281728
X294444Y281728
X255231Y281728
X245231Y281728
X206019Y281728
X196019Y281728
X156806Y281728
X146806Y281728
X107594Y281728
X97594Y281728
X58381Y281728
X48381Y281728
X48381Y232515
X58381Y232515
X97594Y232515
X107594Y232515
X146806Y232515
X156806Y232515
X196019Y232515
X206019Y232515
X245231Y232515
X255231Y232515
X294444Y232515
X304444Y232515
X343657Y232515
X353657Y232515
X353657Y183302
X343657Y183302
X304444Y183302
X294444Y183302
X255231Y183302
X245231Y183302
X206019Y183302
X196019Y183302
X156806Y183302
X146806Y183302
X107594Y183302
X97594Y183302
X58381Y183302
X48381Y183302
X48381Y134090
X58381Y134090
X97594Y134090
X107594Y134090
X146806Y134090
X156806Y134090
X196019Y134090
X206019Y134090
X245231Y134090
X255231Y134090
X264932Y106531
X272932Y106531
X255231Y84877
X245231Y84877
X206019Y84877
X196019Y84877
X156806Y84877
X146806Y84877
X107594Y84877
X97594Y84877
X58381Y84877
X48381Y84877
X48381Y35665
X58381Y35665
X97594Y35665
X107594Y35665
X146806Y35665
X156806Y35665
X196019Y35665
X206019Y35665
X245231Y35665
X255231Y35665
X294444Y35665
X304444Y35665
X343657Y35665
X353657Y35665
X353657Y84877
X343657Y84877
X304444Y84877
X294444Y84877
X294444Y134090
X304444Y134090
X343657Y134090
X353657Y134090
X392869Y134090
X402869Y134090
X402869Y183302
X392869Y183302
X392869Y232515
X402869Y232515
X379169Y246137
X367357Y247121
X367357Y257121
X367357Y267121
X379169Y266137
X392869Y281728
X402869Y281728
X353657Y281728
X343657Y281728
X351609Y267121
X351609Y247121
X353657Y330940
X343657Y330940
X353657Y380153
X343657Y380153
X304444Y380153
X294444Y380153
X255231Y380153
X245231Y380153
X206019Y380153
X196019Y380153
X156806Y380153
X146806Y380153
X107594Y380153
X97594Y380153
X392869Y380153
X402869Y380153
X402869Y330940
X392869Y330940
X392869Y84877
X402869Y84877
X402869Y35665
X392869Y35665
T04
X355483Y198735
X363483Y198735
X359483Y218735
T05
X190684Y66176
X200684Y66176
X210684Y66176
X220684Y66176
X230684Y66176
X240684Y66176
X250684Y66176
X260684Y66176
X308302Y154759
X318302Y154759
X328302Y154759
X338302Y154759
X348302Y154759
X358302Y154759
X377200Y154759
X387200Y154759
X414602Y172850
X414602Y182850
X414602Y192850
X414602Y202850
X414602Y212850
X414602Y222850
X414602Y232850
X414602Y242850
X260684Y396885
X250684Y396885
X240684Y396885
X230684Y396885
X220684Y396885
X210684Y396885
X200684Y396885
X190684Y396885
X83893Y242850
X83893Y232850
X83893Y222850
X83893Y212850
X83893Y202850
X83893Y192850
X83893Y182850
X83893Y172850
T06
X77987Y60271
X373263Y355546
X77987Y355546
X373263Y60271
M30
