G75*
%MOIN*%
%OFA0B0*%
%FSLAX25Y25*%
%IPPOS*%
%LPD*%
%AMOC8*
5,1,8,0,0,1.08239X$1,22.5*
%
%ADD10C,0.00000*%
D10*
X0028775Y0011058D02*
X0028775Y0404759D01*
X0422476Y0404759D01*
X0422476Y0011058D01*
X0028775Y0011058D01*
X0072081Y0060271D02*
X0072083Y0060424D01*
X0072089Y0060578D01*
X0072099Y0060731D01*
X0072113Y0060883D01*
X0072131Y0061036D01*
X0072153Y0061187D01*
X0072178Y0061338D01*
X0072208Y0061489D01*
X0072242Y0061639D01*
X0072279Y0061787D01*
X0072320Y0061935D01*
X0072365Y0062081D01*
X0072414Y0062227D01*
X0072467Y0062371D01*
X0072523Y0062513D01*
X0072583Y0062654D01*
X0072647Y0062794D01*
X0072714Y0062932D01*
X0072785Y0063068D01*
X0072860Y0063202D01*
X0072937Y0063334D01*
X0073019Y0063464D01*
X0073103Y0063592D01*
X0073191Y0063718D01*
X0073282Y0063841D01*
X0073376Y0063962D01*
X0073474Y0064080D01*
X0073574Y0064196D01*
X0073678Y0064309D01*
X0073784Y0064420D01*
X0073893Y0064528D01*
X0074005Y0064633D01*
X0074119Y0064734D01*
X0074237Y0064833D01*
X0074356Y0064929D01*
X0074478Y0065022D01*
X0074603Y0065111D01*
X0074730Y0065198D01*
X0074859Y0065280D01*
X0074990Y0065360D01*
X0075123Y0065436D01*
X0075258Y0065509D01*
X0075395Y0065578D01*
X0075534Y0065643D01*
X0075674Y0065705D01*
X0075816Y0065763D01*
X0075959Y0065818D01*
X0076104Y0065869D01*
X0076250Y0065916D01*
X0076397Y0065959D01*
X0076545Y0065998D01*
X0076694Y0066034D01*
X0076844Y0066065D01*
X0076995Y0066093D01*
X0077146Y0066117D01*
X0077299Y0066137D01*
X0077451Y0066153D01*
X0077604Y0066165D01*
X0077757Y0066173D01*
X0077910Y0066177D01*
X0078064Y0066177D01*
X0078217Y0066173D01*
X0078370Y0066165D01*
X0078523Y0066153D01*
X0078675Y0066137D01*
X0078828Y0066117D01*
X0078979Y0066093D01*
X0079130Y0066065D01*
X0079280Y0066034D01*
X0079429Y0065998D01*
X0079577Y0065959D01*
X0079724Y0065916D01*
X0079870Y0065869D01*
X0080015Y0065818D01*
X0080158Y0065763D01*
X0080300Y0065705D01*
X0080440Y0065643D01*
X0080579Y0065578D01*
X0080716Y0065509D01*
X0080851Y0065436D01*
X0080984Y0065360D01*
X0081115Y0065280D01*
X0081244Y0065198D01*
X0081371Y0065111D01*
X0081496Y0065022D01*
X0081618Y0064929D01*
X0081737Y0064833D01*
X0081855Y0064734D01*
X0081969Y0064633D01*
X0082081Y0064528D01*
X0082190Y0064420D01*
X0082296Y0064309D01*
X0082400Y0064196D01*
X0082500Y0064080D01*
X0082598Y0063962D01*
X0082692Y0063841D01*
X0082783Y0063718D01*
X0082871Y0063592D01*
X0082955Y0063464D01*
X0083037Y0063334D01*
X0083114Y0063202D01*
X0083189Y0063068D01*
X0083260Y0062932D01*
X0083327Y0062794D01*
X0083391Y0062654D01*
X0083451Y0062513D01*
X0083507Y0062371D01*
X0083560Y0062227D01*
X0083609Y0062081D01*
X0083654Y0061935D01*
X0083695Y0061787D01*
X0083732Y0061639D01*
X0083766Y0061489D01*
X0083796Y0061338D01*
X0083821Y0061187D01*
X0083843Y0061036D01*
X0083861Y0060883D01*
X0083875Y0060731D01*
X0083885Y0060578D01*
X0083891Y0060424D01*
X0083893Y0060271D01*
X0083891Y0060118D01*
X0083885Y0059964D01*
X0083875Y0059811D01*
X0083861Y0059659D01*
X0083843Y0059506D01*
X0083821Y0059355D01*
X0083796Y0059204D01*
X0083766Y0059053D01*
X0083732Y0058903D01*
X0083695Y0058755D01*
X0083654Y0058607D01*
X0083609Y0058461D01*
X0083560Y0058315D01*
X0083507Y0058171D01*
X0083451Y0058029D01*
X0083391Y0057888D01*
X0083327Y0057748D01*
X0083260Y0057610D01*
X0083189Y0057474D01*
X0083114Y0057340D01*
X0083037Y0057208D01*
X0082955Y0057078D01*
X0082871Y0056950D01*
X0082783Y0056824D01*
X0082692Y0056701D01*
X0082598Y0056580D01*
X0082500Y0056462D01*
X0082400Y0056346D01*
X0082296Y0056233D01*
X0082190Y0056122D01*
X0082081Y0056014D01*
X0081969Y0055909D01*
X0081855Y0055808D01*
X0081737Y0055709D01*
X0081618Y0055613D01*
X0081496Y0055520D01*
X0081371Y0055431D01*
X0081244Y0055344D01*
X0081115Y0055262D01*
X0080984Y0055182D01*
X0080851Y0055106D01*
X0080716Y0055033D01*
X0080579Y0054964D01*
X0080440Y0054899D01*
X0080300Y0054837D01*
X0080158Y0054779D01*
X0080015Y0054724D01*
X0079870Y0054673D01*
X0079724Y0054626D01*
X0079577Y0054583D01*
X0079429Y0054544D01*
X0079280Y0054508D01*
X0079130Y0054477D01*
X0078979Y0054449D01*
X0078828Y0054425D01*
X0078675Y0054405D01*
X0078523Y0054389D01*
X0078370Y0054377D01*
X0078217Y0054369D01*
X0078064Y0054365D01*
X0077910Y0054365D01*
X0077757Y0054369D01*
X0077604Y0054377D01*
X0077451Y0054389D01*
X0077299Y0054405D01*
X0077146Y0054425D01*
X0076995Y0054449D01*
X0076844Y0054477D01*
X0076694Y0054508D01*
X0076545Y0054544D01*
X0076397Y0054583D01*
X0076250Y0054626D01*
X0076104Y0054673D01*
X0075959Y0054724D01*
X0075816Y0054779D01*
X0075674Y0054837D01*
X0075534Y0054899D01*
X0075395Y0054964D01*
X0075258Y0055033D01*
X0075123Y0055106D01*
X0074990Y0055182D01*
X0074859Y0055262D01*
X0074730Y0055344D01*
X0074603Y0055431D01*
X0074478Y0055520D01*
X0074356Y0055613D01*
X0074237Y0055709D01*
X0074119Y0055808D01*
X0074005Y0055909D01*
X0073893Y0056014D01*
X0073784Y0056122D01*
X0073678Y0056233D01*
X0073574Y0056346D01*
X0073474Y0056462D01*
X0073376Y0056580D01*
X0073282Y0056701D01*
X0073191Y0056824D01*
X0073103Y0056950D01*
X0073019Y0057078D01*
X0072937Y0057208D01*
X0072860Y0057340D01*
X0072785Y0057474D01*
X0072714Y0057610D01*
X0072647Y0057748D01*
X0072583Y0057888D01*
X0072523Y0058029D01*
X0072467Y0058171D01*
X0072414Y0058315D01*
X0072365Y0058461D01*
X0072320Y0058607D01*
X0072279Y0058755D01*
X0072242Y0058903D01*
X0072208Y0059053D01*
X0072178Y0059204D01*
X0072153Y0059355D01*
X0072131Y0059506D01*
X0072113Y0059659D01*
X0072099Y0059811D01*
X0072089Y0059964D01*
X0072083Y0060118D01*
X0072081Y0060271D01*
X0353733Y0198735D02*
X0353735Y0198818D01*
X0353741Y0198901D01*
X0353751Y0198984D01*
X0353765Y0199066D01*
X0353782Y0199148D01*
X0353804Y0199228D01*
X0353829Y0199307D01*
X0353858Y0199385D01*
X0353891Y0199462D01*
X0353928Y0199537D01*
X0353967Y0199610D01*
X0354011Y0199681D01*
X0354057Y0199750D01*
X0354107Y0199817D01*
X0354160Y0199881D01*
X0354216Y0199943D01*
X0354275Y0200002D01*
X0354337Y0200058D01*
X0354401Y0200111D01*
X0354468Y0200161D01*
X0354537Y0200207D01*
X0354608Y0200251D01*
X0354681Y0200290D01*
X0354756Y0200327D01*
X0354833Y0200360D01*
X0354911Y0200389D01*
X0354990Y0200414D01*
X0355070Y0200436D01*
X0355152Y0200453D01*
X0355234Y0200467D01*
X0355317Y0200477D01*
X0355400Y0200483D01*
X0355483Y0200485D01*
X0355566Y0200483D01*
X0355649Y0200477D01*
X0355732Y0200467D01*
X0355814Y0200453D01*
X0355896Y0200436D01*
X0355976Y0200414D01*
X0356055Y0200389D01*
X0356133Y0200360D01*
X0356210Y0200327D01*
X0356285Y0200290D01*
X0356358Y0200251D01*
X0356429Y0200207D01*
X0356498Y0200161D01*
X0356565Y0200111D01*
X0356629Y0200058D01*
X0356691Y0200002D01*
X0356750Y0199943D01*
X0356806Y0199881D01*
X0356859Y0199817D01*
X0356909Y0199750D01*
X0356955Y0199681D01*
X0356999Y0199610D01*
X0357038Y0199537D01*
X0357075Y0199462D01*
X0357108Y0199385D01*
X0357137Y0199307D01*
X0357162Y0199228D01*
X0357184Y0199148D01*
X0357201Y0199066D01*
X0357215Y0198984D01*
X0357225Y0198901D01*
X0357231Y0198818D01*
X0357233Y0198735D01*
X0357231Y0198652D01*
X0357225Y0198569D01*
X0357215Y0198486D01*
X0357201Y0198404D01*
X0357184Y0198322D01*
X0357162Y0198242D01*
X0357137Y0198163D01*
X0357108Y0198085D01*
X0357075Y0198008D01*
X0357038Y0197933D01*
X0356999Y0197860D01*
X0356955Y0197789D01*
X0356909Y0197720D01*
X0356859Y0197653D01*
X0356806Y0197589D01*
X0356750Y0197527D01*
X0356691Y0197468D01*
X0356629Y0197412D01*
X0356565Y0197359D01*
X0356498Y0197309D01*
X0356429Y0197263D01*
X0356358Y0197219D01*
X0356285Y0197180D01*
X0356210Y0197143D01*
X0356133Y0197110D01*
X0356055Y0197081D01*
X0355976Y0197056D01*
X0355896Y0197034D01*
X0355814Y0197017D01*
X0355732Y0197003D01*
X0355649Y0196993D01*
X0355566Y0196987D01*
X0355483Y0196985D01*
X0355400Y0196987D01*
X0355317Y0196993D01*
X0355234Y0197003D01*
X0355152Y0197017D01*
X0355070Y0197034D01*
X0354990Y0197056D01*
X0354911Y0197081D01*
X0354833Y0197110D01*
X0354756Y0197143D01*
X0354681Y0197180D01*
X0354608Y0197219D01*
X0354537Y0197263D01*
X0354468Y0197309D01*
X0354401Y0197359D01*
X0354337Y0197412D01*
X0354275Y0197468D01*
X0354216Y0197527D01*
X0354160Y0197589D01*
X0354107Y0197653D01*
X0354057Y0197720D01*
X0354011Y0197789D01*
X0353967Y0197860D01*
X0353928Y0197933D01*
X0353891Y0198008D01*
X0353858Y0198085D01*
X0353829Y0198163D01*
X0353804Y0198242D01*
X0353782Y0198322D01*
X0353765Y0198404D01*
X0353751Y0198486D01*
X0353741Y0198569D01*
X0353735Y0198652D01*
X0353733Y0198735D01*
X0361733Y0198735D02*
X0361735Y0198818D01*
X0361741Y0198901D01*
X0361751Y0198984D01*
X0361765Y0199066D01*
X0361782Y0199148D01*
X0361804Y0199228D01*
X0361829Y0199307D01*
X0361858Y0199385D01*
X0361891Y0199462D01*
X0361928Y0199537D01*
X0361967Y0199610D01*
X0362011Y0199681D01*
X0362057Y0199750D01*
X0362107Y0199817D01*
X0362160Y0199881D01*
X0362216Y0199943D01*
X0362275Y0200002D01*
X0362337Y0200058D01*
X0362401Y0200111D01*
X0362468Y0200161D01*
X0362537Y0200207D01*
X0362608Y0200251D01*
X0362681Y0200290D01*
X0362756Y0200327D01*
X0362833Y0200360D01*
X0362911Y0200389D01*
X0362990Y0200414D01*
X0363070Y0200436D01*
X0363152Y0200453D01*
X0363234Y0200467D01*
X0363317Y0200477D01*
X0363400Y0200483D01*
X0363483Y0200485D01*
X0363566Y0200483D01*
X0363649Y0200477D01*
X0363732Y0200467D01*
X0363814Y0200453D01*
X0363896Y0200436D01*
X0363976Y0200414D01*
X0364055Y0200389D01*
X0364133Y0200360D01*
X0364210Y0200327D01*
X0364285Y0200290D01*
X0364358Y0200251D01*
X0364429Y0200207D01*
X0364498Y0200161D01*
X0364565Y0200111D01*
X0364629Y0200058D01*
X0364691Y0200002D01*
X0364750Y0199943D01*
X0364806Y0199881D01*
X0364859Y0199817D01*
X0364909Y0199750D01*
X0364955Y0199681D01*
X0364999Y0199610D01*
X0365038Y0199537D01*
X0365075Y0199462D01*
X0365108Y0199385D01*
X0365137Y0199307D01*
X0365162Y0199228D01*
X0365184Y0199148D01*
X0365201Y0199066D01*
X0365215Y0198984D01*
X0365225Y0198901D01*
X0365231Y0198818D01*
X0365233Y0198735D01*
X0365231Y0198652D01*
X0365225Y0198569D01*
X0365215Y0198486D01*
X0365201Y0198404D01*
X0365184Y0198322D01*
X0365162Y0198242D01*
X0365137Y0198163D01*
X0365108Y0198085D01*
X0365075Y0198008D01*
X0365038Y0197933D01*
X0364999Y0197860D01*
X0364955Y0197789D01*
X0364909Y0197720D01*
X0364859Y0197653D01*
X0364806Y0197589D01*
X0364750Y0197527D01*
X0364691Y0197468D01*
X0364629Y0197412D01*
X0364565Y0197359D01*
X0364498Y0197309D01*
X0364429Y0197263D01*
X0364358Y0197219D01*
X0364285Y0197180D01*
X0364210Y0197143D01*
X0364133Y0197110D01*
X0364055Y0197081D01*
X0363976Y0197056D01*
X0363896Y0197034D01*
X0363814Y0197017D01*
X0363732Y0197003D01*
X0363649Y0196993D01*
X0363566Y0196987D01*
X0363483Y0196985D01*
X0363400Y0196987D01*
X0363317Y0196993D01*
X0363234Y0197003D01*
X0363152Y0197017D01*
X0363070Y0197034D01*
X0362990Y0197056D01*
X0362911Y0197081D01*
X0362833Y0197110D01*
X0362756Y0197143D01*
X0362681Y0197180D01*
X0362608Y0197219D01*
X0362537Y0197263D01*
X0362468Y0197309D01*
X0362401Y0197359D01*
X0362337Y0197412D01*
X0362275Y0197468D01*
X0362216Y0197527D01*
X0362160Y0197589D01*
X0362107Y0197653D01*
X0362057Y0197720D01*
X0362011Y0197789D01*
X0361967Y0197860D01*
X0361928Y0197933D01*
X0361891Y0198008D01*
X0361858Y0198085D01*
X0361829Y0198163D01*
X0361804Y0198242D01*
X0361782Y0198322D01*
X0361765Y0198404D01*
X0361751Y0198486D01*
X0361741Y0198569D01*
X0361735Y0198652D01*
X0361733Y0198735D01*
X0357733Y0218735D02*
X0357735Y0218818D01*
X0357741Y0218901D01*
X0357751Y0218984D01*
X0357765Y0219066D01*
X0357782Y0219148D01*
X0357804Y0219228D01*
X0357829Y0219307D01*
X0357858Y0219385D01*
X0357891Y0219462D01*
X0357928Y0219537D01*
X0357967Y0219610D01*
X0358011Y0219681D01*
X0358057Y0219750D01*
X0358107Y0219817D01*
X0358160Y0219881D01*
X0358216Y0219943D01*
X0358275Y0220002D01*
X0358337Y0220058D01*
X0358401Y0220111D01*
X0358468Y0220161D01*
X0358537Y0220207D01*
X0358608Y0220251D01*
X0358681Y0220290D01*
X0358756Y0220327D01*
X0358833Y0220360D01*
X0358911Y0220389D01*
X0358990Y0220414D01*
X0359070Y0220436D01*
X0359152Y0220453D01*
X0359234Y0220467D01*
X0359317Y0220477D01*
X0359400Y0220483D01*
X0359483Y0220485D01*
X0359566Y0220483D01*
X0359649Y0220477D01*
X0359732Y0220467D01*
X0359814Y0220453D01*
X0359896Y0220436D01*
X0359976Y0220414D01*
X0360055Y0220389D01*
X0360133Y0220360D01*
X0360210Y0220327D01*
X0360285Y0220290D01*
X0360358Y0220251D01*
X0360429Y0220207D01*
X0360498Y0220161D01*
X0360565Y0220111D01*
X0360629Y0220058D01*
X0360691Y0220002D01*
X0360750Y0219943D01*
X0360806Y0219881D01*
X0360859Y0219817D01*
X0360909Y0219750D01*
X0360955Y0219681D01*
X0360999Y0219610D01*
X0361038Y0219537D01*
X0361075Y0219462D01*
X0361108Y0219385D01*
X0361137Y0219307D01*
X0361162Y0219228D01*
X0361184Y0219148D01*
X0361201Y0219066D01*
X0361215Y0218984D01*
X0361225Y0218901D01*
X0361231Y0218818D01*
X0361233Y0218735D01*
X0361231Y0218652D01*
X0361225Y0218569D01*
X0361215Y0218486D01*
X0361201Y0218404D01*
X0361184Y0218322D01*
X0361162Y0218242D01*
X0361137Y0218163D01*
X0361108Y0218085D01*
X0361075Y0218008D01*
X0361038Y0217933D01*
X0360999Y0217860D01*
X0360955Y0217789D01*
X0360909Y0217720D01*
X0360859Y0217653D01*
X0360806Y0217589D01*
X0360750Y0217527D01*
X0360691Y0217468D01*
X0360629Y0217412D01*
X0360565Y0217359D01*
X0360498Y0217309D01*
X0360429Y0217263D01*
X0360358Y0217219D01*
X0360285Y0217180D01*
X0360210Y0217143D01*
X0360133Y0217110D01*
X0360055Y0217081D01*
X0359976Y0217056D01*
X0359896Y0217034D01*
X0359814Y0217017D01*
X0359732Y0217003D01*
X0359649Y0216993D01*
X0359566Y0216987D01*
X0359483Y0216985D01*
X0359400Y0216987D01*
X0359317Y0216993D01*
X0359234Y0217003D01*
X0359152Y0217017D01*
X0359070Y0217034D01*
X0358990Y0217056D01*
X0358911Y0217081D01*
X0358833Y0217110D01*
X0358756Y0217143D01*
X0358681Y0217180D01*
X0358608Y0217219D01*
X0358537Y0217263D01*
X0358468Y0217309D01*
X0358401Y0217359D01*
X0358337Y0217412D01*
X0358275Y0217468D01*
X0358216Y0217527D01*
X0358160Y0217589D01*
X0358107Y0217653D01*
X0358057Y0217720D01*
X0358011Y0217789D01*
X0357967Y0217860D01*
X0357928Y0217933D01*
X0357891Y0218008D01*
X0357858Y0218085D01*
X0357829Y0218163D01*
X0357804Y0218242D01*
X0357782Y0218322D01*
X0357765Y0218404D01*
X0357751Y0218486D01*
X0357741Y0218569D01*
X0357735Y0218652D01*
X0357733Y0218735D01*
X0367357Y0355546D02*
X0367359Y0355699D01*
X0367365Y0355853D01*
X0367375Y0356006D01*
X0367389Y0356158D01*
X0367407Y0356311D01*
X0367429Y0356462D01*
X0367454Y0356613D01*
X0367484Y0356764D01*
X0367518Y0356914D01*
X0367555Y0357062D01*
X0367596Y0357210D01*
X0367641Y0357356D01*
X0367690Y0357502D01*
X0367743Y0357646D01*
X0367799Y0357788D01*
X0367859Y0357929D01*
X0367923Y0358069D01*
X0367990Y0358207D01*
X0368061Y0358343D01*
X0368136Y0358477D01*
X0368213Y0358609D01*
X0368295Y0358739D01*
X0368379Y0358867D01*
X0368467Y0358993D01*
X0368558Y0359116D01*
X0368652Y0359237D01*
X0368750Y0359355D01*
X0368850Y0359471D01*
X0368954Y0359584D01*
X0369060Y0359695D01*
X0369169Y0359803D01*
X0369281Y0359908D01*
X0369395Y0360009D01*
X0369513Y0360108D01*
X0369632Y0360204D01*
X0369754Y0360297D01*
X0369879Y0360386D01*
X0370006Y0360473D01*
X0370135Y0360555D01*
X0370266Y0360635D01*
X0370399Y0360711D01*
X0370534Y0360784D01*
X0370671Y0360853D01*
X0370810Y0360918D01*
X0370950Y0360980D01*
X0371092Y0361038D01*
X0371235Y0361093D01*
X0371380Y0361144D01*
X0371526Y0361191D01*
X0371673Y0361234D01*
X0371821Y0361273D01*
X0371970Y0361309D01*
X0372120Y0361340D01*
X0372271Y0361368D01*
X0372422Y0361392D01*
X0372575Y0361412D01*
X0372727Y0361428D01*
X0372880Y0361440D01*
X0373033Y0361448D01*
X0373186Y0361452D01*
X0373340Y0361452D01*
X0373493Y0361448D01*
X0373646Y0361440D01*
X0373799Y0361428D01*
X0373951Y0361412D01*
X0374104Y0361392D01*
X0374255Y0361368D01*
X0374406Y0361340D01*
X0374556Y0361309D01*
X0374705Y0361273D01*
X0374853Y0361234D01*
X0375000Y0361191D01*
X0375146Y0361144D01*
X0375291Y0361093D01*
X0375434Y0361038D01*
X0375576Y0360980D01*
X0375716Y0360918D01*
X0375855Y0360853D01*
X0375992Y0360784D01*
X0376127Y0360711D01*
X0376260Y0360635D01*
X0376391Y0360555D01*
X0376520Y0360473D01*
X0376647Y0360386D01*
X0376772Y0360297D01*
X0376894Y0360204D01*
X0377013Y0360108D01*
X0377131Y0360009D01*
X0377245Y0359908D01*
X0377357Y0359803D01*
X0377466Y0359695D01*
X0377572Y0359584D01*
X0377676Y0359471D01*
X0377776Y0359355D01*
X0377874Y0359237D01*
X0377968Y0359116D01*
X0378059Y0358993D01*
X0378147Y0358867D01*
X0378231Y0358739D01*
X0378313Y0358609D01*
X0378390Y0358477D01*
X0378465Y0358343D01*
X0378536Y0358207D01*
X0378603Y0358069D01*
X0378667Y0357929D01*
X0378727Y0357788D01*
X0378783Y0357646D01*
X0378836Y0357502D01*
X0378885Y0357356D01*
X0378930Y0357210D01*
X0378971Y0357062D01*
X0379008Y0356914D01*
X0379042Y0356764D01*
X0379072Y0356613D01*
X0379097Y0356462D01*
X0379119Y0356311D01*
X0379137Y0356158D01*
X0379151Y0356006D01*
X0379161Y0355853D01*
X0379167Y0355699D01*
X0379169Y0355546D01*
X0379167Y0355393D01*
X0379161Y0355239D01*
X0379151Y0355086D01*
X0379137Y0354934D01*
X0379119Y0354781D01*
X0379097Y0354630D01*
X0379072Y0354479D01*
X0379042Y0354328D01*
X0379008Y0354178D01*
X0378971Y0354030D01*
X0378930Y0353882D01*
X0378885Y0353736D01*
X0378836Y0353590D01*
X0378783Y0353446D01*
X0378727Y0353304D01*
X0378667Y0353163D01*
X0378603Y0353023D01*
X0378536Y0352885D01*
X0378465Y0352749D01*
X0378390Y0352615D01*
X0378313Y0352483D01*
X0378231Y0352353D01*
X0378147Y0352225D01*
X0378059Y0352099D01*
X0377968Y0351976D01*
X0377874Y0351855D01*
X0377776Y0351737D01*
X0377676Y0351621D01*
X0377572Y0351508D01*
X0377466Y0351397D01*
X0377357Y0351289D01*
X0377245Y0351184D01*
X0377131Y0351083D01*
X0377013Y0350984D01*
X0376894Y0350888D01*
X0376772Y0350795D01*
X0376647Y0350706D01*
X0376520Y0350619D01*
X0376391Y0350537D01*
X0376260Y0350457D01*
X0376127Y0350381D01*
X0375992Y0350308D01*
X0375855Y0350239D01*
X0375716Y0350174D01*
X0375576Y0350112D01*
X0375434Y0350054D01*
X0375291Y0349999D01*
X0375146Y0349948D01*
X0375000Y0349901D01*
X0374853Y0349858D01*
X0374705Y0349819D01*
X0374556Y0349783D01*
X0374406Y0349752D01*
X0374255Y0349724D01*
X0374104Y0349700D01*
X0373951Y0349680D01*
X0373799Y0349664D01*
X0373646Y0349652D01*
X0373493Y0349644D01*
X0373340Y0349640D01*
X0373186Y0349640D01*
X0373033Y0349644D01*
X0372880Y0349652D01*
X0372727Y0349664D01*
X0372575Y0349680D01*
X0372422Y0349700D01*
X0372271Y0349724D01*
X0372120Y0349752D01*
X0371970Y0349783D01*
X0371821Y0349819D01*
X0371673Y0349858D01*
X0371526Y0349901D01*
X0371380Y0349948D01*
X0371235Y0349999D01*
X0371092Y0350054D01*
X0370950Y0350112D01*
X0370810Y0350174D01*
X0370671Y0350239D01*
X0370534Y0350308D01*
X0370399Y0350381D01*
X0370266Y0350457D01*
X0370135Y0350537D01*
X0370006Y0350619D01*
X0369879Y0350706D01*
X0369754Y0350795D01*
X0369632Y0350888D01*
X0369513Y0350984D01*
X0369395Y0351083D01*
X0369281Y0351184D01*
X0369169Y0351289D01*
X0369060Y0351397D01*
X0368954Y0351508D01*
X0368850Y0351621D01*
X0368750Y0351737D01*
X0368652Y0351855D01*
X0368558Y0351976D01*
X0368467Y0352099D01*
X0368379Y0352225D01*
X0368295Y0352353D01*
X0368213Y0352483D01*
X0368136Y0352615D01*
X0368061Y0352749D01*
X0367990Y0352885D01*
X0367923Y0353023D01*
X0367859Y0353163D01*
X0367799Y0353304D01*
X0367743Y0353446D01*
X0367690Y0353590D01*
X0367641Y0353736D01*
X0367596Y0353882D01*
X0367555Y0354030D01*
X0367518Y0354178D01*
X0367484Y0354328D01*
X0367454Y0354479D01*
X0367429Y0354630D01*
X0367407Y0354781D01*
X0367389Y0354934D01*
X0367375Y0355086D01*
X0367365Y0355239D01*
X0367359Y0355393D01*
X0367357Y0355546D01*
X0072081Y0355546D02*
X0072083Y0355699D01*
X0072089Y0355853D01*
X0072099Y0356006D01*
X0072113Y0356158D01*
X0072131Y0356311D01*
X0072153Y0356462D01*
X0072178Y0356613D01*
X0072208Y0356764D01*
X0072242Y0356914D01*
X0072279Y0357062D01*
X0072320Y0357210D01*
X0072365Y0357356D01*
X0072414Y0357502D01*
X0072467Y0357646D01*
X0072523Y0357788D01*
X0072583Y0357929D01*
X0072647Y0358069D01*
X0072714Y0358207D01*
X0072785Y0358343D01*
X0072860Y0358477D01*
X0072937Y0358609D01*
X0073019Y0358739D01*
X0073103Y0358867D01*
X0073191Y0358993D01*
X0073282Y0359116D01*
X0073376Y0359237D01*
X0073474Y0359355D01*
X0073574Y0359471D01*
X0073678Y0359584D01*
X0073784Y0359695D01*
X0073893Y0359803D01*
X0074005Y0359908D01*
X0074119Y0360009D01*
X0074237Y0360108D01*
X0074356Y0360204D01*
X0074478Y0360297D01*
X0074603Y0360386D01*
X0074730Y0360473D01*
X0074859Y0360555D01*
X0074990Y0360635D01*
X0075123Y0360711D01*
X0075258Y0360784D01*
X0075395Y0360853D01*
X0075534Y0360918D01*
X0075674Y0360980D01*
X0075816Y0361038D01*
X0075959Y0361093D01*
X0076104Y0361144D01*
X0076250Y0361191D01*
X0076397Y0361234D01*
X0076545Y0361273D01*
X0076694Y0361309D01*
X0076844Y0361340D01*
X0076995Y0361368D01*
X0077146Y0361392D01*
X0077299Y0361412D01*
X0077451Y0361428D01*
X0077604Y0361440D01*
X0077757Y0361448D01*
X0077910Y0361452D01*
X0078064Y0361452D01*
X0078217Y0361448D01*
X0078370Y0361440D01*
X0078523Y0361428D01*
X0078675Y0361412D01*
X0078828Y0361392D01*
X0078979Y0361368D01*
X0079130Y0361340D01*
X0079280Y0361309D01*
X0079429Y0361273D01*
X0079577Y0361234D01*
X0079724Y0361191D01*
X0079870Y0361144D01*
X0080015Y0361093D01*
X0080158Y0361038D01*
X0080300Y0360980D01*
X0080440Y0360918D01*
X0080579Y0360853D01*
X0080716Y0360784D01*
X0080851Y0360711D01*
X0080984Y0360635D01*
X0081115Y0360555D01*
X0081244Y0360473D01*
X0081371Y0360386D01*
X0081496Y0360297D01*
X0081618Y0360204D01*
X0081737Y0360108D01*
X0081855Y0360009D01*
X0081969Y0359908D01*
X0082081Y0359803D01*
X0082190Y0359695D01*
X0082296Y0359584D01*
X0082400Y0359471D01*
X0082500Y0359355D01*
X0082598Y0359237D01*
X0082692Y0359116D01*
X0082783Y0358993D01*
X0082871Y0358867D01*
X0082955Y0358739D01*
X0083037Y0358609D01*
X0083114Y0358477D01*
X0083189Y0358343D01*
X0083260Y0358207D01*
X0083327Y0358069D01*
X0083391Y0357929D01*
X0083451Y0357788D01*
X0083507Y0357646D01*
X0083560Y0357502D01*
X0083609Y0357356D01*
X0083654Y0357210D01*
X0083695Y0357062D01*
X0083732Y0356914D01*
X0083766Y0356764D01*
X0083796Y0356613D01*
X0083821Y0356462D01*
X0083843Y0356311D01*
X0083861Y0356158D01*
X0083875Y0356006D01*
X0083885Y0355853D01*
X0083891Y0355699D01*
X0083893Y0355546D01*
X0083891Y0355393D01*
X0083885Y0355239D01*
X0083875Y0355086D01*
X0083861Y0354934D01*
X0083843Y0354781D01*
X0083821Y0354630D01*
X0083796Y0354479D01*
X0083766Y0354328D01*
X0083732Y0354178D01*
X0083695Y0354030D01*
X0083654Y0353882D01*
X0083609Y0353736D01*
X0083560Y0353590D01*
X0083507Y0353446D01*
X0083451Y0353304D01*
X0083391Y0353163D01*
X0083327Y0353023D01*
X0083260Y0352885D01*
X0083189Y0352749D01*
X0083114Y0352615D01*
X0083037Y0352483D01*
X0082955Y0352353D01*
X0082871Y0352225D01*
X0082783Y0352099D01*
X0082692Y0351976D01*
X0082598Y0351855D01*
X0082500Y0351737D01*
X0082400Y0351621D01*
X0082296Y0351508D01*
X0082190Y0351397D01*
X0082081Y0351289D01*
X0081969Y0351184D01*
X0081855Y0351083D01*
X0081737Y0350984D01*
X0081618Y0350888D01*
X0081496Y0350795D01*
X0081371Y0350706D01*
X0081244Y0350619D01*
X0081115Y0350537D01*
X0080984Y0350457D01*
X0080851Y0350381D01*
X0080716Y0350308D01*
X0080579Y0350239D01*
X0080440Y0350174D01*
X0080300Y0350112D01*
X0080158Y0350054D01*
X0080015Y0349999D01*
X0079870Y0349948D01*
X0079724Y0349901D01*
X0079577Y0349858D01*
X0079429Y0349819D01*
X0079280Y0349783D01*
X0079130Y0349752D01*
X0078979Y0349724D01*
X0078828Y0349700D01*
X0078675Y0349680D01*
X0078523Y0349664D01*
X0078370Y0349652D01*
X0078217Y0349644D01*
X0078064Y0349640D01*
X0077910Y0349640D01*
X0077757Y0349644D01*
X0077604Y0349652D01*
X0077451Y0349664D01*
X0077299Y0349680D01*
X0077146Y0349700D01*
X0076995Y0349724D01*
X0076844Y0349752D01*
X0076694Y0349783D01*
X0076545Y0349819D01*
X0076397Y0349858D01*
X0076250Y0349901D01*
X0076104Y0349948D01*
X0075959Y0349999D01*
X0075816Y0350054D01*
X0075674Y0350112D01*
X0075534Y0350174D01*
X0075395Y0350239D01*
X0075258Y0350308D01*
X0075123Y0350381D01*
X0074990Y0350457D01*
X0074859Y0350537D01*
X0074730Y0350619D01*
X0074603Y0350706D01*
X0074478Y0350795D01*
X0074356Y0350888D01*
X0074237Y0350984D01*
X0074119Y0351083D01*
X0074005Y0351184D01*
X0073893Y0351289D01*
X0073784Y0351397D01*
X0073678Y0351508D01*
X0073574Y0351621D01*
X0073474Y0351737D01*
X0073376Y0351855D01*
X0073282Y0351976D01*
X0073191Y0352099D01*
X0073103Y0352225D01*
X0073019Y0352353D01*
X0072937Y0352483D01*
X0072860Y0352615D01*
X0072785Y0352749D01*
X0072714Y0352885D01*
X0072647Y0353023D01*
X0072583Y0353163D01*
X0072523Y0353304D01*
X0072467Y0353446D01*
X0072414Y0353590D01*
X0072365Y0353736D01*
X0072320Y0353882D01*
X0072279Y0354030D01*
X0072242Y0354178D01*
X0072208Y0354328D01*
X0072178Y0354479D01*
X0072153Y0354630D01*
X0072131Y0354781D01*
X0072113Y0354934D01*
X0072099Y0355086D01*
X0072089Y0355239D01*
X0072083Y0355393D01*
X0072081Y0355546D01*
X0367357Y0060271D02*
X0367359Y0060424D01*
X0367365Y0060578D01*
X0367375Y0060731D01*
X0367389Y0060883D01*
X0367407Y0061036D01*
X0367429Y0061187D01*
X0367454Y0061338D01*
X0367484Y0061489D01*
X0367518Y0061639D01*
X0367555Y0061787D01*
X0367596Y0061935D01*
X0367641Y0062081D01*
X0367690Y0062227D01*
X0367743Y0062371D01*
X0367799Y0062513D01*
X0367859Y0062654D01*
X0367923Y0062794D01*
X0367990Y0062932D01*
X0368061Y0063068D01*
X0368136Y0063202D01*
X0368213Y0063334D01*
X0368295Y0063464D01*
X0368379Y0063592D01*
X0368467Y0063718D01*
X0368558Y0063841D01*
X0368652Y0063962D01*
X0368750Y0064080D01*
X0368850Y0064196D01*
X0368954Y0064309D01*
X0369060Y0064420D01*
X0369169Y0064528D01*
X0369281Y0064633D01*
X0369395Y0064734D01*
X0369513Y0064833D01*
X0369632Y0064929D01*
X0369754Y0065022D01*
X0369879Y0065111D01*
X0370006Y0065198D01*
X0370135Y0065280D01*
X0370266Y0065360D01*
X0370399Y0065436D01*
X0370534Y0065509D01*
X0370671Y0065578D01*
X0370810Y0065643D01*
X0370950Y0065705D01*
X0371092Y0065763D01*
X0371235Y0065818D01*
X0371380Y0065869D01*
X0371526Y0065916D01*
X0371673Y0065959D01*
X0371821Y0065998D01*
X0371970Y0066034D01*
X0372120Y0066065D01*
X0372271Y0066093D01*
X0372422Y0066117D01*
X0372575Y0066137D01*
X0372727Y0066153D01*
X0372880Y0066165D01*
X0373033Y0066173D01*
X0373186Y0066177D01*
X0373340Y0066177D01*
X0373493Y0066173D01*
X0373646Y0066165D01*
X0373799Y0066153D01*
X0373951Y0066137D01*
X0374104Y0066117D01*
X0374255Y0066093D01*
X0374406Y0066065D01*
X0374556Y0066034D01*
X0374705Y0065998D01*
X0374853Y0065959D01*
X0375000Y0065916D01*
X0375146Y0065869D01*
X0375291Y0065818D01*
X0375434Y0065763D01*
X0375576Y0065705D01*
X0375716Y0065643D01*
X0375855Y0065578D01*
X0375992Y0065509D01*
X0376127Y0065436D01*
X0376260Y0065360D01*
X0376391Y0065280D01*
X0376520Y0065198D01*
X0376647Y0065111D01*
X0376772Y0065022D01*
X0376894Y0064929D01*
X0377013Y0064833D01*
X0377131Y0064734D01*
X0377245Y0064633D01*
X0377357Y0064528D01*
X0377466Y0064420D01*
X0377572Y0064309D01*
X0377676Y0064196D01*
X0377776Y0064080D01*
X0377874Y0063962D01*
X0377968Y0063841D01*
X0378059Y0063718D01*
X0378147Y0063592D01*
X0378231Y0063464D01*
X0378313Y0063334D01*
X0378390Y0063202D01*
X0378465Y0063068D01*
X0378536Y0062932D01*
X0378603Y0062794D01*
X0378667Y0062654D01*
X0378727Y0062513D01*
X0378783Y0062371D01*
X0378836Y0062227D01*
X0378885Y0062081D01*
X0378930Y0061935D01*
X0378971Y0061787D01*
X0379008Y0061639D01*
X0379042Y0061489D01*
X0379072Y0061338D01*
X0379097Y0061187D01*
X0379119Y0061036D01*
X0379137Y0060883D01*
X0379151Y0060731D01*
X0379161Y0060578D01*
X0379167Y0060424D01*
X0379169Y0060271D01*
X0379167Y0060118D01*
X0379161Y0059964D01*
X0379151Y0059811D01*
X0379137Y0059659D01*
X0379119Y0059506D01*
X0379097Y0059355D01*
X0379072Y0059204D01*
X0379042Y0059053D01*
X0379008Y0058903D01*
X0378971Y0058755D01*
X0378930Y0058607D01*
X0378885Y0058461D01*
X0378836Y0058315D01*
X0378783Y0058171D01*
X0378727Y0058029D01*
X0378667Y0057888D01*
X0378603Y0057748D01*
X0378536Y0057610D01*
X0378465Y0057474D01*
X0378390Y0057340D01*
X0378313Y0057208D01*
X0378231Y0057078D01*
X0378147Y0056950D01*
X0378059Y0056824D01*
X0377968Y0056701D01*
X0377874Y0056580D01*
X0377776Y0056462D01*
X0377676Y0056346D01*
X0377572Y0056233D01*
X0377466Y0056122D01*
X0377357Y0056014D01*
X0377245Y0055909D01*
X0377131Y0055808D01*
X0377013Y0055709D01*
X0376894Y0055613D01*
X0376772Y0055520D01*
X0376647Y0055431D01*
X0376520Y0055344D01*
X0376391Y0055262D01*
X0376260Y0055182D01*
X0376127Y0055106D01*
X0375992Y0055033D01*
X0375855Y0054964D01*
X0375716Y0054899D01*
X0375576Y0054837D01*
X0375434Y0054779D01*
X0375291Y0054724D01*
X0375146Y0054673D01*
X0375000Y0054626D01*
X0374853Y0054583D01*
X0374705Y0054544D01*
X0374556Y0054508D01*
X0374406Y0054477D01*
X0374255Y0054449D01*
X0374104Y0054425D01*
X0373951Y0054405D01*
X0373799Y0054389D01*
X0373646Y0054377D01*
X0373493Y0054369D01*
X0373340Y0054365D01*
X0373186Y0054365D01*
X0373033Y0054369D01*
X0372880Y0054377D01*
X0372727Y0054389D01*
X0372575Y0054405D01*
X0372422Y0054425D01*
X0372271Y0054449D01*
X0372120Y0054477D01*
X0371970Y0054508D01*
X0371821Y0054544D01*
X0371673Y0054583D01*
X0371526Y0054626D01*
X0371380Y0054673D01*
X0371235Y0054724D01*
X0371092Y0054779D01*
X0370950Y0054837D01*
X0370810Y0054899D01*
X0370671Y0054964D01*
X0370534Y0055033D01*
X0370399Y0055106D01*
X0370266Y0055182D01*
X0370135Y0055262D01*
X0370006Y0055344D01*
X0369879Y0055431D01*
X0369754Y0055520D01*
X0369632Y0055613D01*
X0369513Y0055709D01*
X0369395Y0055808D01*
X0369281Y0055909D01*
X0369169Y0056014D01*
X0369060Y0056122D01*
X0368954Y0056233D01*
X0368850Y0056346D01*
X0368750Y0056462D01*
X0368652Y0056580D01*
X0368558Y0056701D01*
X0368467Y0056824D01*
X0368379Y0056950D01*
X0368295Y0057078D01*
X0368213Y0057208D01*
X0368136Y0057340D01*
X0368061Y0057474D01*
X0367990Y0057610D01*
X0367923Y0057748D01*
X0367859Y0057888D01*
X0367799Y0058029D01*
X0367743Y0058171D01*
X0367690Y0058315D01*
X0367641Y0058461D01*
X0367596Y0058607D01*
X0367555Y0058755D01*
X0367518Y0058903D01*
X0367484Y0059053D01*
X0367454Y0059204D01*
X0367429Y0059355D01*
X0367407Y0059506D01*
X0367389Y0059659D01*
X0367375Y0059811D01*
X0367365Y0059964D01*
X0367359Y0060118D01*
X0367357Y0060271D01*
M02*
