G75*
%MOIN*%
%OFA0B0*%
%FSLAX25Y25*%
%IPPOS*%
%LPD*%
%AMOC8*
5,1,8,0,0,1.08239X$1,22.5*
%
%ADD10C,0.00000*%
%ADD11R,0.01181X0.05906*%
%ADD12R,0.05906X0.01181*%
%ADD13OC8,0.05200*%
%ADD14R,0.03937X0.05512*%
%ADD15OC8,0.04362*%
%ADD16R,0.03740X0.03937*%
%ADD17R,0.03937X0.03740*%
%ADD18C,0.07400*%
%ADD19C,0.05200*%
%ADD20R,0.03150X0.02362*%
%ADD21R,0.03150X0.01969*%
%ADD22C,0.05200*%
%ADD23C,0.00800*%
%ADD24R,0.05000X0.02500*%
%ADD25C,0.03100*%
%ADD26C,0.02400*%
%ADD27C,0.01000*%
%ADD28OC8,0.02700*%
%ADD29C,0.01200*%
%ADD30C,0.01600*%
%ADD31C,0.00787*%
%ADD32C,0.01181*%
%ADD33C,0.00906*%
%ADD34C,0.08600*%
%ADD35C,0.04000*%
D10*
X0028775Y0011058D02*
X0028775Y0404759D01*
X0422476Y0404759D01*
X0422476Y0011058D01*
X0028775Y0011058D01*
X0072081Y0060271D02*
X0072083Y0060424D01*
X0072089Y0060578D01*
X0072099Y0060731D01*
X0072113Y0060883D01*
X0072131Y0061036D01*
X0072153Y0061187D01*
X0072178Y0061338D01*
X0072208Y0061489D01*
X0072242Y0061639D01*
X0072279Y0061787D01*
X0072320Y0061935D01*
X0072365Y0062081D01*
X0072414Y0062227D01*
X0072467Y0062371D01*
X0072523Y0062513D01*
X0072583Y0062654D01*
X0072647Y0062794D01*
X0072714Y0062932D01*
X0072785Y0063068D01*
X0072860Y0063202D01*
X0072937Y0063334D01*
X0073019Y0063464D01*
X0073103Y0063592D01*
X0073191Y0063718D01*
X0073282Y0063841D01*
X0073376Y0063962D01*
X0073474Y0064080D01*
X0073574Y0064196D01*
X0073678Y0064309D01*
X0073784Y0064420D01*
X0073893Y0064528D01*
X0074005Y0064633D01*
X0074119Y0064734D01*
X0074237Y0064833D01*
X0074356Y0064929D01*
X0074478Y0065022D01*
X0074603Y0065111D01*
X0074730Y0065198D01*
X0074859Y0065280D01*
X0074990Y0065360D01*
X0075123Y0065436D01*
X0075258Y0065509D01*
X0075395Y0065578D01*
X0075534Y0065643D01*
X0075674Y0065705D01*
X0075816Y0065763D01*
X0075959Y0065818D01*
X0076104Y0065869D01*
X0076250Y0065916D01*
X0076397Y0065959D01*
X0076545Y0065998D01*
X0076694Y0066034D01*
X0076844Y0066065D01*
X0076995Y0066093D01*
X0077146Y0066117D01*
X0077299Y0066137D01*
X0077451Y0066153D01*
X0077604Y0066165D01*
X0077757Y0066173D01*
X0077910Y0066177D01*
X0078064Y0066177D01*
X0078217Y0066173D01*
X0078370Y0066165D01*
X0078523Y0066153D01*
X0078675Y0066137D01*
X0078828Y0066117D01*
X0078979Y0066093D01*
X0079130Y0066065D01*
X0079280Y0066034D01*
X0079429Y0065998D01*
X0079577Y0065959D01*
X0079724Y0065916D01*
X0079870Y0065869D01*
X0080015Y0065818D01*
X0080158Y0065763D01*
X0080300Y0065705D01*
X0080440Y0065643D01*
X0080579Y0065578D01*
X0080716Y0065509D01*
X0080851Y0065436D01*
X0080984Y0065360D01*
X0081115Y0065280D01*
X0081244Y0065198D01*
X0081371Y0065111D01*
X0081496Y0065022D01*
X0081618Y0064929D01*
X0081737Y0064833D01*
X0081855Y0064734D01*
X0081969Y0064633D01*
X0082081Y0064528D01*
X0082190Y0064420D01*
X0082296Y0064309D01*
X0082400Y0064196D01*
X0082500Y0064080D01*
X0082598Y0063962D01*
X0082692Y0063841D01*
X0082783Y0063718D01*
X0082871Y0063592D01*
X0082955Y0063464D01*
X0083037Y0063334D01*
X0083114Y0063202D01*
X0083189Y0063068D01*
X0083260Y0062932D01*
X0083327Y0062794D01*
X0083391Y0062654D01*
X0083451Y0062513D01*
X0083507Y0062371D01*
X0083560Y0062227D01*
X0083609Y0062081D01*
X0083654Y0061935D01*
X0083695Y0061787D01*
X0083732Y0061639D01*
X0083766Y0061489D01*
X0083796Y0061338D01*
X0083821Y0061187D01*
X0083843Y0061036D01*
X0083861Y0060883D01*
X0083875Y0060731D01*
X0083885Y0060578D01*
X0083891Y0060424D01*
X0083893Y0060271D01*
X0083891Y0060118D01*
X0083885Y0059964D01*
X0083875Y0059811D01*
X0083861Y0059659D01*
X0083843Y0059506D01*
X0083821Y0059355D01*
X0083796Y0059204D01*
X0083766Y0059053D01*
X0083732Y0058903D01*
X0083695Y0058755D01*
X0083654Y0058607D01*
X0083609Y0058461D01*
X0083560Y0058315D01*
X0083507Y0058171D01*
X0083451Y0058029D01*
X0083391Y0057888D01*
X0083327Y0057748D01*
X0083260Y0057610D01*
X0083189Y0057474D01*
X0083114Y0057340D01*
X0083037Y0057208D01*
X0082955Y0057078D01*
X0082871Y0056950D01*
X0082783Y0056824D01*
X0082692Y0056701D01*
X0082598Y0056580D01*
X0082500Y0056462D01*
X0082400Y0056346D01*
X0082296Y0056233D01*
X0082190Y0056122D01*
X0082081Y0056014D01*
X0081969Y0055909D01*
X0081855Y0055808D01*
X0081737Y0055709D01*
X0081618Y0055613D01*
X0081496Y0055520D01*
X0081371Y0055431D01*
X0081244Y0055344D01*
X0081115Y0055262D01*
X0080984Y0055182D01*
X0080851Y0055106D01*
X0080716Y0055033D01*
X0080579Y0054964D01*
X0080440Y0054899D01*
X0080300Y0054837D01*
X0080158Y0054779D01*
X0080015Y0054724D01*
X0079870Y0054673D01*
X0079724Y0054626D01*
X0079577Y0054583D01*
X0079429Y0054544D01*
X0079280Y0054508D01*
X0079130Y0054477D01*
X0078979Y0054449D01*
X0078828Y0054425D01*
X0078675Y0054405D01*
X0078523Y0054389D01*
X0078370Y0054377D01*
X0078217Y0054369D01*
X0078064Y0054365D01*
X0077910Y0054365D01*
X0077757Y0054369D01*
X0077604Y0054377D01*
X0077451Y0054389D01*
X0077299Y0054405D01*
X0077146Y0054425D01*
X0076995Y0054449D01*
X0076844Y0054477D01*
X0076694Y0054508D01*
X0076545Y0054544D01*
X0076397Y0054583D01*
X0076250Y0054626D01*
X0076104Y0054673D01*
X0075959Y0054724D01*
X0075816Y0054779D01*
X0075674Y0054837D01*
X0075534Y0054899D01*
X0075395Y0054964D01*
X0075258Y0055033D01*
X0075123Y0055106D01*
X0074990Y0055182D01*
X0074859Y0055262D01*
X0074730Y0055344D01*
X0074603Y0055431D01*
X0074478Y0055520D01*
X0074356Y0055613D01*
X0074237Y0055709D01*
X0074119Y0055808D01*
X0074005Y0055909D01*
X0073893Y0056014D01*
X0073784Y0056122D01*
X0073678Y0056233D01*
X0073574Y0056346D01*
X0073474Y0056462D01*
X0073376Y0056580D01*
X0073282Y0056701D01*
X0073191Y0056824D01*
X0073103Y0056950D01*
X0073019Y0057078D01*
X0072937Y0057208D01*
X0072860Y0057340D01*
X0072785Y0057474D01*
X0072714Y0057610D01*
X0072647Y0057748D01*
X0072583Y0057888D01*
X0072523Y0058029D01*
X0072467Y0058171D01*
X0072414Y0058315D01*
X0072365Y0058461D01*
X0072320Y0058607D01*
X0072279Y0058755D01*
X0072242Y0058903D01*
X0072208Y0059053D01*
X0072178Y0059204D01*
X0072153Y0059355D01*
X0072131Y0059506D01*
X0072113Y0059659D01*
X0072099Y0059811D01*
X0072089Y0059964D01*
X0072083Y0060118D01*
X0072081Y0060271D01*
X0353733Y0198735D02*
X0353735Y0198818D01*
X0353741Y0198901D01*
X0353751Y0198984D01*
X0353765Y0199066D01*
X0353782Y0199148D01*
X0353804Y0199228D01*
X0353829Y0199307D01*
X0353858Y0199385D01*
X0353891Y0199462D01*
X0353928Y0199537D01*
X0353967Y0199610D01*
X0354011Y0199681D01*
X0354057Y0199750D01*
X0354107Y0199817D01*
X0354160Y0199881D01*
X0354216Y0199943D01*
X0354275Y0200002D01*
X0354337Y0200058D01*
X0354401Y0200111D01*
X0354468Y0200161D01*
X0354537Y0200207D01*
X0354608Y0200251D01*
X0354681Y0200290D01*
X0354756Y0200327D01*
X0354833Y0200360D01*
X0354911Y0200389D01*
X0354990Y0200414D01*
X0355070Y0200436D01*
X0355152Y0200453D01*
X0355234Y0200467D01*
X0355317Y0200477D01*
X0355400Y0200483D01*
X0355483Y0200485D01*
X0355566Y0200483D01*
X0355649Y0200477D01*
X0355732Y0200467D01*
X0355814Y0200453D01*
X0355896Y0200436D01*
X0355976Y0200414D01*
X0356055Y0200389D01*
X0356133Y0200360D01*
X0356210Y0200327D01*
X0356285Y0200290D01*
X0356358Y0200251D01*
X0356429Y0200207D01*
X0356498Y0200161D01*
X0356565Y0200111D01*
X0356629Y0200058D01*
X0356691Y0200002D01*
X0356750Y0199943D01*
X0356806Y0199881D01*
X0356859Y0199817D01*
X0356909Y0199750D01*
X0356955Y0199681D01*
X0356999Y0199610D01*
X0357038Y0199537D01*
X0357075Y0199462D01*
X0357108Y0199385D01*
X0357137Y0199307D01*
X0357162Y0199228D01*
X0357184Y0199148D01*
X0357201Y0199066D01*
X0357215Y0198984D01*
X0357225Y0198901D01*
X0357231Y0198818D01*
X0357233Y0198735D01*
X0357231Y0198652D01*
X0357225Y0198569D01*
X0357215Y0198486D01*
X0357201Y0198404D01*
X0357184Y0198322D01*
X0357162Y0198242D01*
X0357137Y0198163D01*
X0357108Y0198085D01*
X0357075Y0198008D01*
X0357038Y0197933D01*
X0356999Y0197860D01*
X0356955Y0197789D01*
X0356909Y0197720D01*
X0356859Y0197653D01*
X0356806Y0197589D01*
X0356750Y0197527D01*
X0356691Y0197468D01*
X0356629Y0197412D01*
X0356565Y0197359D01*
X0356498Y0197309D01*
X0356429Y0197263D01*
X0356358Y0197219D01*
X0356285Y0197180D01*
X0356210Y0197143D01*
X0356133Y0197110D01*
X0356055Y0197081D01*
X0355976Y0197056D01*
X0355896Y0197034D01*
X0355814Y0197017D01*
X0355732Y0197003D01*
X0355649Y0196993D01*
X0355566Y0196987D01*
X0355483Y0196985D01*
X0355400Y0196987D01*
X0355317Y0196993D01*
X0355234Y0197003D01*
X0355152Y0197017D01*
X0355070Y0197034D01*
X0354990Y0197056D01*
X0354911Y0197081D01*
X0354833Y0197110D01*
X0354756Y0197143D01*
X0354681Y0197180D01*
X0354608Y0197219D01*
X0354537Y0197263D01*
X0354468Y0197309D01*
X0354401Y0197359D01*
X0354337Y0197412D01*
X0354275Y0197468D01*
X0354216Y0197527D01*
X0354160Y0197589D01*
X0354107Y0197653D01*
X0354057Y0197720D01*
X0354011Y0197789D01*
X0353967Y0197860D01*
X0353928Y0197933D01*
X0353891Y0198008D01*
X0353858Y0198085D01*
X0353829Y0198163D01*
X0353804Y0198242D01*
X0353782Y0198322D01*
X0353765Y0198404D01*
X0353751Y0198486D01*
X0353741Y0198569D01*
X0353735Y0198652D01*
X0353733Y0198735D01*
X0361733Y0198735D02*
X0361735Y0198818D01*
X0361741Y0198901D01*
X0361751Y0198984D01*
X0361765Y0199066D01*
X0361782Y0199148D01*
X0361804Y0199228D01*
X0361829Y0199307D01*
X0361858Y0199385D01*
X0361891Y0199462D01*
X0361928Y0199537D01*
X0361967Y0199610D01*
X0362011Y0199681D01*
X0362057Y0199750D01*
X0362107Y0199817D01*
X0362160Y0199881D01*
X0362216Y0199943D01*
X0362275Y0200002D01*
X0362337Y0200058D01*
X0362401Y0200111D01*
X0362468Y0200161D01*
X0362537Y0200207D01*
X0362608Y0200251D01*
X0362681Y0200290D01*
X0362756Y0200327D01*
X0362833Y0200360D01*
X0362911Y0200389D01*
X0362990Y0200414D01*
X0363070Y0200436D01*
X0363152Y0200453D01*
X0363234Y0200467D01*
X0363317Y0200477D01*
X0363400Y0200483D01*
X0363483Y0200485D01*
X0363566Y0200483D01*
X0363649Y0200477D01*
X0363732Y0200467D01*
X0363814Y0200453D01*
X0363896Y0200436D01*
X0363976Y0200414D01*
X0364055Y0200389D01*
X0364133Y0200360D01*
X0364210Y0200327D01*
X0364285Y0200290D01*
X0364358Y0200251D01*
X0364429Y0200207D01*
X0364498Y0200161D01*
X0364565Y0200111D01*
X0364629Y0200058D01*
X0364691Y0200002D01*
X0364750Y0199943D01*
X0364806Y0199881D01*
X0364859Y0199817D01*
X0364909Y0199750D01*
X0364955Y0199681D01*
X0364999Y0199610D01*
X0365038Y0199537D01*
X0365075Y0199462D01*
X0365108Y0199385D01*
X0365137Y0199307D01*
X0365162Y0199228D01*
X0365184Y0199148D01*
X0365201Y0199066D01*
X0365215Y0198984D01*
X0365225Y0198901D01*
X0365231Y0198818D01*
X0365233Y0198735D01*
X0365231Y0198652D01*
X0365225Y0198569D01*
X0365215Y0198486D01*
X0365201Y0198404D01*
X0365184Y0198322D01*
X0365162Y0198242D01*
X0365137Y0198163D01*
X0365108Y0198085D01*
X0365075Y0198008D01*
X0365038Y0197933D01*
X0364999Y0197860D01*
X0364955Y0197789D01*
X0364909Y0197720D01*
X0364859Y0197653D01*
X0364806Y0197589D01*
X0364750Y0197527D01*
X0364691Y0197468D01*
X0364629Y0197412D01*
X0364565Y0197359D01*
X0364498Y0197309D01*
X0364429Y0197263D01*
X0364358Y0197219D01*
X0364285Y0197180D01*
X0364210Y0197143D01*
X0364133Y0197110D01*
X0364055Y0197081D01*
X0363976Y0197056D01*
X0363896Y0197034D01*
X0363814Y0197017D01*
X0363732Y0197003D01*
X0363649Y0196993D01*
X0363566Y0196987D01*
X0363483Y0196985D01*
X0363400Y0196987D01*
X0363317Y0196993D01*
X0363234Y0197003D01*
X0363152Y0197017D01*
X0363070Y0197034D01*
X0362990Y0197056D01*
X0362911Y0197081D01*
X0362833Y0197110D01*
X0362756Y0197143D01*
X0362681Y0197180D01*
X0362608Y0197219D01*
X0362537Y0197263D01*
X0362468Y0197309D01*
X0362401Y0197359D01*
X0362337Y0197412D01*
X0362275Y0197468D01*
X0362216Y0197527D01*
X0362160Y0197589D01*
X0362107Y0197653D01*
X0362057Y0197720D01*
X0362011Y0197789D01*
X0361967Y0197860D01*
X0361928Y0197933D01*
X0361891Y0198008D01*
X0361858Y0198085D01*
X0361829Y0198163D01*
X0361804Y0198242D01*
X0361782Y0198322D01*
X0361765Y0198404D01*
X0361751Y0198486D01*
X0361741Y0198569D01*
X0361735Y0198652D01*
X0361733Y0198735D01*
X0357733Y0218735D02*
X0357735Y0218818D01*
X0357741Y0218901D01*
X0357751Y0218984D01*
X0357765Y0219066D01*
X0357782Y0219148D01*
X0357804Y0219228D01*
X0357829Y0219307D01*
X0357858Y0219385D01*
X0357891Y0219462D01*
X0357928Y0219537D01*
X0357967Y0219610D01*
X0358011Y0219681D01*
X0358057Y0219750D01*
X0358107Y0219817D01*
X0358160Y0219881D01*
X0358216Y0219943D01*
X0358275Y0220002D01*
X0358337Y0220058D01*
X0358401Y0220111D01*
X0358468Y0220161D01*
X0358537Y0220207D01*
X0358608Y0220251D01*
X0358681Y0220290D01*
X0358756Y0220327D01*
X0358833Y0220360D01*
X0358911Y0220389D01*
X0358990Y0220414D01*
X0359070Y0220436D01*
X0359152Y0220453D01*
X0359234Y0220467D01*
X0359317Y0220477D01*
X0359400Y0220483D01*
X0359483Y0220485D01*
X0359566Y0220483D01*
X0359649Y0220477D01*
X0359732Y0220467D01*
X0359814Y0220453D01*
X0359896Y0220436D01*
X0359976Y0220414D01*
X0360055Y0220389D01*
X0360133Y0220360D01*
X0360210Y0220327D01*
X0360285Y0220290D01*
X0360358Y0220251D01*
X0360429Y0220207D01*
X0360498Y0220161D01*
X0360565Y0220111D01*
X0360629Y0220058D01*
X0360691Y0220002D01*
X0360750Y0219943D01*
X0360806Y0219881D01*
X0360859Y0219817D01*
X0360909Y0219750D01*
X0360955Y0219681D01*
X0360999Y0219610D01*
X0361038Y0219537D01*
X0361075Y0219462D01*
X0361108Y0219385D01*
X0361137Y0219307D01*
X0361162Y0219228D01*
X0361184Y0219148D01*
X0361201Y0219066D01*
X0361215Y0218984D01*
X0361225Y0218901D01*
X0361231Y0218818D01*
X0361233Y0218735D01*
X0361231Y0218652D01*
X0361225Y0218569D01*
X0361215Y0218486D01*
X0361201Y0218404D01*
X0361184Y0218322D01*
X0361162Y0218242D01*
X0361137Y0218163D01*
X0361108Y0218085D01*
X0361075Y0218008D01*
X0361038Y0217933D01*
X0360999Y0217860D01*
X0360955Y0217789D01*
X0360909Y0217720D01*
X0360859Y0217653D01*
X0360806Y0217589D01*
X0360750Y0217527D01*
X0360691Y0217468D01*
X0360629Y0217412D01*
X0360565Y0217359D01*
X0360498Y0217309D01*
X0360429Y0217263D01*
X0360358Y0217219D01*
X0360285Y0217180D01*
X0360210Y0217143D01*
X0360133Y0217110D01*
X0360055Y0217081D01*
X0359976Y0217056D01*
X0359896Y0217034D01*
X0359814Y0217017D01*
X0359732Y0217003D01*
X0359649Y0216993D01*
X0359566Y0216987D01*
X0359483Y0216985D01*
X0359400Y0216987D01*
X0359317Y0216993D01*
X0359234Y0217003D01*
X0359152Y0217017D01*
X0359070Y0217034D01*
X0358990Y0217056D01*
X0358911Y0217081D01*
X0358833Y0217110D01*
X0358756Y0217143D01*
X0358681Y0217180D01*
X0358608Y0217219D01*
X0358537Y0217263D01*
X0358468Y0217309D01*
X0358401Y0217359D01*
X0358337Y0217412D01*
X0358275Y0217468D01*
X0358216Y0217527D01*
X0358160Y0217589D01*
X0358107Y0217653D01*
X0358057Y0217720D01*
X0358011Y0217789D01*
X0357967Y0217860D01*
X0357928Y0217933D01*
X0357891Y0218008D01*
X0357858Y0218085D01*
X0357829Y0218163D01*
X0357804Y0218242D01*
X0357782Y0218322D01*
X0357765Y0218404D01*
X0357751Y0218486D01*
X0357741Y0218569D01*
X0357735Y0218652D01*
X0357733Y0218735D01*
X0367357Y0355546D02*
X0367359Y0355699D01*
X0367365Y0355853D01*
X0367375Y0356006D01*
X0367389Y0356158D01*
X0367407Y0356311D01*
X0367429Y0356462D01*
X0367454Y0356613D01*
X0367484Y0356764D01*
X0367518Y0356914D01*
X0367555Y0357062D01*
X0367596Y0357210D01*
X0367641Y0357356D01*
X0367690Y0357502D01*
X0367743Y0357646D01*
X0367799Y0357788D01*
X0367859Y0357929D01*
X0367923Y0358069D01*
X0367990Y0358207D01*
X0368061Y0358343D01*
X0368136Y0358477D01*
X0368213Y0358609D01*
X0368295Y0358739D01*
X0368379Y0358867D01*
X0368467Y0358993D01*
X0368558Y0359116D01*
X0368652Y0359237D01*
X0368750Y0359355D01*
X0368850Y0359471D01*
X0368954Y0359584D01*
X0369060Y0359695D01*
X0369169Y0359803D01*
X0369281Y0359908D01*
X0369395Y0360009D01*
X0369513Y0360108D01*
X0369632Y0360204D01*
X0369754Y0360297D01*
X0369879Y0360386D01*
X0370006Y0360473D01*
X0370135Y0360555D01*
X0370266Y0360635D01*
X0370399Y0360711D01*
X0370534Y0360784D01*
X0370671Y0360853D01*
X0370810Y0360918D01*
X0370950Y0360980D01*
X0371092Y0361038D01*
X0371235Y0361093D01*
X0371380Y0361144D01*
X0371526Y0361191D01*
X0371673Y0361234D01*
X0371821Y0361273D01*
X0371970Y0361309D01*
X0372120Y0361340D01*
X0372271Y0361368D01*
X0372422Y0361392D01*
X0372575Y0361412D01*
X0372727Y0361428D01*
X0372880Y0361440D01*
X0373033Y0361448D01*
X0373186Y0361452D01*
X0373340Y0361452D01*
X0373493Y0361448D01*
X0373646Y0361440D01*
X0373799Y0361428D01*
X0373951Y0361412D01*
X0374104Y0361392D01*
X0374255Y0361368D01*
X0374406Y0361340D01*
X0374556Y0361309D01*
X0374705Y0361273D01*
X0374853Y0361234D01*
X0375000Y0361191D01*
X0375146Y0361144D01*
X0375291Y0361093D01*
X0375434Y0361038D01*
X0375576Y0360980D01*
X0375716Y0360918D01*
X0375855Y0360853D01*
X0375992Y0360784D01*
X0376127Y0360711D01*
X0376260Y0360635D01*
X0376391Y0360555D01*
X0376520Y0360473D01*
X0376647Y0360386D01*
X0376772Y0360297D01*
X0376894Y0360204D01*
X0377013Y0360108D01*
X0377131Y0360009D01*
X0377245Y0359908D01*
X0377357Y0359803D01*
X0377466Y0359695D01*
X0377572Y0359584D01*
X0377676Y0359471D01*
X0377776Y0359355D01*
X0377874Y0359237D01*
X0377968Y0359116D01*
X0378059Y0358993D01*
X0378147Y0358867D01*
X0378231Y0358739D01*
X0378313Y0358609D01*
X0378390Y0358477D01*
X0378465Y0358343D01*
X0378536Y0358207D01*
X0378603Y0358069D01*
X0378667Y0357929D01*
X0378727Y0357788D01*
X0378783Y0357646D01*
X0378836Y0357502D01*
X0378885Y0357356D01*
X0378930Y0357210D01*
X0378971Y0357062D01*
X0379008Y0356914D01*
X0379042Y0356764D01*
X0379072Y0356613D01*
X0379097Y0356462D01*
X0379119Y0356311D01*
X0379137Y0356158D01*
X0379151Y0356006D01*
X0379161Y0355853D01*
X0379167Y0355699D01*
X0379169Y0355546D01*
X0379167Y0355393D01*
X0379161Y0355239D01*
X0379151Y0355086D01*
X0379137Y0354934D01*
X0379119Y0354781D01*
X0379097Y0354630D01*
X0379072Y0354479D01*
X0379042Y0354328D01*
X0379008Y0354178D01*
X0378971Y0354030D01*
X0378930Y0353882D01*
X0378885Y0353736D01*
X0378836Y0353590D01*
X0378783Y0353446D01*
X0378727Y0353304D01*
X0378667Y0353163D01*
X0378603Y0353023D01*
X0378536Y0352885D01*
X0378465Y0352749D01*
X0378390Y0352615D01*
X0378313Y0352483D01*
X0378231Y0352353D01*
X0378147Y0352225D01*
X0378059Y0352099D01*
X0377968Y0351976D01*
X0377874Y0351855D01*
X0377776Y0351737D01*
X0377676Y0351621D01*
X0377572Y0351508D01*
X0377466Y0351397D01*
X0377357Y0351289D01*
X0377245Y0351184D01*
X0377131Y0351083D01*
X0377013Y0350984D01*
X0376894Y0350888D01*
X0376772Y0350795D01*
X0376647Y0350706D01*
X0376520Y0350619D01*
X0376391Y0350537D01*
X0376260Y0350457D01*
X0376127Y0350381D01*
X0375992Y0350308D01*
X0375855Y0350239D01*
X0375716Y0350174D01*
X0375576Y0350112D01*
X0375434Y0350054D01*
X0375291Y0349999D01*
X0375146Y0349948D01*
X0375000Y0349901D01*
X0374853Y0349858D01*
X0374705Y0349819D01*
X0374556Y0349783D01*
X0374406Y0349752D01*
X0374255Y0349724D01*
X0374104Y0349700D01*
X0373951Y0349680D01*
X0373799Y0349664D01*
X0373646Y0349652D01*
X0373493Y0349644D01*
X0373340Y0349640D01*
X0373186Y0349640D01*
X0373033Y0349644D01*
X0372880Y0349652D01*
X0372727Y0349664D01*
X0372575Y0349680D01*
X0372422Y0349700D01*
X0372271Y0349724D01*
X0372120Y0349752D01*
X0371970Y0349783D01*
X0371821Y0349819D01*
X0371673Y0349858D01*
X0371526Y0349901D01*
X0371380Y0349948D01*
X0371235Y0349999D01*
X0371092Y0350054D01*
X0370950Y0350112D01*
X0370810Y0350174D01*
X0370671Y0350239D01*
X0370534Y0350308D01*
X0370399Y0350381D01*
X0370266Y0350457D01*
X0370135Y0350537D01*
X0370006Y0350619D01*
X0369879Y0350706D01*
X0369754Y0350795D01*
X0369632Y0350888D01*
X0369513Y0350984D01*
X0369395Y0351083D01*
X0369281Y0351184D01*
X0369169Y0351289D01*
X0369060Y0351397D01*
X0368954Y0351508D01*
X0368850Y0351621D01*
X0368750Y0351737D01*
X0368652Y0351855D01*
X0368558Y0351976D01*
X0368467Y0352099D01*
X0368379Y0352225D01*
X0368295Y0352353D01*
X0368213Y0352483D01*
X0368136Y0352615D01*
X0368061Y0352749D01*
X0367990Y0352885D01*
X0367923Y0353023D01*
X0367859Y0353163D01*
X0367799Y0353304D01*
X0367743Y0353446D01*
X0367690Y0353590D01*
X0367641Y0353736D01*
X0367596Y0353882D01*
X0367555Y0354030D01*
X0367518Y0354178D01*
X0367484Y0354328D01*
X0367454Y0354479D01*
X0367429Y0354630D01*
X0367407Y0354781D01*
X0367389Y0354934D01*
X0367375Y0355086D01*
X0367365Y0355239D01*
X0367359Y0355393D01*
X0367357Y0355546D01*
X0072081Y0355546D02*
X0072083Y0355699D01*
X0072089Y0355853D01*
X0072099Y0356006D01*
X0072113Y0356158D01*
X0072131Y0356311D01*
X0072153Y0356462D01*
X0072178Y0356613D01*
X0072208Y0356764D01*
X0072242Y0356914D01*
X0072279Y0357062D01*
X0072320Y0357210D01*
X0072365Y0357356D01*
X0072414Y0357502D01*
X0072467Y0357646D01*
X0072523Y0357788D01*
X0072583Y0357929D01*
X0072647Y0358069D01*
X0072714Y0358207D01*
X0072785Y0358343D01*
X0072860Y0358477D01*
X0072937Y0358609D01*
X0073019Y0358739D01*
X0073103Y0358867D01*
X0073191Y0358993D01*
X0073282Y0359116D01*
X0073376Y0359237D01*
X0073474Y0359355D01*
X0073574Y0359471D01*
X0073678Y0359584D01*
X0073784Y0359695D01*
X0073893Y0359803D01*
X0074005Y0359908D01*
X0074119Y0360009D01*
X0074237Y0360108D01*
X0074356Y0360204D01*
X0074478Y0360297D01*
X0074603Y0360386D01*
X0074730Y0360473D01*
X0074859Y0360555D01*
X0074990Y0360635D01*
X0075123Y0360711D01*
X0075258Y0360784D01*
X0075395Y0360853D01*
X0075534Y0360918D01*
X0075674Y0360980D01*
X0075816Y0361038D01*
X0075959Y0361093D01*
X0076104Y0361144D01*
X0076250Y0361191D01*
X0076397Y0361234D01*
X0076545Y0361273D01*
X0076694Y0361309D01*
X0076844Y0361340D01*
X0076995Y0361368D01*
X0077146Y0361392D01*
X0077299Y0361412D01*
X0077451Y0361428D01*
X0077604Y0361440D01*
X0077757Y0361448D01*
X0077910Y0361452D01*
X0078064Y0361452D01*
X0078217Y0361448D01*
X0078370Y0361440D01*
X0078523Y0361428D01*
X0078675Y0361412D01*
X0078828Y0361392D01*
X0078979Y0361368D01*
X0079130Y0361340D01*
X0079280Y0361309D01*
X0079429Y0361273D01*
X0079577Y0361234D01*
X0079724Y0361191D01*
X0079870Y0361144D01*
X0080015Y0361093D01*
X0080158Y0361038D01*
X0080300Y0360980D01*
X0080440Y0360918D01*
X0080579Y0360853D01*
X0080716Y0360784D01*
X0080851Y0360711D01*
X0080984Y0360635D01*
X0081115Y0360555D01*
X0081244Y0360473D01*
X0081371Y0360386D01*
X0081496Y0360297D01*
X0081618Y0360204D01*
X0081737Y0360108D01*
X0081855Y0360009D01*
X0081969Y0359908D01*
X0082081Y0359803D01*
X0082190Y0359695D01*
X0082296Y0359584D01*
X0082400Y0359471D01*
X0082500Y0359355D01*
X0082598Y0359237D01*
X0082692Y0359116D01*
X0082783Y0358993D01*
X0082871Y0358867D01*
X0082955Y0358739D01*
X0083037Y0358609D01*
X0083114Y0358477D01*
X0083189Y0358343D01*
X0083260Y0358207D01*
X0083327Y0358069D01*
X0083391Y0357929D01*
X0083451Y0357788D01*
X0083507Y0357646D01*
X0083560Y0357502D01*
X0083609Y0357356D01*
X0083654Y0357210D01*
X0083695Y0357062D01*
X0083732Y0356914D01*
X0083766Y0356764D01*
X0083796Y0356613D01*
X0083821Y0356462D01*
X0083843Y0356311D01*
X0083861Y0356158D01*
X0083875Y0356006D01*
X0083885Y0355853D01*
X0083891Y0355699D01*
X0083893Y0355546D01*
X0083891Y0355393D01*
X0083885Y0355239D01*
X0083875Y0355086D01*
X0083861Y0354934D01*
X0083843Y0354781D01*
X0083821Y0354630D01*
X0083796Y0354479D01*
X0083766Y0354328D01*
X0083732Y0354178D01*
X0083695Y0354030D01*
X0083654Y0353882D01*
X0083609Y0353736D01*
X0083560Y0353590D01*
X0083507Y0353446D01*
X0083451Y0353304D01*
X0083391Y0353163D01*
X0083327Y0353023D01*
X0083260Y0352885D01*
X0083189Y0352749D01*
X0083114Y0352615D01*
X0083037Y0352483D01*
X0082955Y0352353D01*
X0082871Y0352225D01*
X0082783Y0352099D01*
X0082692Y0351976D01*
X0082598Y0351855D01*
X0082500Y0351737D01*
X0082400Y0351621D01*
X0082296Y0351508D01*
X0082190Y0351397D01*
X0082081Y0351289D01*
X0081969Y0351184D01*
X0081855Y0351083D01*
X0081737Y0350984D01*
X0081618Y0350888D01*
X0081496Y0350795D01*
X0081371Y0350706D01*
X0081244Y0350619D01*
X0081115Y0350537D01*
X0080984Y0350457D01*
X0080851Y0350381D01*
X0080716Y0350308D01*
X0080579Y0350239D01*
X0080440Y0350174D01*
X0080300Y0350112D01*
X0080158Y0350054D01*
X0080015Y0349999D01*
X0079870Y0349948D01*
X0079724Y0349901D01*
X0079577Y0349858D01*
X0079429Y0349819D01*
X0079280Y0349783D01*
X0079130Y0349752D01*
X0078979Y0349724D01*
X0078828Y0349700D01*
X0078675Y0349680D01*
X0078523Y0349664D01*
X0078370Y0349652D01*
X0078217Y0349644D01*
X0078064Y0349640D01*
X0077910Y0349640D01*
X0077757Y0349644D01*
X0077604Y0349652D01*
X0077451Y0349664D01*
X0077299Y0349680D01*
X0077146Y0349700D01*
X0076995Y0349724D01*
X0076844Y0349752D01*
X0076694Y0349783D01*
X0076545Y0349819D01*
X0076397Y0349858D01*
X0076250Y0349901D01*
X0076104Y0349948D01*
X0075959Y0349999D01*
X0075816Y0350054D01*
X0075674Y0350112D01*
X0075534Y0350174D01*
X0075395Y0350239D01*
X0075258Y0350308D01*
X0075123Y0350381D01*
X0074990Y0350457D01*
X0074859Y0350537D01*
X0074730Y0350619D01*
X0074603Y0350706D01*
X0074478Y0350795D01*
X0074356Y0350888D01*
X0074237Y0350984D01*
X0074119Y0351083D01*
X0074005Y0351184D01*
X0073893Y0351289D01*
X0073784Y0351397D01*
X0073678Y0351508D01*
X0073574Y0351621D01*
X0073474Y0351737D01*
X0073376Y0351855D01*
X0073282Y0351976D01*
X0073191Y0352099D01*
X0073103Y0352225D01*
X0073019Y0352353D01*
X0072937Y0352483D01*
X0072860Y0352615D01*
X0072785Y0352749D01*
X0072714Y0352885D01*
X0072647Y0353023D01*
X0072583Y0353163D01*
X0072523Y0353304D01*
X0072467Y0353446D01*
X0072414Y0353590D01*
X0072365Y0353736D01*
X0072320Y0353882D01*
X0072279Y0354030D01*
X0072242Y0354178D01*
X0072208Y0354328D01*
X0072178Y0354479D01*
X0072153Y0354630D01*
X0072131Y0354781D01*
X0072113Y0354934D01*
X0072099Y0355086D01*
X0072089Y0355239D01*
X0072083Y0355393D01*
X0072081Y0355546D01*
X0367357Y0060271D02*
X0367359Y0060424D01*
X0367365Y0060578D01*
X0367375Y0060731D01*
X0367389Y0060883D01*
X0367407Y0061036D01*
X0367429Y0061187D01*
X0367454Y0061338D01*
X0367484Y0061489D01*
X0367518Y0061639D01*
X0367555Y0061787D01*
X0367596Y0061935D01*
X0367641Y0062081D01*
X0367690Y0062227D01*
X0367743Y0062371D01*
X0367799Y0062513D01*
X0367859Y0062654D01*
X0367923Y0062794D01*
X0367990Y0062932D01*
X0368061Y0063068D01*
X0368136Y0063202D01*
X0368213Y0063334D01*
X0368295Y0063464D01*
X0368379Y0063592D01*
X0368467Y0063718D01*
X0368558Y0063841D01*
X0368652Y0063962D01*
X0368750Y0064080D01*
X0368850Y0064196D01*
X0368954Y0064309D01*
X0369060Y0064420D01*
X0369169Y0064528D01*
X0369281Y0064633D01*
X0369395Y0064734D01*
X0369513Y0064833D01*
X0369632Y0064929D01*
X0369754Y0065022D01*
X0369879Y0065111D01*
X0370006Y0065198D01*
X0370135Y0065280D01*
X0370266Y0065360D01*
X0370399Y0065436D01*
X0370534Y0065509D01*
X0370671Y0065578D01*
X0370810Y0065643D01*
X0370950Y0065705D01*
X0371092Y0065763D01*
X0371235Y0065818D01*
X0371380Y0065869D01*
X0371526Y0065916D01*
X0371673Y0065959D01*
X0371821Y0065998D01*
X0371970Y0066034D01*
X0372120Y0066065D01*
X0372271Y0066093D01*
X0372422Y0066117D01*
X0372575Y0066137D01*
X0372727Y0066153D01*
X0372880Y0066165D01*
X0373033Y0066173D01*
X0373186Y0066177D01*
X0373340Y0066177D01*
X0373493Y0066173D01*
X0373646Y0066165D01*
X0373799Y0066153D01*
X0373951Y0066137D01*
X0374104Y0066117D01*
X0374255Y0066093D01*
X0374406Y0066065D01*
X0374556Y0066034D01*
X0374705Y0065998D01*
X0374853Y0065959D01*
X0375000Y0065916D01*
X0375146Y0065869D01*
X0375291Y0065818D01*
X0375434Y0065763D01*
X0375576Y0065705D01*
X0375716Y0065643D01*
X0375855Y0065578D01*
X0375992Y0065509D01*
X0376127Y0065436D01*
X0376260Y0065360D01*
X0376391Y0065280D01*
X0376520Y0065198D01*
X0376647Y0065111D01*
X0376772Y0065022D01*
X0376894Y0064929D01*
X0377013Y0064833D01*
X0377131Y0064734D01*
X0377245Y0064633D01*
X0377357Y0064528D01*
X0377466Y0064420D01*
X0377572Y0064309D01*
X0377676Y0064196D01*
X0377776Y0064080D01*
X0377874Y0063962D01*
X0377968Y0063841D01*
X0378059Y0063718D01*
X0378147Y0063592D01*
X0378231Y0063464D01*
X0378313Y0063334D01*
X0378390Y0063202D01*
X0378465Y0063068D01*
X0378536Y0062932D01*
X0378603Y0062794D01*
X0378667Y0062654D01*
X0378727Y0062513D01*
X0378783Y0062371D01*
X0378836Y0062227D01*
X0378885Y0062081D01*
X0378930Y0061935D01*
X0378971Y0061787D01*
X0379008Y0061639D01*
X0379042Y0061489D01*
X0379072Y0061338D01*
X0379097Y0061187D01*
X0379119Y0061036D01*
X0379137Y0060883D01*
X0379151Y0060731D01*
X0379161Y0060578D01*
X0379167Y0060424D01*
X0379169Y0060271D01*
X0379167Y0060118D01*
X0379161Y0059964D01*
X0379151Y0059811D01*
X0379137Y0059659D01*
X0379119Y0059506D01*
X0379097Y0059355D01*
X0379072Y0059204D01*
X0379042Y0059053D01*
X0379008Y0058903D01*
X0378971Y0058755D01*
X0378930Y0058607D01*
X0378885Y0058461D01*
X0378836Y0058315D01*
X0378783Y0058171D01*
X0378727Y0058029D01*
X0378667Y0057888D01*
X0378603Y0057748D01*
X0378536Y0057610D01*
X0378465Y0057474D01*
X0378390Y0057340D01*
X0378313Y0057208D01*
X0378231Y0057078D01*
X0378147Y0056950D01*
X0378059Y0056824D01*
X0377968Y0056701D01*
X0377874Y0056580D01*
X0377776Y0056462D01*
X0377676Y0056346D01*
X0377572Y0056233D01*
X0377466Y0056122D01*
X0377357Y0056014D01*
X0377245Y0055909D01*
X0377131Y0055808D01*
X0377013Y0055709D01*
X0376894Y0055613D01*
X0376772Y0055520D01*
X0376647Y0055431D01*
X0376520Y0055344D01*
X0376391Y0055262D01*
X0376260Y0055182D01*
X0376127Y0055106D01*
X0375992Y0055033D01*
X0375855Y0054964D01*
X0375716Y0054899D01*
X0375576Y0054837D01*
X0375434Y0054779D01*
X0375291Y0054724D01*
X0375146Y0054673D01*
X0375000Y0054626D01*
X0374853Y0054583D01*
X0374705Y0054544D01*
X0374556Y0054508D01*
X0374406Y0054477D01*
X0374255Y0054449D01*
X0374104Y0054425D01*
X0373951Y0054405D01*
X0373799Y0054389D01*
X0373646Y0054377D01*
X0373493Y0054369D01*
X0373340Y0054365D01*
X0373186Y0054365D01*
X0373033Y0054369D01*
X0372880Y0054377D01*
X0372727Y0054389D01*
X0372575Y0054405D01*
X0372422Y0054425D01*
X0372271Y0054449D01*
X0372120Y0054477D01*
X0371970Y0054508D01*
X0371821Y0054544D01*
X0371673Y0054583D01*
X0371526Y0054626D01*
X0371380Y0054673D01*
X0371235Y0054724D01*
X0371092Y0054779D01*
X0370950Y0054837D01*
X0370810Y0054899D01*
X0370671Y0054964D01*
X0370534Y0055033D01*
X0370399Y0055106D01*
X0370266Y0055182D01*
X0370135Y0055262D01*
X0370006Y0055344D01*
X0369879Y0055431D01*
X0369754Y0055520D01*
X0369632Y0055613D01*
X0369513Y0055709D01*
X0369395Y0055808D01*
X0369281Y0055909D01*
X0369169Y0056014D01*
X0369060Y0056122D01*
X0368954Y0056233D01*
X0368850Y0056346D01*
X0368750Y0056462D01*
X0368652Y0056580D01*
X0368558Y0056701D01*
X0368467Y0056824D01*
X0368379Y0056950D01*
X0368295Y0057078D01*
X0368213Y0057208D01*
X0368136Y0057340D01*
X0368061Y0057474D01*
X0367990Y0057610D01*
X0367923Y0057748D01*
X0367859Y0057888D01*
X0367799Y0058029D01*
X0367743Y0058171D01*
X0367690Y0058315D01*
X0367641Y0058461D01*
X0367596Y0058607D01*
X0367555Y0058755D01*
X0367518Y0058903D01*
X0367484Y0059053D01*
X0367454Y0059204D01*
X0367429Y0059355D01*
X0367407Y0059506D01*
X0367389Y0059659D01*
X0367375Y0059811D01*
X0367365Y0059964D01*
X0367359Y0060118D01*
X0367357Y0060271D01*
D11*
X0236649Y0190704D03*
X0234680Y0190704D03*
X0232712Y0190704D03*
X0230743Y0190704D03*
X0228775Y0190704D03*
X0226806Y0190704D03*
X0224838Y0190704D03*
X0222869Y0190704D03*
X0220901Y0190704D03*
X0218932Y0190704D03*
X0216964Y0190704D03*
X0214995Y0190704D03*
X0214995Y0224169D03*
X0216964Y0224169D03*
X0218932Y0224169D03*
X0220901Y0224169D03*
X0222869Y0224169D03*
X0224838Y0224169D03*
X0226806Y0224169D03*
X0228775Y0224169D03*
X0230743Y0224169D03*
X0232712Y0224169D03*
X0234680Y0224169D03*
X0236649Y0224169D03*
D12*
X0242554Y0218263D03*
X0242554Y0216294D03*
X0242554Y0214326D03*
X0242554Y0212357D03*
X0242554Y0210389D03*
X0242554Y0208420D03*
X0242554Y0206452D03*
X0242554Y0204483D03*
X0242554Y0202515D03*
X0242554Y0200546D03*
X0242554Y0198578D03*
X0242554Y0196609D03*
X0209090Y0196609D03*
X0209090Y0198578D03*
X0209090Y0200546D03*
X0209090Y0202515D03*
X0209090Y0204483D03*
X0209090Y0206452D03*
X0209090Y0208420D03*
X0209090Y0210389D03*
X0209090Y0212357D03*
X0209090Y0214326D03*
X0209090Y0216294D03*
X0209090Y0218263D03*
D13*
X0206019Y0232515D03*
X0196019Y0232515D03*
X0156806Y0232515D03*
X0146806Y0232515D03*
X0107594Y0232515D03*
X0097594Y0232515D03*
X0058381Y0232515D03*
X0048381Y0232515D03*
X0048381Y0281728D03*
X0058381Y0281728D03*
X0097594Y0281728D03*
X0107594Y0281728D03*
X0146806Y0281728D03*
X0156806Y0281728D03*
X0196019Y0281728D03*
X0206019Y0281728D03*
X0245231Y0281728D03*
X0255231Y0281728D03*
X0294444Y0281728D03*
X0304444Y0281728D03*
X0319129Y0310334D03*
X0304444Y0330940D03*
X0294444Y0330940D03*
X0255231Y0330940D03*
X0245231Y0330940D03*
X0206019Y0330940D03*
X0196019Y0330940D03*
X0156806Y0330940D03*
X0146806Y0330940D03*
X0107594Y0330940D03*
X0097594Y0330940D03*
X0058381Y0330940D03*
X0048381Y0330940D03*
X0048381Y0380153D03*
X0058381Y0380153D03*
X0097594Y0380153D03*
X0107594Y0380153D03*
X0146806Y0380153D03*
X0156806Y0380153D03*
X0196019Y0380153D03*
X0206019Y0380153D03*
X0245231Y0380153D03*
X0255231Y0380153D03*
X0294444Y0380153D03*
X0304444Y0380153D03*
X0343657Y0380153D03*
X0353657Y0380153D03*
X0392869Y0380153D03*
X0402869Y0380153D03*
X0402869Y0330940D03*
X0392869Y0330940D03*
X0353657Y0330940D03*
X0343657Y0330940D03*
X0343657Y0281728D03*
X0353657Y0281728D03*
X0351609Y0267121D03*
X0351609Y0247121D03*
X0353657Y0232515D03*
X0343657Y0232515D03*
X0379169Y0246137D03*
X0392869Y0232515D03*
X0402869Y0232515D03*
X0379169Y0266137D03*
X0392869Y0281728D03*
X0402869Y0281728D03*
X0304444Y0232515D03*
X0294444Y0232515D03*
X0255231Y0232515D03*
X0245231Y0232515D03*
X0245231Y0183302D03*
X0255231Y0183302D03*
X0294444Y0183302D03*
X0304444Y0183302D03*
X0343657Y0183302D03*
X0353657Y0183302D03*
X0392869Y0183302D03*
X0402869Y0183302D03*
X0402869Y0134090D03*
X0392869Y0134090D03*
X0353657Y0134090D03*
X0343657Y0134090D03*
X0304444Y0134090D03*
X0294444Y0134090D03*
X0264932Y0106531D03*
X0255231Y0084877D03*
X0245231Y0084877D03*
X0206019Y0084877D03*
X0196019Y0084877D03*
X0156806Y0084877D03*
X0146806Y0084877D03*
X0107594Y0084877D03*
X0097594Y0084877D03*
X0058381Y0084877D03*
X0048381Y0084877D03*
X0048381Y0035665D03*
X0058381Y0035665D03*
X0097594Y0035665D03*
X0107594Y0035665D03*
X0146806Y0035665D03*
X0156806Y0035665D03*
X0196019Y0035665D03*
X0206019Y0035665D03*
X0245231Y0035665D03*
X0255231Y0035665D03*
X0294444Y0035665D03*
X0304444Y0035665D03*
X0343657Y0035665D03*
X0353657Y0035665D03*
X0392869Y0035665D03*
X0402869Y0035665D03*
X0402869Y0084877D03*
X0392869Y0084877D03*
X0353657Y0084877D03*
X0343657Y0084877D03*
X0304444Y0084877D03*
X0294444Y0084877D03*
X0255231Y0134090D03*
X0245231Y0134090D03*
X0206019Y0134090D03*
X0196019Y0134090D03*
X0156806Y0134090D03*
X0146806Y0134090D03*
X0107594Y0134090D03*
X0097594Y0134090D03*
X0058381Y0134090D03*
X0048381Y0134090D03*
X0048381Y0183302D03*
X0058381Y0183302D03*
X0097594Y0183302D03*
X0107594Y0183302D03*
X0146806Y0183302D03*
X0156806Y0183302D03*
X0196019Y0183302D03*
X0206019Y0183302D03*
D14*
X0267456Y0129070D03*
X0271196Y0120409D03*
X0263716Y0120409D03*
X0265822Y0085940D03*
X0262082Y0077279D03*
X0269562Y0077279D03*
X0279090Y0063302D03*
X0282830Y0054641D03*
X0275350Y0054641D03*
X0272476Y0158460D03*
X0279956Y0158460D03*
X0276216Y0167121D03*
X0332043Y0210625D03*
X0339523Y0210625D03*
X0335783Y0219287D03*
X0332515Y0256413D03*
X0325035Y0256413D03*
X0328775Y0265074D03*
X0330428Y0311531D03*
X0337909Y0311531D03*
X0334169Y0320192D03*
X0337791Y0361058D03*
X0345271Y0361058D03*
X0341531Y0369720D03*
X0266964Y0269326D03*
X0270704Y0260665D03*
X0263224Y0260665D03*
X0256924Y0260665D03*
X0249444Y0260665D03*
X0243145Y0260665D03*
X0235665Y0260665D03*
X0229365Y0260665D03*
X0221885Y0260665D03*
X0213617Y0260665D03*
X0206137Y0260665D03*
X0199838Y0260665D03*
X0192357Y0260665D03*
X0186058Y0260665D03*
X0178578Y0260665D03*
X0172279Y0260665D03*
X0164798Y0260665D03*
X0168539Y0269326D03*
X0182318Y0269326D03*
X0196098Y0269326D03*
X0209877Y0269326D03*
X0225625Y0269326D03*
X0239405Y0269326D03*
X0253184Y0269326D03*
D15*
X0376669Y0217515D03*
X0376669Y0212515D03*
X0376669Y0207515D03*
X0376669Y0202515D03*
X0376669Y0197515D03*
X0381669Y0197515D03*
X0381669Y0202515D03*
X0381669Y0207515D03*
X0381669Y0212515D03*
X0381669Y0217515D03*
D16*
X0335074Y0272869D03*
X0328775Y0272869D03*
X0327791Y0327987D03*
X0334090Y0327987D03*
X0335074Y0377200D03*
X0328775Y0377200D03*
X0257318Y0244818D03*
X0251019Y0244818D03*
X0245507Y0241865D03*
X0239208Y0241865D03*
X0259385Y0224149D03*
X0265684Y0224149D03*
X0265684Y0217259D03*
X0265684Y0211354D03*
X0259385Y0211354D03*
X0259385Y0217259D03*
X0273165Y0217259D03*
X0273165Y0211354D03*
X0279464Y0211354D03*
X0279464Y0217259D03*
X0269129Y0170507D03*
X0262830Y0170507D03*
X0182515Y0194129D03*
X0182515Y0200035D03*
X0176216Y0200035D03*
X0176216Y0194129D03*
X0176216Y0205940D03*
X0176216Y0211846D03*
X0176216Y0217751D03*
X0182515Y0217751D03*
X0182515Y0211846D03*
X0182515Y0205940D03*
X0182515Y0223657D03*
X0176216Y0223657D03*
X0276117Y0046491D03*
X0282417Y0046491D03*
X0380448Y0140487D03*
X0386747Y0140487D03*
D17*
X0330940Y0225428D03*
X0330940Y0231728D03*
X0233499Y0235763D03*
X0233499Y0242062D03*
X0224149Y0240094D03*
X0224149Y0233794D03*
X0221688Y0166767D03*
X0227594Y0166767D03*
X0227594Y0160468D03*
X0221688Y0160468D03*
X0214798Y0160468D03*
X0208893Y0160468D03*
X0208893Y0166767D03*
X0214798Y0166767D03*
X0202003Y0166767D03*
X0202003Y0160468D03*
X0196098Y0160468D03*
X0196098Y0166767D03*
X0276314Y0135763D03*
X0276314Y0129464D03*
X0277791Y0089995D03*
X0277791Y0083696D03*
D18*
X0260684Y0066176D03*
X0250684Y0066176D03*
X0240684Y0066176D03*
X0230684Y0066176D03*
X0220684Y0066176D03*
X0210684Y0066176D03*
X0200684Y0066176D03*
X0190684Y0066176D03*
X0083893Y0172850D03*
X0083893Y0182850D03*
X0083893Y0192850D03*
X0083893Y0202850D03*
X0083893Y0212850D03*
X0083893Y0222850D03*
X0083893Y0232850D03*
X0083893Y0242850D03*
X0190684Y0396885D03*
X0200684Y0396885D03*
X0210684Y0396885D03*
X0220684Y0396885D03*
X0230684Y0396885D03*
X0240684Y0396885D03*
X0250684Y0396885D03*
X0260684Y0396885D03*
X0414602Y0242850D03*
X0414602Y0232850D03*
X0414602Y0222850D03*
X0414602Y0212850D03*
X0414602Y0202850D03*
X0414602Y0192850D03*
X0414602Y0182850D03*
X0414602Y0172850D03*
X0387200Y0154759D03*
X0377200Y0154759D03*
X0358302Y0154759D03*
X0348302Y0154759D03*
X0338302Y0154759D03*
X0328302Y0154759D03*
X0318302Y0154759D03*
X0308302Y0154759D03*
D19*
X0272932Y0106531D03*
X0319129Y0302334D03*
D20*
X0319129Y0228676D03*
X0325035Y0228676D03*
X0325035Y0218637D03*
X0319129Y0218637D03*
X0279267Y0151413D03*
X0273361Y0151413D03*
X0273361Y0141373D03*
X0279267Y0141373D03*
D21*
X0279267Y0144818D03*
X0279267Y0147968D03*
X0273361Y0147968D03*
X0273361Y0144818D03*
X0319129Y0222082D03*
X0319129Y0225231D03*
X0325035Y0225231D03*
X0325035Y0222082D03*
D22*
X0364757Y0247121D02*
X0369957Y0247121D01*
X0369957Y0257121D02*
X0364757Y0257121D01*
X0364757Y0267121D02*
X0369957Y0267121D01*
D23*
X0295507Y0216298D02*
X0295507Y0213298D01*
X0287633Y0213298D02*
X0287633Y0216298D01*
D24*
X0287633Y0216798D03*
X0287633Y0212798D03*
X0295507Y0212798D03*
X0295507Y0216798D03*
D25*
X0356983Y0213735D03*
X0361983Y0213735D03*
X0361983Y0208735D03*
X0356983Y0208735D03*
X0356983Y0203735D03*
X0361983Y0203735D03*
D26*
X0343657Y0204956D02*
X0343657Y0232515D01*
X0343657Y0241452D01*
X0343735Y0241373D01*
X0343657Y0241452D02*
X0343657Y0281728D01*
X0339798Y0276806D02*
X0339798Y0257121D01*
X0339798Y0255153D01*
X0338539Y0256413D01*
X0332515Y0256413D01*
X0339798Y0255153D02*
X0339798Y0235468D01*
X0338814Y0234483D01*
X0338814Y0229562D01*
X0339798Y0228578D01*
X0339798Y0215783D01*
X0339798Y0210901D01*
X0339523Y0210625D01*
X0343657Y0204956D02*
X0343657Y0183302D01*
X0338322Y0178381D02*
X0308302Y0178381D01*
X0304444Y0182239D01*
X0304444Y0183302D01*
X0296491Y0179857D02*
X0296491Y0136137D01*
X0294444Y0134090D01*
X0294444Y0084877D01*
X0294444Y0035665D01*
X0289602Y0030743D02*
X0303539Y0030743D01*
X0304444Y0031649D01*
X0305350Y0030743D01*
X0348735Y0030743D01*
X0353657Y0035665D01*
X0353657Y0035586D01*
X0358499Y0030743D01*
X0397948Y0030743D01*
X0402869Y0035665D01*
X0392869Y0035665D02*
X0392869Y0084877D01*
X0392869Y0134090D01*
X0393987Y0135207D01*
X0394783Y0135207D01*
X0397869Y0138293D01*
X0397869Y0167554D01*
X0392948Y0172476D01*
X0392948Y0174444D01*
X0396885Y0178381D02*
X0383106Y0178381D01*
X0373263Y0168539D01*
X0347672Y0168539D01*
X0343735Y0168539D02*
X0343243Y0167554D01*
X0343243Y0158813D01*
X0343329Y0158728D01*
X0343735Y0150822D02*
X0343735Y0134169D01*
X0343657Y0134090D01*
X0343657Y0084877D01*
X0343657Y0035665D01*
X0304444Y0035665D02*
X0304444Y0031649D01*
X0289602Y0030743D02*
X0271885Y0030743D01*
X0271885Y0037633D01*
X0271885Y0042554D01*
X0275822Y0046491D01*
X0276117Y0046491D01*
X0282830Y0054641D02*
X0286924Y0054641D01*
X0288617Y0056334D01*
X0288617Y0040586D01*
X0286649Y0038617D01*
X0286649Y0034680D01*
X0286767Y0034798D01*
X0288617Y0056334D02*
X0288617Y0075035D01*
X0271806Y0075035D01*
X0269562Y0077279D01*
X0272869Y0083893D02*
X0270822Y0085940D01*
X0265822Y0085940D01*
X0259090Y0086846D02*
X0259090Y0089798D01*
X0261058Y0091767D01*
X0276019Y0091767D01*
X0277791Y0089995D01*
X0277987Y0089798D01*
X0280743Y0089798D01*
X0285665Y0084877D01*
X0286649Y0083893D01*
X0286649Y0080940D01*
X0287633Y0079956D01*
X0288617Y0079956D01*
X0286649Y0090291D02*
X0286649Y0093735D01*
X0285665Y0092751D01*
X0285665Y0103578D01*
X0282712Y0106531D01*
X0272932Y0106531D01*
X0286649Y0105546D02*
X0286649Y0125231D01*
X0275822Y0125231D01*
X0276314Y0129464D02*
X0268834Y0129464D01*
X0267456Y0129070D01*
X0273854Y0135074D02*
X0274543Y0135763D01*
X0276314Y0135763D01*
X0279562Y0135763D01*
X0286157Y0129169D01*
X0286255Y0122869D02*
X0286649Y0104759D01*
X0286649Y0093735D01*
X0277594Y0083893D02*
X0277791Y0083696D01*
X0277594Y0083893D02*
X0272869Y0083893D01*
X0259090Y0086846D02*
X0257121Y0084877D01*
X0255231Y0084877D01*
X0241373Y0081432D02*
X0241373Y0075035D01*
X0233499Y0067161D01*
X0231531Y0067161D01*
X0230546Y0066176D01*
X0221688Y0055350D02*
X0204956Y0055350D01*
X0201019Y0051413D01*
X0201019Y0025822D01*
X0206019Y0035665D02*
X0210940Y0030743D01*
X0250310Y0030743D01*
X0255231Y0035665D01*
X0237436Y0079956D02*
X0232515Y0084877D01*
X0206019Y0084877D01*
X0206019Y0081019D01*
X0203972Y0078972D01*
X0159680Y0078972D01*
X0156728Y0081924D01*
X0156728Y0084798D01*
X0156806Y0084877D01*
X0146806Y0084877D02*
X0146806Y0134090D01*
X0146806Y0167476D01*
X0146885Y0168539D01*
X0150822Y0169523D02*
X0150822Y0144917D01*
X0156235Y0139503D01*
X0157712Y0139503D01*
X0166078Y0139011D02*
X0208893Y0139011D01*
X0209877Y0138027D01*
X0238913Y0138027D01*
X0240389Y0136550D01*
X0236452Y0134090D02*
X0241373Y0129169D01*
X0241373Y0123263D02*
X0234483Y0130153D01*
X0208893Y0130153D01*
X0207909Y0129169D01*
X0207417Y0129169D01*
X0203972Y0125724D01*
X0192653Y0125724D01*
X0187239Y0131137D01*
X0187239Y0131629D01*
X0191176Y0132121D02*
X0194129Y0129169D01*
X0201098Y0129169D01*
X0206019Y0134090D01*
X0236452Y0134090D01*
X0241373Y0123263D02*
X0244326Y0121294D01*
X0241373Y0118342D01*
X0241373Y0088814D01*
X0240389Y0087830D01*
X0240389Y0082417D01*
X0241373Y0081432D01*
X0286649Y0105546D02*
X0286255Y0122869D01*
X0273854Y0135074D02*
X0256216Y0135074D01*
X0255231Y0134090D01*
X0259090Y0147377D02*
X0259090Y0159680D01*
X0253184Y0165586D01*
X0253184Y0167554D01*
X0260074Y0167554D01*
X0262830Y0170310D01*
X0262830Y0170507D01*
X0269129Y0170507D02*
X0272515Y0167121D01*
X0276216Y0167121D01*
X0279956Y0158460D02*
X0284936Y0153539D01*
X0285665Y0152791D01*
X0285665Y0141964D01*
X0304444Y0134090D02*
X0331924Y0134090D01*
X0335861Y0130153D01*
X0353657Y0134090D02*
X0382121Y0134090D01*
X0388027Y0128184D01*
X0384090Y0084877D02*
X0353657Y0084877D01*
X0339798Y0080940D02*
X0335861Y0084877D01*
X0304444Y0084877D01*
X0384090Y0084877D02*
X0389011Y0079956D01*
X0396885Y0178381D02*
X0401806Y0183302D01*
X0402869Y0183302D01*
X0398854Y0189287D02*
X0392869Y0183302D01*
X0398854Y0189287D02*
X0398854Y0216275D01*
X0397948Y0227594D02*
X0390980Y0227594D01*
X0386058Y0232515D01*
X0353657Y0232515D01*
X0333893Y0231531D02*
X0332909Y0232515D01*
X0330940Y0232515D01*
X0304444Y0232515D01*
X0299444Y0230054D02*
X0304365Y0225133D01*
X0304365Y0209877D01*
X0298460Y0203972D01*
X0298460Y0197082D01*
X0295507Y0194129D02*
X0295507Y0184365D01*
X0294444Y0183302D01*
X0294444Y0181905D01*
X0296491Y0179857D01*
X0295507Y0194129D02*
X0294523Y0195113D01*
X0294523Y0204956D01*
X0300428Y0210861D01*
X0300428Y0223657D01*
X0294444Y0229641D01*
X0294444Y0225625D01*
X0294444Y0229641D02*
X0294444Y0232515D01*
X0289602Y0232515D02*
X0289602Y0229562D01*
X0290586Y0228578D01*
X0289602Y0232515D02*
X0289602Y0234483D01*
X0291570Y0236452D01*
X0291570Y0265980D01*
X0292554Y0266964D01*
X0292554Y0276806D02*
X0286649Y0282712D01*
X0256216Y0282712D01*
X0255231Y0281728D01*
X0245231Y0281728D02*
X0245231Y0280822D01*
X0245310Y0295015D02*
X0245231Y0298539D01*
X0245231Y0330940D01*
X0245231Y0380153D01*
X0241373Y0377200D02*
X0238420Y0380153D01*
X0206019Y0380153D01*
X0196019Y0380153D02*
X0196019Y0330940D01*
X0195606Y0330527D01*
X0195606Y0294523D01*
X0197082Y0293046D01*
X0197082Y0283204D01*
X0196019Y0282141D01*
X0196019Y0281728D01*
X0203972Y0273775D01*
X0203972Y0268932D01*
X0203972Y0266964D01*
X0199838Y0260665D02*
X0199838Y0257810D01*
X0201511Y0256137D01*
X0197082Y0251708D02*
X0194129Y0254661D01*
X0197082Y0251708D02*
X0197082Y0233499D01*
X0196019Y0232594D01*
X0196019Y0232515D01*
X0196019Y0231609D01*
X0206019Y0232515D02*
X0206019Y0244405D01*
X0217751Y0256137D01*
X0213617Y0256924D02*
X0213617Y0260665D01*
X0213617Y0256924D02*
X0210861Y0255153D01*
X0229365Y0260665D02*
X0229365Y0263814D01*
X0230546Y0264995D01*
X0243145Y0262830D02*
X0244326Y0264995D01*
X0243145Y0262830D02*
X0243145Y0260665D01*
X0256924Y0260665D02*
X0256924Y0263814D01*
X0259090Y0264995D01*
X0270704Y0260665D02*
X0270704Y0259877D01*
X0271885Y0264995D01*
X0292554Y0276806D02*
X0299444Y0276806D01*
X0303381Y0280743D01*
X0303381Y0281728D01*
X0304444Y0281728D01*
X0304444Y0281806D01*
X0305350Y0282712D01*
X0332909Y0282712D01*
X0334877Y0280743D01*
X0334877Y0279267D01*
X0334877Y0273066D01*
X0335074Y0272869D01*
X0328775Y0272869D02*
X0328775Y0265074D01*
X0347672Y0257121D02*
X0367357Y0257121D01*
X0375231Y0257121D01*
X0378184Y0260074D01*
X0378184Y0265153D01*
X0379169Y0266137D01*
X0375231Y0270901D02*
X0387043Y0270901D01*
X0389011Y0272869D01*
X0389011Y0276806D02*
X0384090Y0281728D01*
X0353657Y0281728D01*
X0347672Y0290586D02*
X0388027Y0290586D01*
X0389011Y0291570D01*
X0392869Y0288617D02*
X0390901Y0286649D01*
X0286157Y0286649D01*
X0294444Y0294602D02*
X0294523Y0294523D01*
X0294444Y0294602D02*
X0294444Y0330940D01*
X0294444Y0380153D01*
X0291570Y0386058D02*
X0301413Y0386058D01*
X0304365Y0383106D01*
X0304365Y0380231D01*
X0304444Y0380153D01*
X0325822Y0380153D01*
X0326905Y0379070D01*
X0329956Y0382121D01*
X0336846Y0382121D01*
X0340783Y0386058D01*
X0349641Y0386058D01*
X0353657Y0382043D01*
X0353657Y0380153D01*
X0385074Y0380153D01*
X0390980Y0386058D01*
X0396964Y0386058D01*
X0402869Y0380153D01*
X0392869Y0380153D02*
X0392869Y0330940D01*
X0392869Y0288617D01*
X0392869Y0281728D01*
X0392948Y0281649D01*
X0392948Y0232594D01*
X0392869Y0232515D01*
X0397948Y0227594D02*
X0402869Y0232515D01*
X0371452Y0267121D02*
X0367357Y0267121D01*
X0351609Y0267121D01*
X0371452Y0267121D02*
X0375231Y0270901D01*
X0396885Y0291570D02*
X0396885Y0292554D01*
X0389011Y0326019D02*
X0384090Y0330940D01*
X0353657Y0330940D01*
X0343657Y0330940D02*
X0343657Y0292554D01*
X0343657Y0291491D01*
X0342751Y0290586D01*
X0339798Y0293539D02*
X0337909Y0295428D01*
X0337909Y0302397D01*
X0337846Y0302334D01*
X0337909Y0311531D02*
X0339798Y0313420D01*
X0339798Y0327003D01*
X0338814Y0327987D01*
X0338814Y0332909D01*
X0339798Y0333893D01*
X0339798Y0352594D01*
X0345704Y0358499D01*
X0345704Y0360625D01*
X0345271Y0361058D01*
X0350625Y0355546D02*
X0350625Y0373184D01*
X0343657Y0380153D01*
X0335074Y0377200D02*
X0335074Y0376176D01*
X0341531Y0369720D01*
X0328775Y0377200D02*
X0326905Y0379070D01*
X0350625Y0355546D02*
X0343657Y0348578D01*
X0343657Y0330940D01*
X0335861Y0335861D02*
X0333893Y0335861D01*
X0328972Y0330940D01*
X0324838Y0330940D01*
X0327791Y0327987D01*
X0324838Y0330940D02*
X0323066Y0330940D01*
X0304444Y0330940D01*
X0288617Y0327003D02*
X0288617Y0326019D01*
X0288617Y0327003D02*
X0284680Y0330940D01*
X0255231Y0330940D01*
X0241373Y0326019D02*
X0236452Y0330940D01*
X0206019Y0330940D01*
X0191669Y0326019D02*
X0186747Y0330940D01*
X0156806Y0330940D01*
X0146806Y0330940D02*
X0146806Y0281728D01*
X0140980Y0281728D02*
X0107594Y0281728D01*
X0097594Y0281728D02*
X0097594Y0330940D01*
X0097594Y0380153D01*
X0101688Y0386058D02*
X0092751Y0386058D01*
X0086846Y0380153D01*
X0058381Y0380153D01*
X0048381Y0380153D02*
X0048381Y0330940D01*
X0048381Y0281728D01*
X0049444Y0281728D01*
X0054365Y0276806D01*
X0049444Y0276806D01*
X0048460Y0275822D01*
X0048460Y0251216D01*
X0048460Y0232594D02*
X0048381Y0232515D01*
X0048381Y0183302D01*
X0043539Y0178381D02*
X0064208Y0178381D01*
X0068145Y0182318D01*
X0068145Y0198066D01*
X0072928Y0202850D01*
X0083893Y0202850D01*
X0097594Y0215704D02*
X0097594Y0188224D01*
X0097594Y0183302D01*
X0101609Y0179287D01*
X0101609Y0176413D01*
X0097594Y0172397D01*
X0097594Y0134090D01*
X0097594Y0084877D01*
X0097594Y0035665D01*
X0102672Y0030743D02*
X0151885Y0030743D01*
X0156806Y0035665D01*
X0176413Y0035665D01*
X0177397Y0034680D01*
X0178381Y0039602D02*
X0178381Y0065192D01*
X0184287Y0071098D01*
X0184287Y0082909D02*
X0185271Y0083893D01*
X0195035Y0083893D01*
X0196019Y0084877D01*
X0196019Y0120231D01*
X0196098Y0121787D01*
X0191176Y0132121D02*
X0191176Y0134582D01*
X0190192Y0135566D01*
X0169523Y0135566D01*
X0168046Y0134090D01*
X0166078Y0134090D01*
X0166078Y0138519D02*
X0166078Y0139011D01*
X0187239Y0149838D02*
X0187239Y0168539D01*
X0191176Y0168539D02*
X0191176Y0151806D01*
X0196098Y0146885D01*
X0196098Y0144917D01*
X0196098Y0145901D01*
X0192161Y0144917D02*
X0187239Y0149838D01*
X0153775Y0172476D02*
X0150822Y0169523D01*
X0153775Y0172476D02*
X0121294Y0172476D01*
X0110468Y0183302D01*
X0107594Y0183302D01*
X0097672Y0177889D02*
X0092751Y0177889D01*
X0090783Y0175920D01*
X0090783Y0167554D01*
X0084877Y0161649D01*
X0056334Y0161649D01*
X0048460Y0161649D02*
X0048381Y0161570D01*
X0048381Y0161649D01*
X0048381Y0161570D02*
X0048381Y0137043D01*
X0048381Y0134090D01*
X0048381Y0084877D01*
X0048381Y0035665D01*
X0058381Y0035665D02*
X0058381Y0033617D01*
X0061255Y0030743D01*
X0102672Y0030743D01*
X0107594Y0035665D01*
X0146806Y0035665D02*
X0146806Y0084877D01*
X0142948Y0079956D02*
X0111452Y0079956D01*
X0107594Y0083814D01*
X0107594Y0084877D01*
X0093735Y0079956D02*
X0062239Y0079956D01*
X0058381Y0083814D01*
X0058381Y0084877D01*
X0092751Y0129169D02*
X0087830Y0134090D01*
X0058381Y0134090D01*
X0107594Y0134090D02*
X0137043Y0134090D01*
X0141964Y0129169D01*
X0196019Y0084877D02*
X0196098Y0082830D01*
X0253184Y0167554D02*
X0253184Y0181255D01*
X0255231Y0183302D01*
X0256137Y0183302D01*
X0258106Y0181334D01*
X0274838Y0181334D01*
X0276806Y0179365D01*
X0278775Y0179365D01*
X0299444Y0230054D02*
X0299444Y0237436D01*
X0298460Y0238420D01*
X0298460Y0247279D01*
X0330940Y0225428D02*
X0330940Y0224129D01*
X0335783Y0219287D01*
X0323003Y0302334D02*
X0319129Y0302334D01*
X0323003Y0302334D02*
X0323066Y0302397D01*
X0334169Y0320192D02*
X0334169Y0327909D01*
X0334090Y0327987D01*
X0285665Y0380153D02*
X0286157Y0380645D01*
X0291570Y0386058D01*
X0285665Y0380153D02*
X0255231Y0380153D01*
X0241373Y0377200D02*
X0241373Y0376216D01*
X0192161Y0375231D02*
X0190684Y0376708D01*
X0172968Y0376708D01*
X0166570Y0383106D02*
X0163617Y0380153D01*
X0156806Y0380153D01*
X0151885Y0385074D01*
X0142948Y0385074D01*
X0138027Y0380153D01*
X0107594Y0380153D01*
X0101688Y0386058D01*
X0146806Y0380153D02*
X0146806Y0330940D01*
X0142948Y0326019D02*
X0138027Y0330940D01*
X0107594Y0330940D01*
X0093735Y0326019D02*
X0088814Y0330940D01*
X0058381Y0330940D01*
X0093735Y0285665D02*
X0089798Y0281728D01*
X0058381Y0281728D01*
X0054365Y0276806D02*
X0096688Y0276806D01*
X0097594Y0280822D02*
X0097594Y0281728D01*
X0095704Y0271885D02*
X0097594Y0269995D01*
X0097594Y0232515D01*
X0107594Y0232515D02*
X0111452Y0232515D01*
X0116373Y0227594D01*
X0148854Y0227594D01*
X0153775Y0232515D01*
X0156806Y0232515D01*
X0156806Y0232594D01*
X0157712Y0233499D01*
X0175920Y0233499D01*
X0179857Y0229562D01*
X0185763Y0255645D02*
X0186058Y0256924D01*
X0186058Y0260665D01*
X0172279Y0260665D02*
X0172279Y0257318D01*
X0172476Y0256137D01*
X0146885Y0264995D02*
X0146885Y0232594D01*
X0146806Y0232515D01*
X0146885Y0219720D02*
X0146806Y0218657D01*
X0146806Y0210861D01*
X0146806Y0183302D01*
X0097594Y0215704D02*
X0097672Y0217751D01*
X0156806Y0281728D02*
X0187731Y0281728D01*
X0193145Y0287141D01*
D27*
X0183302Y0271885D02*
X0182318Y0270901D01*
X0182318Y0269326D01*
X0178578Y0260665D02*
X0178578Y0244129D01*
X0192161Y0230546D01*
X0192161Y0225625D01*
X0196098Y0221688D01*
X0196098Y0217751D01*
X0201491Y0212357D01*
X0209090Y0212357D01*
X0209090Y0210389D02*
X0200507Y0210389D01*
X0194129Y0216767D01*
X0194129Y0220704D01*
X0190192Y0224641D01*
X0190192Y0229562D01*
X0179365Y0240389D01*
X0166570Y0240389D01*
X0163617Y0243342D01*
X0163617Y0259483D01*
X0164798Y0260665D01*
X0156728Y0261058D02*
X0156728Y0268932D01*
X0153775Y0265487D02*
X0153775Y0261550D01*
X0151806Y0259582D01*
X0151806Y0243342D01*
X0156728Y0238420D01*
X0178381Y0238420D01*
X0188224Y0228578D01*
X0188224Y0223657D01*
X0192161Y0219720D01*
X0192161Y0215783D01*
X0199523Y0208420D01*
X0209090Y0208420D01*
X0209090Y0206452D02*
X0196570Y0206452D01*
X0195113Y0207909D01*
X0191649Y0204483D02*
X0188224Y0207909D01*
X0188224Y0217751D01*
X0186255Y0219720D01*
X0186255Y0227594D01*
X0177397Y0236452D01*
X0155743Y0236452D01*
X0149838Y0242357D01*
X0149838Y0261058D01*
X0150822Y0262043D01*
X0150822Y0268932D01*
X0156728Y0261058D02*
X0153775Y0258106D01*
X0153775Y0244326D01*
X0156728Y0241373D01*
X0160665Y0241373D01*
X0153775Y0228578D02*
X0149838Y0224641D01*
X0093735Y0224641D01*
X0091944Y0222850D01*
X0083893Y0222850D01*
X0079956Y0217751D02*
X0077003Y0214798D01*
X0077003Y0209877D01*
X0078972Y0207909D01*
X0083893Y0212850D02*
X0087850Y0212850D01*
X0095704Y0220704D01*
X0138027Y0220704D01*
X0141964Y0216767D01*
X0141964Y0188224D01*
X0140487Y0186747D01*
X0140487Y0179365D01*
X0142456Y0177397D01*
X0166078Y0177397D01*
X0166570Y0177889D01*
X0188224Y0177889D01*
X0192653Y0173460D01*
X0207417Y0173460D01*
X0212830Y0178873D01*
X0212830Y0188224D01*
X0211846Y0189208D01*
X0211846Y0188716D01*
X0210861Y0186255D02*
X0210861Y0179857D01*
X0206432Y0175428D01*
X0193637Y0175428D01*
X0189208Y0179857D01*
X0165094Y0179857D01*
X0164602Y0180350D01*
X0163617Y0179365D01*
X0143440Y0179365D01*
X0142456Y0180350D01*
X0142456Y0185763D01*
X0143932Y0187239D01*
X0143932Y0222672D01*
X0094720Y0222672D01*
X0089798Y0217751D01*
X0087830Y0207909D02*
X0089798Y0205940D01*
X0089798Y0198755D01*
X0083893Y0192850D01*
X0097594Y0188224D02*
X0099562Y0190192D01*
X0108499Y0190192D01*
X0112436Y0186255D01*
X0112436Y0185271D01*
X0122279Y0175428D01*
X0187731Y0175428D01*
X0191669Y0171491D01*
X0195113Y0171491D01*
X0196098Y0170507D01*
X0196098Y0166767D01*
X0202003Y0166767D01*
X0202003Y0169031D01*
X0204464Y0171491D01*
X0209877Y0171491D01*
X0214995Y0176609D01*
X0214995Y0190704D01*
X0216964Y0190704D02*
X0216964Y0171491D01*
X0214798Y0169326D01*
X0214798Y0166767D01*
X0208893Y0166767D01*
X0208893Y0160468D02*
X0208893Y0156728D01*
X0205448Y0157220D02*
X0205448Y0146393D01*
X0201019Y0141964D01*
X0167062Y0141964D01*
X0166078Y0142948D01*
X0163125Y0141472D02*
X0156728Y0147869D01*
X0156728Y0167554D01*
X0157712Y0168539D01*
X0159680Y0168539D01*
X0162633Y0171491D01*
X0162633Y0172476D01*
X0158204Y0172476D02*
X0154759Y0169031D01*
X0154759Y0146885D01*
X0161157Y0140487D01*
X0161157Y0130645D01*
X0158696Y0128184D01*
X0152791Y0128184D01*
X0150822Y0126216D01*
X0150822Y0079956D01*
X0156728Y0074050D01*
X0207909Y0074050D01*
X0210861Y0071098D01*
X0210861Y0062417D01*
X0210684Y0066176D01*
X0221688Y0076019D02*
X0225625Y0072082D01*
X0225625Y0068145D01*
X0225625Y0063224D02*
X0228578Y0060271D01*
X0238420Y0060271D01*
X0240389Y0062239D01*
X0240389Y0061944D01*
X0240684Y0066176D01*
X0249247Y0080940D02*
X0257121Y0073066D01*
X0263027Y0073066D01*
X0273854Y0062239D01*
X0273854Y0056137D01*
X0275350Y0054641D01*
X0279090Y0049818D02*
X0282417Y0046491D01*
X0279090Y0049818D02*
X0279090Y0063302D01*
X0262082Y0077279D02*
X0258854Y0079956D01*
X0253184Y0079956D01*
X0251216Y0081924D01*
X0251216Y0152791D01*
X0250231Y0154759D01*
X0248263Y0152298D02*
X0248263Y0149838D01*
X0248263Y0152298D02*
X0237436Y0163125D01*
X0237436Y0165586D01*
X0222869Y0180153D01*
X0222869Y0190704D01*
X0220901Y0190704D02*
X0220901Y0179169D01*
X0235468Y0164602D01*
X0235468Y0161649D01*
X0239405Y0157712D01*
X0239405Y0151806D01*
X0242357Y0148854D01*
X0245310Y0148854D02*
X0245310Y0150822D01*
X0242357Y0153775D01*
X0245802Y0157712D02*
X0239897Y0163617D01*
X0239897Y0166078D01*
X0224838Y0181137D01*
X0224838Y0190704D01*
X0226806Y0190704D02*
X0226806Y0182121D01*
X0233499Y0175428D01*
X0236452Y0175428D01*
X0237928Y0178381D02*
X0233499Y0178381D01*
X0228775Y0183106D01*
X0228775Y0190704D01*
X0230743Y0190704D02*
X0230743Y0184090D01*
X0234483Y0180350D01*
X0240389Y0180350D01*
X0242357Y0178381D01*
X0241865Y0174444D02*
X0241865Y0165094D01*
X0245310Y0161649D01*
X0246294Y0161649D01*
X0247279Y0160665D01*
X0245802Y0157712D02*
X0252200Y0157712D01*
X0253184Y0156728D01*
X0253184Y0141964D01*
X0254661Y0140487D01*
X0254169Y0139995D01*
X0256137Y0139995D01*
X0258106Y0138027D01*
X0266964Y0138027D01*
X0270310Y0141373D01*
X0273361Y0141373D01*
X0273361Y0144818D02*
X0269818Y0144818D01*
X0266964Y0141964D01*
X0263027Y0141964D01*
X0262043Y0142948D01*
X0262043Y0152791D01*
X0263027Y0153775D01*
X0266570Y0151413D02*
X0264995Y0149838D01*
X0266570Y0151413D02*
X0273361Y0151413D01*
X0273361Y0157574D01*
X0272476Y0158460D01*
X0279267Y0157771D02*
X0279956Y0158460D01*
X0279267Y0157771D02*
X0279267Y0151413D01*
X0279267Y0147968D01*
X0279267Y0144818D01*
X0279267Y0141373D01*
X0286157Y0137535D02*
X0286157Y0129169D01*
X0288125Y0131629D02*
X0288125Y0136550D01*
X0291570Y0139995D01*
X0291570Y0176905D01*
X0287633Y0180842D01*
X0287633Y0187239D01*
X0275822Y0199050D01*
X0256137Y0199050D01*
X0248735Y0206452D01*
X0242554Y0206452D01*
X0242554Y0208420D02*
X0249720Y0208420D01*
X0257121Y0201019D01*
X0276806Y0201019D01*
X0289602Y0188224D01*
X0289602Y0181826D01*
X0293539Y0177889D01*
X0293539Y0139011D01*
X0290094Y0135566D01*
X0290094Y0132613D01*
X0291570Y0131137D01*
X0291570Y0087830D01*
X0290094Y0086354D01*
X0290094Y0083401D01*
X0291570Y0081924D01*
X0291570Y0039602D01*
X0289602Y0037633D01*
X0289602Y0030743D01*
X0272200Y0037948D02*
X0271885Y0037633D01*
X0249247Y0080940D02*
X0249247Y0143932D01*
X0247771Y0144917D01*
X0245310Y0148854D01*
X0241373Y0140980D02*
X0226609Y0140980D01*
X0217751Y0149838D01*
X0217751Y0157220D01*
X0218243Y0157712D01*
X0214798Y0156728D02*
X0214798Y0160468D01*
X0221688Y0160468D02*
X0221688Y0156728D01*
X0226609Y0156728D02*
X0227594Y0160468D01*
X0227594Y0166767D02*
X0221688Y0166767D01*
X0218932Y0169523D01*
X0218932Y0190704D01*
X0214306Y0195606D02*
X0211846Y0193145D01*
X0210861Y0193145D01*
X0208893Y0191176D01*
X0208893Y0188224D01*
X0210861Y0186255D01*
X0207102Y0194621D02*
X0202003Y0194621D01*
X0201019Y0195606D01*
X0198066Y0195606D01*
X0195113Y0198558D01*
X0188716Y0198558D01*
X0187239Y0200035D01*
X0182515Y0200035D01*
X0182515Y0194129D01*
X0176216Y0194129D02*
X0172476Y0194129D01*
X0172476Y0200035D02*
X0176216Y0200035D01*
X0182318Y0204956D02*
X0185271Y0204956D01*
X0189680Y0200546D01*
X0209090Y0200546D01*
X0209090Y0198578D02*
X0204483Y0198578D01*
X0203480Y0197574D01*
X0207102Y0194621D02*
X0209090Y0196609D01*
X0212357Y0196609D01*
X0213814Y0198066D02*
X0213814Y0217751D01*
X0215783Y0219720D01*
X0220704Y0219720D01*
X0220901Y0219917D01*
X0220901Y0224169D01*
X0222869Y0224169D02*
X0222869Y0219523D01*
X0223165Y0217751D01*
X0218735Y0214798D02*
X0217259Y0216275D01*
X0218735Y0214798D02*
X0230054Y0214798D01*
X0232712Y0217456D01*
X0232712Y0224169D01*
X0234680Y0224169D02*
X0234680Y0228775D01*
X0235468Y0229562D01*
X0239405Y0229562D01*
X0241373Y0227594D01*
X0247279Y0227594D01*
X0249247Y0229562D01*
X0249247Y0235468D01*
X0252200Y0238420D01*
X0258106Y0238420D01*
X0259582Y0236944D01*
X0282220Y0236944D01*
X0285665Y0240389D01*
X0287633Y0240389D01*
X0286157Y0236452D02*
X0284680Y0234976D01*
X0258598Y0234976D01*
X0257121Y0236452D01*
X0253184Y0236452D01*
X0251216Y0234483D01*
X0251216Y0227594D01*
X0249247Y0225625D01*
X0244326Y0225625D01*
X0240389Y0221688D01*
X0238893Y0218263D02*
X0236649Y0220507D01*
X0236649Y0224169D01*
X0230743Y0224169D02*
X0230743Y0227791D01*
X0232515Y0229562D01*
X0232515Y0234779D01*
X0233499Y0235763D01*
X0238420Y0235468D02*
X0238224Y0238617D01*
X0239208Y0241865D01*
X0233499Y0242062D02*
X0233499Y0244326D01*
X0234483Y0245310D01*
X0244326Y0245310D01*
X0248263Y0245310D01*
X0249247Y0246294D01*
X0250724Y0244818D01*
X0251019Y0244818D01*
X0249247Y0246294D02*
X0251708Y0248755D01*
X0277298Y0248755D01*
X0286649Y0258106D01*
X0286649Y0269917D01*
X0288617Y0271885D01*
X0284680Y0272869D02*
X0284680Y0273854D01*
X0284680Y0259090D01*
X0276314Y0250724D01*
X0250231Y0250724D01*
X0246787Y0247279D01*
X0231531Y0247279D01*
X0230054Y0245802D01*
X0230054Y0230546D01*
X0228775Y0229267D01*
X0228775Y0224169D01*
X0226806Y0224169D02*
X0226806Y0230251D01*
X0228086Y0231531D01*
X0228086Y0246787D01*
X0230546Y0249247D01*
X0245802Y0249247D01*
X0249247Y0252692D01*
X0275330Y0252692D01*
X0282712Y0260074D01*
X0282712Y0270901D01*
X0281728Y0271885D01*
X0281728Y0276806D01*
X0266964Y0269326D02*
X0263617Y0269326D01*
X0259090Y0273854D01*
X0252200Y0273854D01*
X0249247Y0276806D01*
X0249247Y0273854D02*
X0251216Y0271885D01*
X0252594Y0269917D01*
X0253184Y0269326D01*
X0249444Y0260665D02*
X0247476Y0258696D01*
X0247476Y0257318D01*
X0244326Y0254169D01*
X0225625Y0254169D01*
X0216964Y0245507D01*
X0216964Y0224169D01*
X0218932Y0224169D02*
X0218932Y0244523D01*
X0226609Y0252200D01*
X0245310Y0252200D01*
X0249247Y0256137D01*
X0262043Y0256137D01*
X0263027Y0257121D01*
X0263027Y0260468D01*
X0263224Y0260665D01*
X0261550Y0245310D02*
X0262239Y0245113D01*
X0257318Y0244818D01*
X0245507Y0241865D02*
X0244523Y0244523D01*
X0244326Y0245310D01*
X0233893Y0256531D02*
X0235468Y0258106D01*
X0235468Y0260468D01*
X0235665Y0260665D01*
X0233893Y0256531D02*
X0225035Y0256531D01*
X0214995Y0246491D01*
X0214995Y0224169D01*
X0212830Y0219720D02*
X0211373Y0218263D01*
X0209090Y0218263D01*
X0209090Y0216294D02*
X0203460Y0216294D01*
X0200035Y0219720D01*
X0200035Y0227102D01*
X0202003Y0229070D01*
X0202003Y0251216D01*
X0205940Y0255153D01*
X0205940Y0260468D01*
X0206137Y0260665D01*
X0200035Y0253184D02*
X0192554Y0260665D01*
X0192357Y0260665D01*
X0196098Y0269326D02*
X0194523Y0270901D01*
X0200035Y0253184D02*
X0200035Y0230054D01*
X0198066Y0228086D01*
X0198066Y0218735D01*
X0202476Y0214326D01*
X0209090Y0214326D01*
X0212830Y0219720D02*
X0212830Y0247279D01*
X0220704Y0255153D01*
X0220704Y0259483D01*
X0221885Y0260665D01*
X0225625Y0269326D02*
X0225448Y0271117D01*
X0255231Y0232515D02*
X0253716Y0230999D01*
X0254169Y0230546D01*
X0254169Y0226609D01*
X0250231Y0222672D01*
X0245310Y0222672D01*
X0244818Y0222180D01*
X0244818Y0221688D01*
X0246806Y0218263D02*
X0242554Y0218263D01*
X0238893Y0218263D01*
X0236452Y0215783D02*
X0236452Y0202003D01*
X0237909Y0200546D01*
X0242554Y0200546D01*
X0242554Y0198578D02*
X0247751Y0198578D01*
X0253184Y0193145D01*
X0269917Y0193145D01*
X0270901Y0192161D01*
X0269424Y0189208D02*
X0274838Y0189208D01*
X0269424Y0189208D02*
X0267456Y0191176D01*
X0252200Y0191176D01*
X0246767Y0196609D01*
X0242554Y0196609D01*
X0241373Y0189208D02*
X0266472Y0189208D01*
X0269424Y0186255D01*
X0279759Y0186255D01*
X0281728Y0184287D01*
X0281728Y0177397D01*
X0281235Y0176905D01*
X0281235Y0175428D01*
X0283696Y0177397D02*
X0285665Y0175428D01*
X0283696Y0177397D02*
X0283696Y0185271D01*
X0273854Y0195113D01*
X0254169Y0195113D01*
X0246767Y0202515D01*
X0242554Y0202515D01*
X0242554Y0204483D02*
X0247751Y0204483D01*
X0255153Y0197082D01*
X0274838Y0197082D01*
X0285665Y0186255D01*
X0285665Y0179857D01*
X0289602Y0175920D01*
X0289602Y0140980D01*
X0286157Y0137535D01*
X0288125Y0131629D02*
X0289602Y0130153D01*
X0289602Y0088814D01*
X0285665Y0084877D01*
X0277791Y0113420D02*
X0262043Y0113420D01*
X0255153Y0120310D01*
X0254169Y0120310D01*
X0254661Y0128184D02*
X0257909Y0128184D01*
X0263716Y0122377D01*
X0263716Y0120409D01*
X0264011Y0120113D01*
X0264011Y0116373D01*
X0264995Y0115389D01*
X0274838Y0115389D01*
X0275822Y0116373D01*
X0275822Y0119326D01*
X0277298Y0120802D01*
X0278775Y0120802D01*
X0275822Y0125231D02*
X0272476Y0121885D01*
X0271196Y0120409D01*
X0264208Y0119129D02*
X0263716Y0120409D01*
X0277791Y0113420D02*
X0279759Y0115389D01*
X0265487Y0145409D02*
X0268046Y0147968D01*
X0273361Y0147968D01*
X0285665Y0168539D02*
X0286649Y0169523D01*
X0286157Y0169523D01*
X0283696Y0171983D01*
X0276314Y0171983D01*
X0271885Y0176413D01*
X0261058Y0176413D01*
X0257121Y0173460D01*
X0257121Y0177397D02*
X0258598Y0178381D01*
X0273854Y0178381D01*
X0276806Y0175428D01*
X0277298Y0175428D01*
X0278283Y0183302D02*
X0277298Y0184287D01*
X0268440Y0184287D01*
X0265487Y0187239D01*
X0242357Y0187239D01*
X0238420Y0183302D01*
X0234483Y0183302D01*
X0232712Y0185074D01*
X0232712Y0190704D01*
X0234680Y0190704D02*
X0234680Y0186058D01*
X0235468Y0185271D01*
X0237436Y0185271D01*
X0241373Y0189208D01*
X0237928Y0178381D02*
X0241865Y0174444D01*
X0257613Y0203480D02*
X0273361Y0203480D01*
X0274838Y0204956D01*
X0276019Y0207909D02*
X0272869Y0207909D01*
X0271885Y0206924D01*
X0269917Y0206924D01*
X0261058Y0206924D01*
X0259385Y0208598D01*
X0259385Y0211354D01*
X0260350Y0212318D01*
X0260350Y0212357D01*
X0242554Y0212357D01*
X0242554Y0210389D02*
X0250704Y0210389D01*
X0257613Y0203480D01*
X0265684Y0211354D02*
X0269424Y0211354D01*
X0269917Y0210861D01*
X0270409Y0211354D01*
X0273165Y0211354D01*
X0276019Y0207909D02*
X0279464Y0211354D01*
X0279464Y0217259D02*
X0279464Y0220015D01*
X0278775Y0220704D01*
X0275822Y0220704D01*
X0275822Y0228578D01*
X0277791Y0230546D01*
X0284680Y0230546D01*
X0286649Y0228578D01*
X0286649Y0226609D01*
X0287633Y0225625D01*
X0294444Y0225625D01*
X0290586Y0222672D02*
X0287633Y0222672D01*
X0287633Y0216798D01*
X0287633Y0212798D02*
X0287633Y0203972D01*
X0283696Y0199050D01*
X0291570Y0190684D02*
X0291570Y0208861D01*
X0295507Y0212798D01*
X0295507Y0216798D02*
X0295507Y0218735D01*
X0293539Y0219720D01*
X0307318Y0225625D02*
X0307318Y0208893D01*
X0301413Y0202987D01*
X0301413Y0197082D01*
X0308302Y0190192D01*
X0310271Y0190192D01*
X0312731Y0187731D01*
X0312731Y0184287D01*
X0312731Y0184779D01*
X0318145Y0187239D02*
X0318145Y0182318D01*
X0319129Y0181334D01*
X0339798Y0181334D01*
X0341767Y0179365D01*
X0345704Y0179365D01*
X0348657Y0182318D01*
X0348657Y0184287D01*
X0352594Y0188224D01*
X0364405Y0188224D01*
X0367357Y0191176D01*
X0367357Y0192161D01*
X0365389Y0190684D01*
X0367357Y0192161D02*
X0367357Y0205940D01*
X0364562Y0208735D01*
X0361983Y0208735D01*
X0356983Y0208735D02*
X0351767Y0208735D01*
X0350133Y0210369D01*
X0350133Y0217259D02*
X0350625Y0217751D01*
X0350625Y0221688D01*
X0354070Y0225133D01*
X0359976Y0225133D01*
X0360960Y0226117D01*
X0361452Y0226117D01*
X0361452Y0226609D01*
X0362436Y0227594D01*
X0384090Y0227594D01*
X0391964Y0219720D01*
X0391964Y0198066D01*
X0390980Y0197082D01*
X0389011Y0197082D01*
X0385566Y0195606D02*
X0383106Y0193145D01*
X0376708Y0193145D01*
X0370310Y0186747D01*
X0369326Y0190192D02*
X0354562Y0175428D01*
X0305350Y0175428D01*
X0299444Y0181334D01*
X0299444Y0190684D01*
X0304365Y0198066D02*
X0308794Y0193637D01*
X0311747Y0193637D01*
X0318145Y0187239D01*
X0304365Y0198066D02*
X0304365Y0199050D01*
X0309779Y0204464D02*
X0309779Y0206924D01*
X0309779Y0204464D02*
X0312239Y0202003D01*
X0328972Y0202003D01*
X0335861Y0195113D01*
X0339798Y0195113D01*
X0342672Y0203972D02*
X0343657Y0204956D01*
X0342672Y0203972D02*
X0313716Y0203972D01*
X0312731Y0204956D01*
X0312731Y0209877D01*
X0315684Y0206924D02*
X0316176Y0206924D01*
X0318145Y0208893D01*
X0318145Y0210861D01*
X0318381Y0210625D01*
X0332043Y0210625D01*
X0331924Y0214798D02*
X0338814Y0214798D01*
X0339798Y0215783D01*
X0331924Y0214798D02*
X0328972Y0217751D01*
X0325920Y0217751D01*
X0325035Y0218637D01*
X0325035Y0222082D01*
X0325035Y0225231D01*
X0325035Y0228676D01*
X0324936Y0228676D01*
X0330940Y0231728D02*
X0330940Y0232515D01*
X0333893Y0231531D02*
X0333893Y0230546D01*
X0334877Y0231531D01*
X0334877Y0235468D02*
X0335861Y0236944D01*
X0335369Y0236452D01*
X0319129Y0236452D01*
X0321590Y0238420D02*
X0320606Y0239405D01*
X0314208Y0239405D01*
X0312731Y0240881D01*
X0312731Y0243834D01*
X0312239Y0244326D01*
X0307318Y0241373D02*
X0307318Y0251216D01*
X0324050Y0267948D01*
X0324050Y0274838D01*
X0327987Y0278775D01*
X0330448Y0278775D01*
X0334877Y0293046D02*
X0319621Y0293046D01*
X0313224Y0299444D01*
X0313224Y0312239D01*
X0316176Y0315192D01*
X0329720Y0315192D01*
X0330428Y0311531D01*
X0327987Y0333893D02*
X0307318Y0333893D01*
X0306334Y0334877D01*
X0301413Y0334877D01*
X0299444Y0332909D01*
X0299444Y0327987D01*
X0297476Y0326019D01*
X0297476Y0296491D01*
X0298460Y0295507D01*
X0298460Y0294523D01*
X0291570Y0298952D02*
X0291570Y0327987D01*
X0290094Y0329464D01*
X0290094Y0332417D01*
X0291570Y0333893D01*
X0291570Y0375231D01*
X0286157Y0380645D01*
X0240389Y0386058D02*
X0240389Y0388027D01*
X0240389Y0386058D02*
X0238420Y0384090D01*
X0175428Y0384090D01*
X0152791Y0361452D01*
X0152791Y0323066D01*
X0162141Y0313716D01*
X0162141Y0291570D01*
X0164602Y0289109D01*
X0164602Y0288617D01*
X0160172Y0288617D02*
X0160172Y0312731D01*
X0150822Y0322082D01*
X0150822Y0362436D01*
X0174444Y0386058D01*
X0208893Y0386058D01*
X0209877Y0387043D01*
X0209877Y0388027D01*
X0288617Y0326019D02*
X0289602Y0325035D01*
X0289602Y0301905D01*
X0287141Y0299444D01*
X0287141Y0295507D01*
X0290586Y0297968D02*
X0291570Y0298952D01*
X0303381Y0274838D02*
X0301413Y0272869D01*
X0301413Y0241373D01*
X0303381Y0239405D01*
X0306334Y0240389D02*
X0307318Y0241373D01*
X0306334Y0240389D02*
X0306334Y0236452D01*
X0307318Y0235468D01*
X0312239Y0235468D01*
X0313224Y0236452D01*
X0309287Y0238420D02*
X0309287Y0249739D01*
X0315960Y0256413D01*
X0325035Y0256413D01*
X0321590Y0238420D02*
X0332909Y0238420D01*
X0335861Y0241373D01*
X0319129Y0228676D02*
X0314109Y0228676D01*
X0313716Y0228578D01*
X0310271Y0228578D01*
X0307318Y0225625D01*
X0310763Y0224641D02*
X0311846Y0225231D01*
X0319129Y0225231D01*
X0319129Y0222082D02*
X0314602Y0222082D01*
X0312239Y0219720D01*
X0311255Y0219720D01*
X0313224Y0220704D01*
X0318145Y0217653D02*
X0319129Y0218637D01*
X0318145Y0217653D02*
X0318145Y0210861D01*
X0300428Y0175428D02*
X0301413Y0174444D01*
X0302397Y0174444D01*
X0303381Y0173460D01*
X0371294Y0173460D01*
X0393932Y0196098D01*
X0393932Y0218735D01*
X0396885Y0221688D01*
X0405743Y0221688D01*
X0414602Y0212830D01*
X0414621Y0212850D01*
X0414602Y0212850D01*
X0414602Y0202850D02*
X0407850Y0202850D01*
X0407712Y0202987D01*
X0401806Y0202003D02*
X0410665Y0193145D01*
X0413322Y0193145D01*
X0414602Y0192850D01*
X0401806Y0202003D02*
X0401806Y0217751D01*
X0399838Y0219720D01*
X0397869Y0219720D01*
X0395901Y0217751D01*
X0395901Y0195113D01*
X0372279Y0171491D01*
X0327987Y0171491D01*
X0328302Y0171176D01*
X0328302Y0154759D01*
X0318302Y0154759D02*
X0318302Y0147043D01*
X0309287Y0138027D01*
X0300428Y0171491D02*
X0327987Y0171491D01*
X0343329Y0152823D02*
X0343735Y0151806D01*
X0343735Y0150822D01*
X0347672Y0147869D02*
X0360468Y0147869D01*
X0367850Y0140487D01*
X0380448Y0140487D01*
X0386747Y0140487D02*
X0386747Y0154306D01*
X0387200Y0154759D01*
X0387043Y0154917D01*
X0387043Y0160665D01*
X0382121Y0165586D01*
X0348657Y0165586D01*
X0347672Y0164602D01*
X0369326Y0190192D02*
X0369326Y0211846D01*
X0371294Y0213814D01*
X0362062Y0213814D01*
X0361983Y0213735D01*
X0371294Y0213814D02*
X0372279Y0214798D01*
X0372771Y0215291D01*
X0372771Y0219228D01*
X0375231Y0221688D01*
X0380153Y0221688D01*
X0381669Y0220172D01*
X0381669Y0217515D01*
X0381669Y0212515D02*
X0384405Y0212515D01*
X0385566Y0211354D01*
X0385566Y0195606D01*
X0389995Y0224641D02*
X0385074Y0229562D01*
X0358499Y0229562D01*
X0357515Y0228578D01*
X0389995Y0224641D02*
X0411649Y0224641D01*
X0413617Y0222672D01*
X0414602Y0222850D01*
X0327987Y0333893D02*
X0336846Y0342751D01*
X0336846Y0360113D01*
X0337791Y0361058D01*
X0268932Y0224641D02*
X0268440Y0224149D01*
X0265684Y0224149D01*
X0261058Y0220704D02*
X0275822Y0220704D01*
X0273165Y0217259D02*
X0269424Y0217259D01*
X0268932Y0217751D01*
X0268440Y0217259D01*
X0265684Y0217259D01*
X0261058Y0220704D02*
X0259385Y0219031D01*
X0259385Y0217259D01*
X0258893Y0216767D01*
X0257121Y0216767D01*
X0254680Y0214326D01*
X0242554Y0214326D01*
X0242554Y0216294D02*
X0249267Y0216294D01*
X0250231Y0217259D01*
X0246806Y0218263D02*
X0249247Y0220704D01*
X0253184Y0220704D01*
X0256137Y0223657D01*
X0258893Y0223657D01*
X0259385Y0224149D01*
X0209877Y0221688D02*
X0206924Y0224641D01*
X0203480Y0224641D01*
X0186255Y0216767D02*
X0186255Y0206924D01*
X0190665Y0202515D01*
X0209090Y0202515D01*
X0209090Y0204483D02*
X0191649Y0204483D01*
X0185271Y0204956D02*
X0184287Y0205940D01*
X0182515Y0205940D01*
X0182515Y0208696D01*
X0182318Y0208893D01*
X0182515Y0209090D01*
X0182515Y0211846D01*
X0182515Y0217751D02*
X0182515Y0223657D01*
X0182318Y0223657D01*
X0176216Y0223657D02*
X0172476Y0223657D01*
X0173460Y0226609D02*
X0167554Y0226609D01*
X0165586Y0225133D01*
X0165586Y0217751D01*
X0159680Y0211846D01*
X0147791Y0211846D01*
X0146806Y0210861D01*
X0143932Y0222672D02*
X0150822Y0222672D01*
X0153775Y0225625D01*
X0156235Y0225625D01*
X0153775Y0228578D02*
X0171491Y0228578D01*
X0172476Y0229562D01*
X0172476Y0217751D02*
X0176216Y0217751D01*
X0176216Y0211846D02*
X0172476Y0211846D01*
X0169523Y0208893D02*
X0168539Y0208893D01*
X0172476Y0205940D02*
X0176216Y0205940D01*
X0182515Y0217751D02*
X0185271Y0217751D01*
X0186255Y0216767D01*
X0193145Y0195606D02*
X0193145Y0187239D01*
X0191176Y0185271D01*
X0187239Y0185271D01*
X0185763Y0186747D01*
X0161157Y0186747D01*
X0159680Y0187731D01*
X0164602Y0180350D02*
X0164602Y0179857D01*
X0196098Y0160468D02*
X0196098Y0156728D01*
X0202003Y0156728D02*
X0202003Y0160468D01*
X0163125Y0141472D02*
X0163125Y0129661D01*
X0159680Y0126216D01*
X0153775Y0126216D01*
X0152791Y0125231D01*
X0152791Y0080940D01*
X0157712Y0076019D01*
X0221688Y0076019D01*
X0245231Y0134090D02*
X0244326Y0134995D01*
X0244326Y0138027D01*
X0241373Y0140980D01*
X0141472Y0136058D02*
X0140980Y0137043D01*
X0110468Y0137043D01*
X0109483Y0138027D01*
X0107515Y0138027D01*
X0106531Y0139011D01*
X0106531Y0139995D01*
X0093735Y0138027D02*
X0092751Y0137043D01*
X0062239Y0137043D01*
X0060271Y0139011D01*
X0050350Y0139011D01*
X0048381Y0137043D01*
X0037633Y0241373D02*
X0037633Y0245310D01*
X0038125Y0243342D02*
X0038125Y0241865D01*
X0037633Y0241373D01*
X0156806Y0281728D02*
X0157712Y0281728D01*
X0169129Y0269917D02*
X0168539Y0269326D01*
D28*
X0156728Y0268932D03*
X0153775Y0265487D03*
X0150822Y0268932D03*
X0146885Y0264995D03*
X0140980Y0281728D03*
X0160172Y0288617D03*
X0164602Y0288617D03*
X0193145Y0287141D03*
X0213814Y0281728D03*
X0203972Y0266964D03*
X0201511Y0256137D03*
X0194129Y0254661D03*
X0185763Y0255645D03*
X0172476Y0256137D03*
X0160665Y0241373D03*
X0172476Y0229562D03*
X0172476Y0223657D03*
X0168539Y0223657D03*
X0172476Y0217751D03*
X0172476Y0211846D03*
X0169523Y0208893D03*
X0172476Y0205940D03*
X0172476Y0200035D03*
X0172476Y0194129D03*
X0185271Y0189700D03*
X0189208Y0188224D03*
X0193145Y0195606D03*
X0203480Y0197574D03*
X0211846Y0189700D03*
X0218735Y0198558D03*
X0217259Y0216275D03*
X0223165Y0217751D03*
X0229562Y0218735D03*
X0236452Y0215783D03*
X0240389Y0221688D03*
X0244818Y0221688D03*
X0250231Y0217259D03*
X0268932Y0217751D03*
X0269917Y0210861D03*
X0269917Y0206924D03*
X0274838Y0204956D03*
X0280743Y0202003D03*
X0283696Y0199050D03*
X0291570Y0190684D03*
X0299444Y0190684D03*
X0308302Y0187239D03*
X0312731Y0184287D03*
X0300428Y0175428D03*
X0300428Y0171491D03*
X0300428Y0167554D03*
X0286649Y0169523D03*
X0285665Y0175428D03*
X0281235Y0175428D03*
X0277298Y0175428D03*
X0278775Y0179365D03*
X0278283Y0183302D03*
X0274838Y0189208D03*
X0270901Y0192161D03*
X0257121Y0177397D03*
X0257121Y0173460D03*
X0242357Y0178381D03*
X0236452Y0175428D03*
X0247279Y0160665D03*
X0250231Y0154759D03*
X0248263Y0149838D03*
X0247771Y0144917D03*
X0242357Y0148854D03*
X0242357Y0153775D03*
X0256137Y0144917D03*
X0259090Y0141964D03*
X0254661Y0140487D03*
X0265487Y0145409D03*
X0264995Y0149838D03*
X0263027Y0153775D03*
X0240389Y0136550D03*
X0241373Y0129169D03*
X0244326Y0121294D03*
X0246216Y0116373D03*
X0254169Y0116373D03*
X0254169Y0120310D03*
X0254661Y0128184D03*
X0278775Y0120802D03*
X0282712Y0121294D03*
X0286649Y0125231D03*
X0286157Y0129169D03*
X0285665Y0141964D03*
X0298460Y0125231D03*
X0298460Y0118342D03*
X0279759Y0115389D03*
X0286649Y0090291D03*
X0288617Y0079956D03*
X0288617Y0075035D03*
X0286649Y0034680D03*
X0286649Y0026806D03*
X0271885Y0030743D03*
X0221688Y0055350D03*
X0237436Y0079956D03*
X0196098Y0121787D03*
X0187239Y0131629D03*
X0192161Y0144917D03*
X0196098Y0144917D03*
X0196098Y0156728D03*
X0202003Y0156728D03*
X0208893Y0156728D03*
X0214798Y0156728D03*
X0221688Y0156728D03*
X0226609Y0156728D03*
X0191176Y0168539D03*
X0187239Y0168539D03*
X0162633Y0172476D03*
X0158204Y0172476D03*
X0153775Y0172476D03*
X0146885Y0168539D03*
X0164602Y0180350D03*
X0159680Y0187731D03*
X0182318Y0208893D03*
X0195113Y0207909D03*
X0209877Y0221688D03*
X0203480Y0224641D03*
X0179857Y0229562D03*
X0156235Y0225625D03*
X0146885Y0219720D03*
X0097672Y0217751D03*
X0097672Y0177889D03*
X0106531Y0139995D03*
X0093735Y0138027D03*
X0092751Y0129169D03*
X0056334Y0161649D03*
X0048381Y0161649D03*
X0043539Y0178381D03*
X0058302Y0250231D03*
X0048460Y0251216D03*
X0095704Y0271885D03*
X0093735Y0285665D03*
X0093735Y0326019D03*
X0142948Y0326019D03*
X0191669Y0326019D03*
X0237436Y0299936D03*
X0241373Y0297476D03*
X0245310Y0295015D03*
X0251216Y0299444D03*
X0241373Y0326019D03*
X0282220Y0295507D03*
X0287141Y0295507D03*
X0290586Y0297968D03*
X0294523Y0294523D03*
X0298460Y0294523D03*
X0286157Y0286649D03*
X0281728Y0276806D03*
X0284680Y0273854D03*
X0288617Y0271885D03*
X0292554Y0266964D03*
X0295015Y0270901D03*
X0303381Y0274838D03*
X0330448Y0278775D03*
X0334877Y0279267D03*
X0339798Y0276806D03*
X0342751Y0290586D03*
X0339798Y0293539D03*
X0334877Y0293046D03*
X0347672Y0290586D03*
X0347672Y0257121D03*
X0339798Y0257121D03*
X0335861Y0241373D03*
X0335861Y0236944D03*
X0334877Y0231531D03*
X0319129Y0236452D03*
X0313224Y0236452D03*
X0309287Y0238420D03*
X0303381Y0239405D03*
X0298460Y0247279D03*
X0287633Y0244326D03*
X0287633Y0240389D03*
X0286157Y0236452D03*
X0290586Y0228578D03*
X0290586Y0222672D03*
X0293539Y0219720D03*
X0279267Y0227102D03*
X0272869Y0229070D03*
X0268932Y0224641D03*
X0261550Y0245310D03*
X0259090Y0264995D03*
X0271885Y0264995D03*
X0244326Y0264995D03*
X0230546Y0264995D03*
X0210861Y0255153D03*
X0238420Y0235468D03*
X0304365Y0199050D03*
X0308302Y0201019D03*
X0309779Y0206924D03*
X0312731Y0209877D03*
X0315684Y0206924D03*
X0313224Y0220704D03*
X0310763Y0224641D03*
X0313716Y0228578D03*
X0312239Y0244326D03*
X0350133Y0217259D03*
X0350133Y0210369D03*
X0353578Y0203972D03*
X0347672Y0191176D03*
X0339798Y0191176D03*
X0339798Y0195113D03*
X0365389Y0190684D03*
X0370310Y0186747D03*
X0389011Y0197082D03*
X0389011Y0203972D03*
X0398854Y0216275D03*
X0404759Y0203972D03*
X0392948Y0174444D03*
X0347672Y0168539D03*
X0343735Y0168539D03*
X0338814Y0168539D03*
X0347672Y0164602D03*
X0347672Y0147869D03*
X0335861Y0130153D03*
X0309287Y0138027D03*
X0339798Y0080940D03*
X0389011Y0079956D03*
X0388027Y0128184D03*
X0369326Y0217751D03*
X0361452Y0226117D03*
X0357515Y0228578D03*
X0389011Y0272869D03*
X0389011Y0276806D03*
X0389011Y0291570D03*
X0396885Y0291570D03*
X0389011Y0326019D03*
X0335861Y0335861D03*
X0288617Y0326019D03*
X0241373Y0376216D03*
X0240389Y0388027D03*
X0209877Y0388027D03*
X0192161Y0375231D03*
X0172968Y0376708D03*
X0166570Y0383106D03*
X0166078Y0142948D03*
X0166078Y0138519D03*
X0166078Y0134090D03*
X0157712Y0139503D03*
X0141472Y0136058D03*
X0141964Y0129169D03*
X0184287Y0082909D03*
X0184287Y0071098D03*
X0178381Y0039602D03*
X0177397Y0034680D03*
X0201019Y0025822D03*
X0142948Y0079956D03*
X0093735Y0079956D03*
D29*
X0193637Y0178873D02*
X0201590Y0178873D01*
X0206019Y0183302D01*
X0193637Y0178873D02*
X0189700Y0182810D01*
X0186255Y0182810D01*
X0184287Y0184779D01*
X0161649Y0184779D01*
X0160172Y0183302D01*
X0156806Y0183302D01*
X0168539Y0193145D02*
X0171983Y0189700D01*
X0185271Y0189700D01*
X0168539Y0193145D02*
X0168539Y0208893D01*
X0168539Y0223657D01*
X0168539Y0269917D02*
X0166570Y0271885D01*
X0149838Y0271885D01*
X0147377Y0274346D01*
X0139503Y0274346D01*
X0137535Y0276314D01*
X0112928Y0276314D01*
X0110960Y0274346D01*
X0099149Y0274346D01*
X0096688Y0276806D01*
X0097594Y0281728D02*
X0102515Y0276806D01*
X0109483Y0276806D01*
X0111452Y0278775D01*
X0139011Y0278775D01*
X0140980Y0276806D01*
X0148361Y0276806D01*
X0150822Y0274346D01*
X0177298Y0274346D01*
X0182318Y0269326D01*
X0188617Y0276806D02*
X0196098Y0269326D01*
X0203972Y0268932D02*
X0204365Y0269326D01*
X0209877Y0269326D01*
X0217751Y0270901D02*
X0210861Y0277791D01*
X0210861Y0283204D01*
X0212338Y0284680D01*
X0215783Y0284680D01*
X0216275Y0284188D01*
X0220704Y0284188D01*
X0235468Y0298952D01*
X0236452Y0298952D01*
X0237436Y0299936D01*
X0236452Y0296491D02*
X0240389Y0296491D01*
X0241373Y0297476D01*
X0244326Y0294031D02*
X0237928Y0294031D01*
X0230546Y0286649D01*
X0230546Y0271885D01*
X0228578Y0269917D01*
X0226216Y0269917D01*
X0225625Y0269326D01*
X0217751Y0270901D02*
X0217751Y0256137D01*
X0233499Y0275231D02*
X0239405Y0269326D01*
X0240389Y0273854D02*
X0236452Y0277791D01*
X0236452Y0285172D01*
X0240389Y0289109D01*
X0284188Y0289109D01*
X0284680Y0289602D01*
X0340704Y0289602D01*
X0343657Y0292554D01*
X0298460Y0272869D02*
X0298460Y0247279D01*
X0295999Y0250231D02*
X0294523Y0248755D01*
X0294523Y0232594D01*
X0294444Y0232515D01*
X0289602Y0232515D02*
X0255231Y0232515D01*
X0261058Y0238913D02*
X0281235Y0238913D01*
X0286649Y0244326D01*
X0295999Y0250231D02*
X0295999Y0269917D01*
X0295015Y0270901D01*
X0297476Y0273854D02*
X0291078Y0273854D01*
X0285172Y0279759D01*
X0260074Y0279759D01*
X0257613Y0277298D01*
X0252692Y0277298D01*
X0249169Y0280822D01*
X0245231Y0280822D01*
X0241373Y0276806D02*
X0239405Y0278775D01*
X0239405Y0284680D01*
X0241373Y0286649D01*
X0286157Y0286649D01*
X0282712Y0291570D02*
X0239405Y0291570D01*
X0233499Y0285665D01*
X0233499Y0275231D01*
X0240389Y0273854D02*
X0249247Y0273854D01*
X0249247Y0276806D02*
X0241373Y0276806D01*
X0244326Y0294031D02*
X0245310Y0295015D01*
X0251216Y0295507D02*
X0252200Y0294031D01*
X0280743Y0294031D01*
X0282220Y0295507D01*
X0283204Y0292062D02*
X0292062Y0292062D01*
X0294523Y0294523D01*
X0283204Y0292062D02*
X0282712Y0291570D01*
X0297476Y0273854D02*
X0298460Y0272869D01*
X0261058Y0238913D02*
X0259090Y0240881D01*
X0251216Y0240881D01*
X0245231Y0234897D01*
X0245231Y0232515D01*
X0245231Y0183302D02*
X0246787Y0183302D01*
X0250231Y0179857D01*
X0250231Y0164109D01*
X0256137Y0158204D01*
X0256137Y0144917D01*
X0245802Y0134090D02*
X0245231Y0134090D01*
X0245802Y0134090D02*
X0247279Y0132613D01*
X0247279Y0117436D01*
X0246216Y0116373D01*
X0245310Y0116373D01*
X0247279Y0114897D01*
X0247279Y0086924D01*
X0245231Y0084877D01*
X0245802Y0084306D01*
X0245779Y0069315D01*
X0245779Y0062917D02*
X0245231Y0062161D01*
X0245231Y0035665D01*
X0259090Y0110960D02*
X0282712Y0110960D01*
X0283696Y0111944D01*
X0283696Y0120310D01*
X0282712Y0121294D01*
X0298460Y0125231D02*
X0298460Y0131137D01*
X0299444Y0132121D01*
X0299444Y0166570D01*
X0300428Y0167554D01*
X0307810Y0187239D02*
X0308302Y0188224D01*
X0308302Y0187239D01*
X0307810Y0187239D02*
X0298460Y0196590D01*
X0298460Y0197082D01*
X0338322Y0178381D02*
X0339306Y0177397D01*
X0351609Y0177397D01*
X0353578Y0179365D01*
X0353578Y0183224D01*
X0353657Y0183302D01*
X0259090Y0110960D02*
X0253676Y0116373D01*
X0254169Y0116373D01*
X0107594Y0232515D02*
X0102672Y0227594D01*
X0093735Y0227594D01*
X0089798Y0231531D01*
X0089798Y0245310D01*
X0084877Y0250231D01*
X0058302Y0250231D01*
X0146806Y0281728D02*
X0151728Y0276806D01*
X0188617Y0276806D01*
X0169129Y0269917D02*
X0168539Y0269917D01*
X0213814Y0281728D02*
X0221688Y0281728D01*
X0236452Y0296491D01*
X0251216Y0295507D02*
X0251216Y0299444D01*
D30*
X0262043Y0229070D02*
X0272869Y0229070D01*
X0279267Y0227102D02*
X0279759Y0227594D01*
X0283204Y0224641D01*
X0283204Y0204464D01*
X0280743Y0202003D01*
X0259385Y0224149D02*
X0259385Y0226905D01*
X0262043Y0229070D01*
X0308302Y0201019D02*
X0309779Y0199543D01*
X0327987Y0199543D01*
X0336354Y0191176D01*
X0339798Y0191176D01*
X0346688Y0192161D02*
X0346688Y0211846D01*
X0348657Y0213814D01*
X0352594Y0213814D01*
X0353578Y0214798D01*
X0353578Y0220704D01*
X0355546Y0222672D01*
X0361452Y0222672D01*
X0366609Y0217515D01*
X0369090Y0217515D01*
X0369326Y0217751D01*
X0369326Y0222672D01*
X0371294Y0224641D01*
X0383106Y0224641D01*
X0389011Y0218735D01*
X0389011Y0203972D01*
X0401854Y0198703D02*
X0408365Y0192192D01*
X0409314Y0191243D01*
X0409939Y0189734D01*
X0411486Y0188187D01*
X0412300Y0187850D01*
X0411486Y0187512D01*
X0409939Y0185965D01*
X0409102Y0183944D01*
X0409102Y0181756D01*
X0409939Y0179734D01*
X0411486Y0178187D01*
X0412300Y0177850D01*
X0411719Y0177554D01*
X0411019Y0177045D01*
X0410406Y0176433D01*
X0409898Y0175732D01*
X0409505Y0174961D01*
X0409237Y0174138D01*
X0409102Y0173282D01*
X0409102Y0173050D01*
X0414401Y0173050D01*
X0414401Y0172650D01*
X0409102Y0172650D01*
X0409102Y0172417D01*
X0409237Y0171562D01*
X0409505Y0170738D01*
X0409898Y0169967D01*
X0410406Y0169267D01*
X0411019Y0168654D01*
X0411719Y0168146D01*
X0412490Y0167753D01*
X0413314Y0167485D01*
X0414169Y0167350D01*
X0414402Y0167350D01*
X0414402Y0172650D01*
X0414802Y0172650D01*
X0414802Y0173050D01*
X0420102Y0173050D01*
X0420102Y0173282D01*
X0419966Y0174138D01*
X0419699Y0174961D01*
X0419306Y0175732D01*
X0418797Y0176433D01*
X0418185Y0177045D01*
X0417484Y0177554D01*
X0416903Y0177850D01*
X0417717Y0178187D01*
X0419264Y0179734D01*
X0420102Y0181756D01*
X0420102Y0183944D01*
X0419264Y0185965D01*
X0417717Y0187512D01*
X0416903Y0187850D01*
X0417717Y0188187D01*
X0419264Y0189734D01*
X0420102Y0191756D01*
X0420102Y0193944D01*
X0419264Y0195965D01*
X0417717Y0197512D01*
X0416903Y0197850D01*
X0417717Y0198187D01*
X0419264Y0199734D01*
X0420102Y0201756D01*
X0420102Y0203944D01*
X0419264Y0205965D01*
X0417717Y0207512D01*
X0416903Y0207850D01*
X0417717Y0208187D01*
X0419264Y0209734D01*
X0420102Y0211756D01*
X0420102Y0213944D01*
X0419264Y0215965D01*
X0417717Y0217512D01*
X0416903Y0217850D01*
X0417717Y0218187D01*
X0419264Y0219734D01*
X0420102Y0221756D01*
X0420102Y0223944D01*
X0419264Y0225965D01*
X0417717Y0227512D01*
X0416903Y0227850D01*
X0417717Y0228187D01*
X0419264Y0229734D01*
X0420102Y0231756D01*
X0420102Y0233944D01*
X0419264Y0235965D01*
X0417717Y0237512D01*
X0416903Y0237849D01*
X0417484Y0238146D01*
X0418185Y0238654D01*
X0418797Y0239267D01*
X0419306Y0239967D01*
X0419699Y0240738D01*
X0419966Y0241562D01*
X0420102Y0242417D01*
X0420102Y0242650D01*
X0414802Y0242650D01*
X0414802Y0243050D01*
X0414402Y0243050D01*
X0414402Y0248350D01*
X0414169Y0248350D01*
X0413314Y0248214D01*
X0412490Y0247947D01*
X0411719Y0247554D01*
X0411019Y0247045D01*
X0410406Y0246433D01*
X0409898Y0245732D01*
X0409505Y0244961D01*
X0409237Y0244138D01*
X0409102Y0243282D01*
X0409102Y0243050D01*
X0414401Y0243050D01*
X0414401Y0242650D01*
X0409102Y0242650D01*
X0409102Y0242417D01*
X0409237Y0241562D01*
X0409505Y0240738D01*
X0409898Y0239967D01*
X0410406Y0239267D01*
X0411019Y0238654D01*
X0411719Y0238146D01*
X0412300Y0237849D01*
X0411486Y0237512D01*
X0409939Y0235965D01*
X0409102Y0233944D01*
X0409102Y0231756D01*
X0409939Y0229734D01*
X0411486Y0228187D01*
X0412300Y0227850D01*
X0411486Y0227512D01*
X0410915Y0226941D01*
X0401538Y0226941D01*
X0402712Y0228115D01*
X0404692Y0228115D01*
X0407269Y0230692D01*
X0407269Y0234337D01*
X0404692Y0236915D01*
X0401047Y0236915D01*
X0398469Y0234337D01*
X0398469Y0232358D01*
X0397269Y0231158D01*
X0397269Y0234337D01*
X0395948Y0235659D01*
X0395948Y0278584D01*
X0397269Y0279905D01*
X0397269Y0283550D01*
X0395869Y0284950D01*
X0395869Y0327718D01*
X0397269Y0329118D01*
X0397269Y0332763D01*
X0395869Y0334163D01*
X0395869Y0376930D01*
X0397269Y0378330D01*
X0397269Y0381510D01*
X0398469Y0380310D01*
X0398469Y0378330D01*
X0401047Y0375753D01*
X0404692Y0375753D01*
X0407269Y0378330D01*
X0407269Y0381975D01*
X0404692Y0384553D01*
X0402712Y0384553D01*
X0398663Y0388602D01*
X0397561Y0389058D01*
X0390383Y0389058D01*
X0389280Y0388602D01*
X0388436Y0387758D01*
X0383831Y0383153D01*
X0356879Y0383153D01*
X0355479Y0384553D01*
X0355389Y0384553D01*
X0355356Y0384586D01*
X0352184Y0387758D01*
X0351340Y0388602D01*
X0350238Y0389058D01*
X0340186Y0389058D01*
X0339083Y0388602D01*
X0335603Y0385121D01*
X0329359Y0385121D01*
X0328257Y0384665D01*
X0326649Y0383057D01*
X0326419Y0383153D01*
X0307667Y0383153D01*
X0307365Y0383454D01*
X0307365Y0383702D01*
X0306909Y0384805D01*
X0306065Y0385649D01*
X0303112Y0388602D01*
X0302009Y0389058D01*
X0290973Y0389058D01*
X0289871Y0388602D01*
X0289027Y0387758D01*
X0284422Y0383153D01*
X0258454Y0383153D01*
X0257054Y0384553D01*
X0253409Y0384553D01*
X0250831Y0381975D01*
X0250831Y0380218D01*
X0249631Y0380223D01*
X0249631Y0381975D01*
X0247054Y0384553D01*
X0243409Y0384553D01*
X0240836Y0381980D01*
X0240200Y0382616D01*
X0241342Y0383758D01*
X0242689Y0385106D01*
X0242689Y0385872D01*
X0243539Y0386722D01*
X0243539Y0389332D01*
X0241694Y0391177D01*
X0239084Y0391177D01*
X0237239Y0389332D01*
X0237239Y0386722D01*
X0237520Y0386441D01*
X0237468Y0386390D01*
X0212695Y0386390D01*
X0213027Y0386722D01*
X0213027Y0389332D01*
X0211182Y0391177D01*
X0208572Y0391177D01*
X0206727Y0389332D01*
X0206727Y0388358D01*
X0173491Y0388358D01*
X0172144Y0387011D01*
X0172144Y0387011D01*
X0169632Y0384499D01*
X0167875Y0386255D01*
X0165265Y0386255D01*
X0163420Y0384410D01*
X0163420Y0384198D01*
X0162375Y0383153D01*
X0160029Y0383153D01*
X0158629Y0384553D01*
X0156649Y0384553D01*
X0153584Y0387617D01*
X0152482Y0388074D01*
X0142351Y0388074D01*
X0141249Y0387617D01*
X0140405Y0386773D01*
X0136784Y0383153D01*
X0110816Y0383153D01*
X0109416Y0384553D01*
X0107436Y0384553D01*
X0103388Y0388602D01*
X0102285Y0389058D01*
X0092154Y0389058D01*
X0091052Y0388602D01*
X0090208Y0387758D01*
X0085603Y0383153D01*
X0061604Y0383153D01*
X0060204Y0384553D01*
X0056559Y0384553D01*
X0053981Y0381975D01*
X0053981Y0381121D01*
X0052781Y0381126D01*
X0052781Y0381975D01*
X0050204Y0384553D01*
X0046559Y0384553D01*
X0043981Y0381975D01*
X0043981Y0378330D01*
X0045381Y0376930D01*
X0045381Y0334163D01*
X0043981Y0332763D01*
X0043981Y0329118D01*
X0045381Y0327718D01*
X0045381Y0284950D01*
X0043981Y0283550D01*
X0043981Y0279905D01*
X0046141Y0277745D01*
X0045917Y0277521D01*
X0045460Y0276419D01*
X0045460Y0252671D01*
X0045310Y0252521D01*
X0045310Y0249911D01*
X0047155Y0248066D01*
X0049203Y0248066D01*
X0049266Y0236915D01*
X0046559Y0236915D01*
X0043981Y0234337D01*
X0043981Y0230692D01*
X0045381Y0229292D01*
X0045381Y0186525D01*
X0043981Y0185125D01*
X0043981Y0181531D01*
X0042234Y0181531D01*
X0040389Y0179686D01*
X0040389Y0177076D01*
X0042234Y0175231D01*
X0044843Y0175231D01*
X0044993Y0175381D01*
X0049614Y0175381D01*
X0049674Y0164799D01*
X0047076Y0164799D01*
X0045231Y0162954D01*
X0045231Y0160344D01*
X0045381Y0160194D01*
X0045381Y0137312D01*
X0043981Y0135912D01*
X0043981Y0132267D01*
X0045381Y0130867D01*
X0045381Y0088100D01*
X0043981Y0086700D01*
X0043981Y0083055D01*
X0045381Y0081655D01*
X0045381Y0038887D01*
X0043981Y0037487D01*
X0043981Y0033842D01*
X0046559Y0031265D01*
X0050204Y0031265D01*
X0050619Y0031680D01*
X0054365Y0030743D01*
X0057012Y0030743D01*
X0058712Y0029044D01*
X0059556Y0028200D01*
X0060658Y0027743D01*
X0152482Y0027743D01*
X0153584Y0028200D01*
X0156128Y0030743D01*
X0184287Y0030743D01*
X0185271Y0027791D01*
X0198019Y0027791D01*
X0198019Y0027277D01*
X0197869Y0027127D01*
X0197869Y0024517D01*
X0199714Y0022672D01*
X0202324Y0022672D01*
X0204169Y0024517D01*
X0204169Y0027127D01*
X0204019Y0027277D01*
X0204019Y0027791D01*
X0210229Y0027791D01*
X0210343Y0027743D01*
X0250907Y0027743D01*
X0251021Y0027791D01*
X0270383Y0027791D01*
X0270580Y0027593D01*
X0273190Y0027593D01*
X0273340Y0027743D01*
X0304135Y0027743D01*
X0304249Y0027791D01*
X0304639Y0027791D01*
X0304753Y0027743D01*
X0349332Y0027743D01*
X0349446Y0027791D01*
X0357788Y0027791D01*
X0357902Y0027743D01*
X0398545Y0027743D01*
X0398659Y0027791D01*
X0420676Y0027791D01*
X0420676Y0012858D01*
X0030575Y0012858D01*
X0030575Y0402959D01*
X0264995Y0402959D01*
X0264995Y0400309D01*
X0264879Y0400468D01*
X0264267Y0401080D01*
X0263567Y0401589D01*
X0262796Y0401982D01*
X0261972Y0402250D01*
X0261117Y0402385D01*
X0260884Y0402385D01*
X0260884Y0397085D01*
X0260484Y0397085D01*
X0260484Y0402385D01*
X0260251Y0402385D01*
X0259396Y0402250D01*
X0258573Y0401982D01*
X0257802Y0401589D01*
X0257101Y0401080D01*
X0256489Y0400468D01*
X0255980Y0399768D01*
X0255684Y0399186D01*
X0255347Y0400001D01*
X0253800Y0401548D01*
X0251778Y0402385D01*
X0249590Y0402385D01*
X0247569Y0401548D01*
X0246022Y0400001D01*
X0245684Y0399186D01*
X0245347Y0400001D01*
X0243800Y0401548D01*
X0241778Y0402385D01*
X0239590Y0402385D01*
X0237569Y0401548D01*
X0236022Y0400001D01*
X0235684Y0399186D01*
X0235347Y0400001D01*
X0233800Y0401548D01*
X0231778Y0402385D01*
X0229590Y0402385D01*
X0227569Y0401548D01*
X0226022Y0400001D01*
X0225684Y0399186D01*
X0225347Y0400001D01*
X0223800Y0401548D01*
X0221778Y0402385D01*
X0219590Y0402385D01*
X0217569Y0401548D01*
X0216022Y0400001D01*
X0215684Y0399186D01*
X0215347Y0400001D01*
X0213800Y0401548D01*
X0211778Y0402385D01*
X0209590Y0402385D01*
X0207569Y0401548D01*
X0206022Y0400001D01*
X0205684Y0399186D01*
X0205347Y0400001D01*
X0203800Y0401548D01*
X0201778Y0402385D01*
X0199590Y0402385D01*
X0197569Y0401548D01*
X0196022Y0400001D01*
X0195684Y0399186D01*
X0195388Y0399768D01*
X0194879Y0400468D01*
X0194267Y0401080D01*
X0193567Y0401589D01*
X0192796Y0401982D01*
X0191972Y0402250D01*
X0191117Y0402385D01*
X0190884Y0402385D01*
X0190884Y0397085D01*
X0190484Y0397085D01*
X0190484Y0396685D01*
X0185184Y0396685D01*
X0185184Y0396452D01*
X0185320Y0395597D01*
X0185587Y0394774D01*
X0185980Y0394002D01*
X0186489Y0393302D01*
X0187101Y0392690D01*
X0187802Y0392181D01*
X0188573Y0391788D01*
X0189396Y0391520D01*
X0190251Y0391385D01*
X0190484Y0391385D01*
X0190484Y0396685D01*
X0185184Y0396685D01*
X0185184Y0396452D01*
X0185320Y0395597D01*
X0185587Y0394774D01*
X0185980Y0394002D01*
X0186489Y0393302D01*
X0187101Y0392690D01*
X0187802Y0392181D01*
X0188573Y0391788D01*
X0189396Y0391520D01*
X0190251Y0391385D01*
X0190484Y0391385D01*
X0190484Y0396685D01*
X0190484Y0397085D01*
X0185184Y0397085D01*
X0185184Y0397318D01*
X0185320Y0398173D01*
X0185587Y0398996D01*
X0185980Y0399768D01*
X0186489Y0400468D01*
X0187101Y0401080D01*
X0187802Y0401589D01*
X0188573Y0401982D01*
X0189396Y0402250D01*
X0190251Y0402385D01*
X0190484Y0402385D01*
X0190484Y0397085D01*
X0185184Y0397085D01*
X0185184Y0397318D01*
X0185320Y0398173D01*
X0185587Y0398996D01*
X0185980Y0399768D01*
X0186489Y0400468D01*
X0187101Y0401080D01*
X0187802Y0401589D01*
X0188573Y0401982D01*
X0189396Y0402250D01*
X0190251Y0402385D01*
X0190484Y0402385D01*
X0190484Y0397085D01*
X0190884Y0397085D01*
X0190884Y0402385D01*
X0191117Y0402385D01*
X0191972Y0402250D01*
X0192796Y0401982D01*
X0193567Y0401589D01*
X0194267Y0401080D01*
X0194879Y0400468D01*
X0195388Y0399768D01*
X0195684Y0399186D01*
X0196022Y0400001D01*
X0197569Y0401548D01*
X0199590Y0402385D01*
X0201778Y0402385D01*
X0203800Y0401548D01*
X0205347Y0400001D01*
X0205684Y0399186D01*
X0206022Y0400001D01*
X0207569Y0401548D01*
X0209590Y0402385D01*
X0211778Y0402385D01*
X0213800Y0401548D01*
X0215347Y0400001D01*
X0215684Y0399186D01*
X0216022Y0400001D01*
X0217569Y0401548D01*
X0219590Y0402385D01*
X0221778Y0402385D01*
X0223800Y0401548D01*
X0225347Y0400001D01*
X0225684Y0399186D01*
X0226022Y0400001D01*
X0227569Y0401548D01*
X0229590Y0402385D01*
X0231778Y0402385D01*
X0233800Y0401548D01*
X0235347Y0400001D01*
X0235684Y0399186D01*
X0236022Y0400001D01*
X0237569Y0401548D01*
X0239590Y0402385D01*
X0241778Y0402385D01*
X0243800Y0401548D01*
X0245347Y0400001D01*
X0245684Y0399186D01*
X0246022Y0400001D01*
X0247569Y0401548D01*
X0249590Y0402385D01*
X0251778Y0402385D01*
X0253800Y0401548D01*
X0255347Y0400001D01*
X0255684Y0399186D01*
X0255980Y0399768D01*
X0256489Y0400468D01*
X0257101Y0401080D01*
X0257802Y0401589D01*
X0258573Y0401982D01*
X0259396Y0402250D01*
X0260251Y0402385D01*
X0260484Y0402385D01*
X0260484Y0397085D01*
X0260884Y0397085D01*
X0260884Y0402385D01*
X0261117Y0402385D01*
X0261972Y0402250D01*
X0262796Y0401982D01*
X0263567Y0401589D01*
X0264267Y0401080D01*
X0264879Y0400468D01*
X0265388Y0399768D01*
X0265781Y0398996D01*
X0266049Y0398173D01*
X0266184Y0397318D01*
X0266184Y0397085D01*
X0260884Y0397085D01*
X0260884Y0396685D01*
X0260884Y0391385D01*
X0261117Y0391385D01*
X0261972Y0391520D01*
X0262796Y0391788D01*
X0263567Y0392181D01*
X0264267Y0392690D01*
X0264879Y0393302D01*
X0264995Y0393462D01*
X0264995Y0383153D01*
X0258454Y0383153D01*
X0257054Y0384553D01*
X0253409Y0384553D01*
X0250831Y0381975D01*
X0250831Y0380153D01*
X0249631Y0380153D01*
X0249631Y0381975D01*
X0247054Y0384553D01*
X0243409Y0384553D01*
X0240836Y0381980D01*
X0240200Y0382616D01*
X0241342Y0383758D01*
X0242689Y0385106D01*
X0242689Y0385872D01*
X0243539Y0386722D01*
X0243539Y0389332D01*
X0241694Y0391177D01*
X0239084Y0391177D01*
X0237239Y0389332D01*
X0237239Y0386722D01*
X0237520Y0386441D01*
X0237468Y0386390D01*
X0212695Y0386390D01*
X0213027Y0386722D01*
X0213027Y0389332D01*
X0211182Y0391177D01*
X0208572Y0391177D01*
X0206727Y0389332D01*
X0206727Y0388358D01*
X0182154Y0388358D01*
X0182318Y0389995D01*
X0182318Y0402959D01*
X0420676Y0402959D01*
X0420676Y0012858D01*
X0299244Y0012858D01*
X0298460Y0019917D01*
X0301395Y0027743D01*
X0304135Y0027743D01*
X0304425Y0027863D01*
X0304461Y0027864D01*
X0304753Y0027743D01*
X0349332Y0027743D01*
X0350435Y0028200D01*
X0351226Y0028991D01*
X0355896Y0029103D01*
X0355956Y0029044D01*
X0356800Y0028200D01*
X0357902Y0027743D01*
X0398545Y0027743D01*
X0399647Y0028200D01*
X0402712Y0031265D01*
X0404692Y0031265D01*
X0407269Y0033842D01*
X0407269Y0037487D01*
X0404692Y0040065D01*
X0401047Y0040065D01*
X0398469Y0037487D01*
X0398469Y0035507D01*
X0397269Y0034307D01*
X0397269Y0037487D01*
X0395869Y0038887D01*
X0395869Y0081655D01*
X0397269Y0083055D01*
X0397269Y0086700D01*
X0395869Y0088100D01*
X0395869Y0130867D01*
X0397269Y0132267D01*
X0397269Y0133451D01*
X0397327Y0133508D01*
X0398469Y0134651D01*
X0398469Y0132267D01*
X0401047Y0129690D01*
X0404692Y0129690D01*
X0407269Y0132267D01*
X0407269Y0135912D01*
X0404692Y0138490D01*
X0401047Y0138490D01*
X0400869Y0138312D01*
X0400869Y0168151D01*
X0400413Y0169254D01*
X0399569Y0170098D01*
X0396098Y0173568D01*
X0396098Y0175381D01*
X0397482Y0175381D01*
X0398584Y0175838D01*
X0399428Y0176682D01*
X0401649Y0178902D01*
X0404692Y0178902D01*
X0407269Y0181480D01*
X0407269Y0185125D01*
X0404692Y0187702D01*
X0401444Y0187702D01*
X0401854Y0188690D01*
X0401854Y0198703D01*
X0401854Y0198084D02*
X0402473Y0198084D01*
X0401854Y0196486D02*
X0404071Y0196486D01*
X0405670Y0194887D02*
X0401854Y0194887D01*
X0401854Y0193289D02*
X0407268Y0193289D01*
X0408867Y0191690D02*
X0401854Y0191690D01*
X0401854Y0190092D02*
X0409791Y0190092D01*
X0411180Y0188493D02*
X0401772Y0188493D01*
X0405500Y0186895D02*
X0410868Y0186895D01*
X0409662Y0185296D02*
X0407098Y0185296D01*
X0407269Y0183697D02*
X0409102Y0183697D01*
X0409102Y0182099D02*
X0407269Y0182099D01*
X0406290Y0180500D02*
X0409621Y0180500D01*
X0410771Y0178902D02*
X0401649Y0178902D01*
X0400050Y0177303D02*
X0411375Y0177303D01*
X0409884Y0175705D02*
X0398264Y0175705D01*
X0399428Y0176682D02*
X0399428Y0176682D01*
X0396098Y0174106D02*
X0409232Y0174106D01*
X0409102Y0172508D02*
X0397158Y0172508D01*
X0398757Y0170909D02*
X0409449Y0170909D01*
X0410374Y0169311D02*
X0400355Y0169311D01*
X0400869Y0167712D02*
X0412614Y0167712D01*
X0414402Y0167712D02*
X0414802Y0167712D01*
X0414802Y0167350D02*
X0415034Y0167350D01*
X0415889Y0167485D01*
X0416713Y0167753D01*
X0417484Y0168146D01*
X0418185Y0168654D01*
X0418797Y0169267D01*
X0419306Y0169967D01*
X0419699Y0170738D01*
X0419966Y0171562D01*
X0420102Y0172417D01*
X0420102Y0172650D01*
X0414802Y0172650D01*
X0414802Y0167350D01*
X0416589Y0167712D02*
X0420676Y0167712D01*
X0420676Y0166114D02*
X0400869Y0166114D01*
X0400869Y0164515D02*
X0420676Y0164515D01*
X0420676Y0162917D02*
X0400869Y0162917D01*
X0400869Y0161318D02*
X0420676Y0161318D01*
X0420676Y0159720D02*
X0400869Y0159720D01*
X0400869Y0158121D02*
X0420676Y0158121D01*
X0420676Y0156523D02*
X0400869Y0156523D01*
X0400869Y0154924D02*
X0420676Y0154924D01*
X0420676Y0153326D02*
X0400869Y0153326D01*
X0400869Y0151727D02*
X0420676Y0151727D01*
X0420676Y0150129D02*
X0400869Y0150129D01*
X0400869Y0148530D02*
X0420676Y0148530D01*
X0420676Y0146932D02*
X0400869Y0146932D01*
X0400869Y0145333D02*
X0420676Y0145333D01*
X0420676Y0143735D02*
X0400869Y0143735D01*
X0400869Y0142136D02*
X0420676Y0142136D01*
X0420676Y0140538D02*
X0400869Y0140538D01*
X0400869Y0138939D02*
X0420676Y0138939D01*
X0420676Y0137341D02*
X0405841Y0137341D01*
X0407269Y0135742D02*
X0420676Y0135742D01*
X0420676Y0134144D02*
X0407269Y0134144D01*
X0407269Y0132545D02*
X0420676Y0132545D01*
X0420676Y0130947D02*
X0405949Y0130947D01*
X0399790Y0130947D02*
X0395949Y0130947D01*
X0395869Y0129348D02*
X0420676Y0129348D01*
X0420676Y0127750D02*
X0395869Y0127750D01*
X0395869Y0126151D02*
X0420676Y0126151D01*
X0420676Y0124553D02*
X0395869Y0124553D01*
X0395869Y0122954D02*
X0420676Y0122954D01*
X0420676Y0121356D02*
X0395869Y0121356D01*
X0395869Y0119757D02*
X0420676Y0119757D01*
X0420676Y0118159D02*
X0395869Y0118159D01*
X0395869Y0116560D02*
X0420676Y0116560D01*
X0420676Y0114962D02*
X0395869Y0114962D01*
X0395869Y0113363D02*
X0420676Y0113363D01*
X0420676Y0111764D02*
X0395869Y0111764D01*
X0395869Y0110166D02*
X0420676Y0110166D01*
X0420676Y0108567D02*
X0395869Y0108567D01*
X0395869Y0106969D02*
X0420676Y0106969D01*
X0420676Y0105370D02*
X0395869Y0105370D01*
X0395869Y0103772D02*
X0420676Y0103772D01*
X0420676Y0102173D02*
X0395869Y0102173D01*
X0395869Y0100575D02*
X0420676Y0100575D01*
X0420676Y0098976D02*
X0395869Y0098976D01*
X0395869Y0097378D02*
X0420676Y0097378D01*
X0420676Y0095779D02*
X0395869Y0095779D01*
X0395869Y0094181D02*
X0420676Y0094181D01*
X0420676Y0092582D02*
X0395869Y0092582D01*
X0395869Y0090984D02*
X0420676Y0090984D01*
X0420676Y0089385D02*
X0395869Y0089385D01*
X0396182Y0087787D02*
X0399556Y0087787D01*
X0398469Y0086700D02*
X0401047Y0089277D01*
X0404692Y0089277D01*
X0407269Y0086700D01*
X0407269Y0083055D01*
X0404692Y0080477D01*
X0401047Y0080477D01*
X0398469Y0083055D01*
X0398469Y0086700D01*
X0398469Y0086188D02*
X0397269Y0086188D01*
X0397269Y0084590D02*
X0398469Y0084590D01*
X0398533Y0082991D02*
X0397206Y0082991D01*
X0395869Y0081393D02*
X0400131Y0081393D01*
X0395869Y0079794D02*
X0420676Y0079794D01*
X0420676Y0078196D02*
X0395869Y0078196D01*
X0395869Y0076597D02*
X0420676Y0076597D01*
X0420676Y0074999D02*
X0395869Y0074999D01*
X0395869Y0073400D02*
X0420676Y0073400D01*
X0420676Y0071802D02*
X0395869Y0071802D01*
X0395869Y0070203D02*
X0420676Y0070203D01*
X0420676Y0068605D02*
X0395869Y0068605D01*
X0395869Y0067006D02*
X0420676Y0067006D01*
X0420676Y0065408D02*
X0395869Y0065408D01*
X0395869Y0063809D02*
X0420676Y0063809D01*
X0420676Y0062211D02*
X0395869Y0062211D01*
X0395869Y0060612D02*
X0420676Y0060612D01*
X0420676Y0059014D02*
X0395869Y0059014D01*
X0395869Y0057415D02*
X0420676Y0057415D01*
X0420676Y0055817D02*
X0395869Y0055817D01*
X0395869Y0054218D02*
X0420676Y0054218D01*
X0420676Y0052620D02*
X0395869Y0052620D01*
X0395869Y0051021D02*
X0420676Y0051021D01*
X0420676Y0049423D02*
X0395869Y0049423D01*
X0395869Y0047824D02*
X0420676Y0047824D01*
X0420676Y0046226D02*
X0395869Y0046226D01*
X0395869Y0044627D02*
X0420676Y0044627D01*
X0420676Y0043028D02*
X0395869Y0043028D01*
X0395869Y0041430D02*
X0420676Y0041430D01*
X0420676Y0039831D02*
X0404925Y0039831D01*
X0406523Y0038233D02*
X0420676Y0038233D01*
X0420676Y0036634D02*
X0407269Y0036634D01*
X0407269Y0035036D02*
X0420676Y0035036D01*
X0420676Y0033437D02*
X0406865Y0033437D01*
X0405266Y0031839D02*
X0420676Y0031839D01*
X0420676Y0030240D02*
X0401688Y0030240D01*
X0400089Y0028642D02*
X0420676Y0028642D01*
X0420676Y0027043D02*
X0204169Y0027043D01*
X0204169Y0025445D02*
X0420676Y0025445D01*
X0300533Y0025445D01*
X0301132Y0027043D02*
X0420676Y0027043D01*
X0420676Y0023846D02*
X0203498Y0023846D01*
X0198540Y0023846D02*
X0030575Y0023846D01*
X0030575Y0022248D02*
X0420676Y0022248D01*
X0299334Y0022248D01*
X0299934Y0023846D02*
X0420676Y0023846D01*
X0420676Y0020649D02*
X0030575Y0020649D01*
X0030575Y0019051D02*
X0420676Y0019051D01*
X0298556Y0019051D01*
X0298735Y0020649D02*
X0420676Y0020649D01*
X0420676Y0017452D02*
X0030575Y0017452D01*
X0030575Y0015854D02*
X0420676Y0015854D01*
X0298911Y0015854D01*
X0298734Y0017452D02*
X0420676Y0017452D01*
X0420676Y0014255D02*
X0030575Y0014255D01*
X0030575Y0025445D02*
X0197869Y0025445D01*
X0197869Y0027043D02*
X0030575Y0027043D01*
X0030575Y0028642D02*
X0059114Y0028642D01*
X0057515Y0030240D02*
X0030575Y0030240D01*
X0030575Y0031839D02*
X0045984Y0031839D01*
X0044386Y0033437D02*
X0030575Y0033437D01*
X0030575Y0035036D02*
X0043981Y0035036D01*
X0043981Y0036634D02*
X0030575Y0036634D01*
X0030575Y0038233D02*
X0044727Y0038233D01*
X0045381Y0039831D02*
X0030575Y0039831D01*
X0030575Y0041430D02*
X0045381Y0041430D01*
X0045381Y0043028D02*
X0030575Y0043028D01*
X0030575Y0044627D02*
X0045381Y0044627D01*
X0045381Y0046226D02*
X0030575Y0046226D01*
X0030575Y0047824D02*
X0045381Y0047824D01*
X0045381Y0049423D02*
X0030575Y0049423D01*
X0030575Y0051021D02*
X0045381Y0051021D01*
X0045381Y0052620D02*
X0030575Y0052620D01*
X0030575Y0054218D02*
X0045381Y0054218D01*
X0045381Y0055817D02*
X0030575Y0055817D01*
X0030575Y0057415D02*
X0045381Y0057415D01*
X0045381Y0059014D02*
X0030575Y0059014D01*
X0030575Y0060612D02*
X0045381Y0060612D01*
X0045381Y0062211D02*
X0030575Y0062211D01*
X0030575Y0063809D02*
X0045381Y0063809D01*
X0045381Y0065408D02*
X0030575Y0065408D01*
X0030575Y0067006D02*
X0045381Y0067006D01*
X0045381Y0068605D02*
X0030575Y0068605D01*
X0030575Y0070203D02*
X0045381Y0070203D01*
X0045381Y0071802D02*
X0030575Y0071802D01*
X0030575Y0073400D02*
X0045381Y0073400D01*
X0045381Y0074999D02*
X0030575Y0074999D01*
X0030575Y0076597D02*
X0045381Y0076597D01*
X0045381Y0078196D02*
X0030575Y0078196D01*
X0030575Y0079794D02*
X0045381Y0079794D01*
X0045381Y0081393D02*
X0030575Y0081393D01*
X0030575Y0082991D02*
X0044044Y0082991D01*
X0043981Y0084590D02*
X0030575Y0084590D01*
X0030575Y0086188D02*
X0043981Y0086188D01*
X0045068Y0087787D02*
X0030575Y0087787D01*
X0030575Y0089385D02*
X0045381Y0089385D01*
X0045381Y0090984D02*
X0030575Y0090984D01*
X0030575Y0092582D02*
X0045381Y0092582D01*
X0045381Y0094181D02*
X0030575Y0094181D01*
X0030575Y0095779D02*
X0045381Y0095779D01*
X0045381Y0097378D02*
X0030575Y0097378D01*
X0030575Y0098976D02*
X0045381Y0098976D01*
X0045381Y0100575D02*
X0030575Y0100575D01*
X0030575Y0102173D02*
X0045381Y0102173D01*
X0045381Y0103772D02*
X0030575Y0103772D01*
X0030575Y0105370D02*
X0045381Y0105370D01*
X0045381Y0106969D02*
X0030575Y0106969D01*
X0030575Y0108567D02*
X0045381Y0108567D01*
X0045381Y0110166D02*
X0030575Y0110166D01*
X0030575Y0111764D02*
X0045381Y0111764D01*
X0045381Y0113363D02*
X0030575Y0113363D01*
X0030575Y0114962D02*
X0045381Y0114962D01*
X0045381Y0116560D02*
X0030575Y0116560D01*
X0030575Y0118159D02*
X0045381Y0118159D01*
X0045381Y0119757D02*
X0030575Y0119757D01*
X0030575Y0121356D02*
X0045381Y0121356D01*
X0045381Y0122954D02*
X0030575Y0122954D01*
X0030575Y0124553D02*
X0045381Y0124553D01*
X0045381Y0126151D02*
X0030575Y0126151D01*
X0030575Y0127750D02*
X0045381Y0127750D01*
X0045381Y0129348D02*
X0030575Y0129348D01*
X0030575Y0130947D02*
X0045302Y0130947D01*
X0043981Y0132545D02*
X0030575Y0132545D01*
X0030575Y0134144D02*
X0043981Y0134144D01*
X0043981Y0135742D02*
X0030575Y0135742D01*
X0030575Y0137341D02*
X0045381Y0137341D01*
X0045381Y0138939D02*
X0030575Y0138939D01*
X0030575Y0140538D02*
X0045381Y0140538D01*
X0045381Y0142136D02*
X0030575Y0142136D01*
X0030575Y0143735D02*
X0045381Y0143735D01*
X0045381Y0145333D02*
X0030575Y0145333D01*
X0030575Y0146932D02*
X0045381Y0146932D01*
X0045381Y0148530D02*
X0030575Y0148530D01*
X0030575Y0150129D02*
X0045381Y0150129D01*
X0045381Y0151727D02*
X0030575Y0151727D01*
X0030575Y0153326D02*
X0045381Y0153326D01*
X0045381Y0154924D02*
X0030575Y0154924D01*
X0030575Y0156523D02*
X0045381Y0156523D01*
X0045381Y0158121D02*
X0030575Y0158121D01*
X0030575Y0159720D02*
X0045381Y0159720D01*
X0045231Y0161318D02*
X0030575Y0161318D01*
X0030575Y0162917D02*
X0045231Y0162917D01*
X0046793Y0164515D02*
X0030575Y0164515D01*
X0030575Y0166114D02*
X0049667Y0166114D01*
X0049658Y0167712D02*
X0030575Y0167712D01*
X0030575Y0169311D02*
X0049649Y0169311D01*
X0049640Y0170909D02*
X0030575Y0170909D01*
X0030575Y0172508D02*
X0049631Y0172508D01*
X0049622Y0174106D02*
X0030575Y0174106D01*
X0030575Y0175705D02*
X0041760Y0175705D01*
X0040389Y0177303D02*
X0030575Y0177303D01*
X0030575Y0178902D02*
X0040389Y0178902D01*
X0041203Y0180500D02*
X0030575Y0180500D01*
X0030575Y0182099D02*
X0043981Y0182099D01*
X0043981Y0183697D02*
X0030575Y0183697D01*
X0030575Y0185296D02*
X0044152Y0185296D01*
X0045381Y0186895D02*
X0030575Y0186895D01*
X0030575Y0188493D02*
X0045381Y0188493D01*
X0045381Y0190092D02*
X0030575Y0190092D01*
X0030575Y0191690D02*
X0045381Y0191690D01*
X0045381Y0193289D02*
X0030575Y0193289D01*
X0030575Y0194887D02*
X0045381Y0194887D01*
X0045381Y0196486D02*
X0030575Y0196486D01*
X0030575Y0198084D02*
X0045381Y0198084D01*
X0045381Y0199683D02*
X0030575Y0199683D01*
X0030575Y0201281D02*
X0045381Y0201281D01*
X0045381Y0202880D02*
X0030575Y0202880D01*
X0030575Y0204478D02*
X0045381Y0204478D01*
X0045381Y0206077D02*
X0030575Y0206077D01*
X0030575Y0207675D02*
X0045381Y0207675D01*
X0045381Y0209274D02*
X0030575Y0209274D01*
X0030575Y0210872D02*
X0045381Y0210872D01*
X0045381Y0212471D02*
X0030575Y0212471D01*
X0030575Y0214069D02*
X0045381Y0214069D01*
X0045381Y0215668D02*
X0030575Y0215668D01*
X0030575Y0217266D02*
X0045381Y0217266D01*
X0045381Y0218865D02*
X0030575Y0218865D01*
X0030575Y0220463D02*
X0045381Y0220463D01*
X0045381Y0222062D02*
X0030575Y0222062D01*
X0030575Y0223660D02*
X0045381Y0223660D01*
X0045381Y0225259D02*
X0030575Y0225259D01*
X0030575Y0226857D02*
X0045381Y0226857D01*
X0045381Y0228456D02*
X0030575Y0228456D01*
X0030575Y0230054D02*
X0044619Y0230054D01*
X0043981Y0231653D02*
X0030575Y0231653D01*
X0030575Y0233251D02*
X0043981Y0233251D01*
X0044493Y0234850D02*
X0030575Y0234850D01*
X0030575Y0236448D02*
X0046092Y0236448D01*
X0049259Y0238047D02*
X0030575Y0238047D01*
X0030575Y0239645D02*
X0049250Y0239645D01*
X0049241Y0241244D02*
X0030575Y0241244D01*
X0030575Y0242842D02*
X0049232Y0242842D01*
X0049223Y0244441D02*
X0030575Y0244441D01*
X0030575Y0246039D02*
X0049214Y0246039D01*
X0049205Y0247638D02*
X0030575Y0247638D01*
X0030575Y0249236D02*
X0045984Y0249236D01*
X0045310Y0250835D02*
X0030575Y0250835D01*
X0030575Y0252433D02*
X0045310Y0252433D01*
X0045460Y0254032D02*
X0030575Y0254032D01*
X0030575Y0255630D02*
X0045460Y0255630D01*
X0045460Y0257229D02*
X0030575Y0257229D01*
X0030575Y0258828D02*
X0045460Y0258828D01*
X0045460Y0260426D02*
X0030575Y0260426D01*
X0030575Y0262025D02*
X0045460Y0262025D01*
X0045460Y0263623D02*
X0030575Y0263623D01*
X0030575Y0265222D02*
X0045460Y0265222D01*
X0045460Y0266820D02*
X0030575Y0266820D01*
X0030575Y0268419D02*
X0045460Y0268419D01*
X0045460Y0270017D02*
X0030575Y0270017D01*
X0030575Y0271616D02*
X0045460Y0271616D01*
X0045460Y0273214D02*
X0030575Y0273214D01*
X0030575Y0274813D02*
X0045460Y0274813D01*
X0045460Y0276411D02*
X0030575Y0276411D01*
X0030575Y0278010D02*
X0045876Y0278010D01*
X0044278Y0279608D02*
X0030575Y0279608D01*
X0030575Y0281207D02*
X0043981Y0281207D01*
X0043981Y0282805D02*
X0030575Y0282805D01*
X0030575Y0284404D02*
X0044835Y0284404D01*
X0045381Y0286002D02*
X0030575Y0286002D01*
X0030575Y0287601D02*
X0045381Y0287601D01*
X0045381Y0289199D02*
X0030575Y0289199D01*
X0030575Y0290798D02*
X0045381Y0290798D01*
X0045381Y0292396D02*
X0030575Y0292396D01*
X0030575Y0293995D02*
X0045381Y0293995D01*
X0045381Y0295593D02*
X0030575Y0295593D01*
X0030575Y0297192D02*
X0045381Y0297192D01*
X0045381Y0298790D02*
X0030575Y0298790D01*
X0030575Y0300389D02*
X0045381Y0300389D01*
X0045381Y0301987D02*
X0030575Y0301987D01*
X0030575Y0303586D02*
X0045381Y0303586D01*
X0045381Y0305184D02*
X0030575Y0305184D01*
X0030575Y0306783D02*
X0045381Y0306783D01*
X0045381Y0308381D02*
X0030575Y0308381D01*
X0030575Y0309980D02*
X0045381Y0309980D01*
X0045381Y0311578D02*
X0030575Y0311578D01*
X0030575Y0313177D02*
X0045381Y0313177D01*
X0045381Y0314775D02*
X0030575Y0314775D01*
X0030575Y0316374D02*
X0045381Y0316374D01*
X0045381Y0317972D02*
X0030575Y0317972D01*
X0030575Y0319571D02*
X0045381Y0319571D01*
X0045381Y0321169D02*
X0030575Y0321169D01*
X0030575Y0322768D02*
X0045381Y0322768D01*
X0045381Y0324366D02*
X0030575Y0324366D01*
X0030575Y0325965D02*
X0045381Y0325965D01*
X0045381Y0327564D02*
X0030575Y0327564D01*
X0030575Y0329162D02*
X0043981Y0329162D01*
X0043981Y0330761D02*
X0030575Y0330761D01*
X0030575Y0332359D02*
X0043981Y0332359D01*
X0045176Y0333958D02*
X0030575Y0333958D01*
X0030575Y0335556D02*
X0045381Y0335556D01*
X0045381Y0337155D02*
X0030575Y0337155D01*
X0030575Y0338753D02*
X0045381Y0338753D01*
X0045381Y0340352D02*
X0030575Y0340352D01*
X0030575Y0341950D02*
X0045381Y0341950D01*
X0045381Y0343549D02*
X0030575Y0343549D01*
X0030575Y0345147D02*
X0045381Y0345147D01*
X0045381Y0346746D02*
X0030575Y0346746D01*
X0030575Y0348344D02*
X0045381Y0348344D01*
X0045381Y0349943D02*
X0030575Y0349943D01*
X0030575Y0351541D02*
X0045381Y0351541D01*
X0045381Y0353140D02*
X0030575Y0353140D01*
X0030575Y0354738D02*
X0045381Y0354738D01*
X0045381Y0356337D02*
X0030575Y0356337D01*
X0030575Y0357935D02*
X0045381Y0357935D01*
X0045381Y0359534D02*
X0030575Y0359534D01*
X0030575Y0361132D02*
X0045381Y0361132D01*
X0045381Y0362731D02*
X0030575Y0362731D01*
X0030575Y0364329D02*
X0045381Y0364329D01*
X0045381Y0365928D02*
X0030575Y0365928D01*
X0030575Y0367526D02*
X0045381Y0367526D01*
X0045381Y0369125D02*
X0030575Y0369125D01*
X0030575Y0370723D02*
X0045381Y0370723D01*
X0045381Y0372322D02*
X0030575Y0372322D01*
X0030575Y0373920D02*
X0045381Y0373920D01*
X0045381Y0375519D02*
X0030575Y0375519D01*
X0030575Y0377117D02*
X0045194Y0377117D01*
X0043981Y0378716D02*
X0030575Y0378716D01*
X0030575Y0380314D02*
X0043981Y0380314D01*
X0043981Y0381913D02*
X0030575Y0381913D01*
X0030575Y0383511D02*
X0045517Y0383511D01*
X0051245Y0383511D02*
X0055517Y0383511D01*
X0053981Y0381913D02*
X0052781Y0381913D01*
X0061245Y0383511D02*
X0085962Y0383511D01*
X0087560Y0385110D02*
X0030575Y0385110D01*
X0030575Y0386708D02*
X0089159Y0386708D01*
X0090757Y0388307D02*
X0030575Y0388307D01*
X0030575Y0389905D02*
X0207301Y0389905D01*
X0182309Y0389905D01*
X0182318Y0391504D02*
X0189501Y0391504D01*
X0030575Y0391504D01*
X0030575Y0393102D02*
X0186689Y0393102D01*
X0182318Y0393102D01*
X0182318Y0394701D02*
X0185624Y0394701D01*
X0030575Y0394701D01*
X0030575Y0396299D02*
X0185208Y0396299D01*
X0182318Y0396299D01*
X0182318Y0397898D02*
X0185276Y0397898D01*
X0030575Y0397898D01*
X0030575Y0399497D02*
X0185842Y0399497D01*
X0182318Y0399497D01*
X0182318Y0401095D02*
X0187122Y0401095D01*
X0030575Y0401095D01*
X0030575Y0402694D02*
X0264995Y0402694D01*
X0264995Y0401095D02*
X0264247Y0401095D01*
X0420676Y0401095D01*
X0420676Y0399497D02*
X0265526Y0399497D01*
X0266092Y0397898D02*
X0420676Y0397898D01*
X0420676Y0396299D02*
X0266160Y0396299D01*
X0266184Y0396452D02*
X0266184Y0396685D01*
X0260884Y0396685D01*
X0260484Y0396685D01*
X0260484Y0391385D01*
X0260251Y0391385D01*
X0259396Y0391520D01*
X0258573Y0391788D01*
X0257802Y0392181D01*
X0257101Y0392690D01*
X0256489Y0393302D01*
X0255980Y0394002D01*
X0255684Y0394584D01*
X0255347Y0393770D01*
X0253800Y0392222D01*
X0251778Y0391385D01*
X0249590Y0391385D01*
X0247569Y0392222D01*
X0246022Y0393770D01*
X0245684Y0394584D01*
X0245347Y0393770D01*
X0243800Y0392222D01*
X0241778Y0391385D01*
X0239590Y0391385D01*
X0237569Y0392222D01*
X0236022Y0393770D01*
X0235684Y0394584D01*
X0235347Y0393770D01*
X0233800Y0392222D01*
X0231778Y0391385D01*
X0229590Y0391385D01*
X0227569Y0392222D01*
X0226022Y0393770D01*
X0225684Y0394584D01*
X0225347Y0393770D01*
X0223800Y0392222D01*
X0221778Y0391385D01*
X0219590Y0391385D01*
X0217569Y0392222D01*
X0216022Y0393770D01*
X0215684Y0394584D01*
X0215347Y0393770D01*
X0213800Y0392222D01*
X0211778Y0391385D01*
X0209590Y0391385D01*
X0207569Y0392222D01*
X0206022Y0393770D01*
X0205684Y0394584D01*
X0205347Y0393770D01*
X0203800Y0392222D01*
X0201778Y0391385D01*
X0199590Y0391385D01*
X0197569Y0392222D01*
X0196022Y0393770D01*
X0195684Y0394584D01*
X0195388Y0394002D01*
X0194879Y0393302D01*
X0194267Y0392690D01*
X0193567Y0392181D01*
X0192796Y0391788D01*
X0191972Y0391520D01*
X0191117Y0391385D01*
X0190884Y0391385D01*
X0190884Y0396685D01*
X0190484Y0396685D01*
X0190884Y0396685D01*
X0190884Y0391385D01*
X0191117Y0391385D01*
X0191972Y0391520D01*
X0192796Y0391788D01*
X0193567Y0392181D01*
X0194267Y0392690D01*
X0194879Y0393302D01*
X0195388Y0394002D01*
X0195684Y0394584D01*
X0196022Y0393770D01*
X0197569Y0392222D01*
X0199590Y0391385D01*
X0201778Y0391385D01*
X0203800Y0392222D01*
X0205347Y0393770D01*
X0205684Y0394584D01*
X0206022Y0393770D01*
X0207569Y0392222D01*
X0209590Y0391385D01*
X0211778Y0391385D01*
X0213800Y0392222D01*
X0215347Y0393770D01*
X0215684Y0394584D01*
X0216022Y0393770D01*
X0217569Y0392222D01*
X0219590Y0391385D01*
X0221778Y0391385D01*
X0223800Y0392222D01*
X0225347Y0393770D01*
X0225684Y0394584D01*
X0226022Y0393770D01*
X0227569Y0392222D01*
X0229590Y0391385D01*
X0231778Y0391385D01*
X0233800Y0392222D01*
X0235347Y0393770D01*
X0235684Y0394584D01*
X0236022Y0393770D01*
X0237569Y0392222D01*
X0239590Y0391385D01*
X0241778Y0391385D01*
X0243800Y0392222D01*
X0245347Y0393770D01*
X0245684Y0394584D01*
X0246022Y0393770D01*
X0247569Y0392222D01*
X0249590Y0391385D01*
X0251778Y0391385D01*
X0253800Y0392222D01*
X0255347Y0393770D01*
X0255684Y0394584D01*
X0255980Y0394002D01*
X0256489Y0393302D01*
X0257101Y0392690D01*
X0257802Y0392181D01*
X0258573Y0391788D01*
X0259396Y0391520D01*
X0260251Y0391385D01*
X0260484Y0391385D01*
X0260484Y0396685D01*
X0260884Y0396685D01*
X0260884Y0391385D01*
X0261117Y0391385D01*
X0261972Y0391520D01*
X0262796Y0391788D01*
X0263567Y0392181D01*
X0264267Y0392690D01*
X0264879Y0393302D01*
X0265388Y0394002D01*
X0265781Y0394774D01*
X0266049Y0395597D01*
X0266184Y0396452D01*
X0265744Y0394701D02*
X0420676Y0394701D01*
X0420676Y0393102D02*
X0264680Y0393102D01*
X0264995Y0393102D01*
X0264995Y0391504D02*
X0261868Y0391504D01*
X0420676Y0391504D01*
X0420676Y0389905D02*
X0242965Y0389905D01*
X0264995Y0389905D01*
X0264995Y0388307D02*
X0243539Y0388307D01*
X0289576Y0388307D01*
X0287978Y0386708D02*
X0243525Y0386708D01*
X0264995Y0386708D01*
X0264995Y0385110D02*
X0242689Y0385110D01*
X0286379Y0385110D01*
X0284781Y0383511D02*
X0258095Y0383511D01*
X0264995Y0383511D01*
X0260884Y0391504D02*
X0260484Y0391504D01*
X0260884Y0391504D01*
X0259501Y0391504D02*
X0252065Y0391504D01*
X0259501Y0391504D01*
X0260484Y0393102D02*
X0260884Y0393102D01*
X0260484Y0393102D01*
X0260484Y0394701D02*
X0260884Y0394701D01*
X0260484Y0394701D01*
X0260484Y0396299D02*
X0260884Y0396299D01*
X0260484Y0396299D01*
X0260484Y0397898D02*
X0260884Y0397898D01*
X0260484Y0397898D01*
X0260484Y0399497D02*
X0260884Y0399497D01*
X0260484Y0399497D01*
X0260484Y0401095D02*
X0260884Y0401095D01*
X0260484Y0401095D01*
X0257122Y0401095D02*
X0254252Y0401095D01*
X0257122Y0401095D01*
X0255842Y0399497D02*
X0255556Y0399497D01*
X0255842Y0399497D01*
X0256689Y0393102D02*
X0254680Y0393102D01*
X0256689Y0393102D01*
X0249303Y0391504D02*
X0242065Y0391504D01*
X0249303Y0391504D01*
X0246689Y0393102D02*
X0244680Y0393102D01*
X0246689Y0393102D01*
X0245813Y0399497D02*
X0245556Y0399497D01*
X0245813Y0399497D01*
X0247116Y0401095D02*
X0244252Y0401095D01*
X0247116Y0401095D01*
X0237116Y0401095D02*
X0234252Y0401095D01*
X0237116Y0401095D01*
X0235813Y0399497D02*
X0235556Y0399497D01*
X0235813Y0399497D01*
X0236689Y0393102D02*
X0234680Y0393102D01*
X0236689Y0393102D01*
X0239303Y0391504D02*
X0232065Y0391504D01*
X0239303Y0391504D01*
X0237813Y0389905D02*
X0212453Y0389905D01*
X0237813Y0389905D01*
X0237239Y0388307D02*
X0213027Y0388307D01*
X0237239Y0388307D01*
X0237253Y0386708D02*
X0213014Y0386708D01*
X0237253Y0386708D01*
X0241095Y0383511D02*
X0242368Y0383511D01*
X0241095Y0383511D01*
X0248095Y0383511D02*
X0252368Y0383511D01*
X0248095Y0383511D01*
X0249631Y0381913D02*
X0250831Y0381913D01*
X0249631Y0381913D01*
X0249631Y0380314D02*
X0250831Y0380314D01*
X0249631Y0380314D01*
X0229303Y0391504D02*
X0222065Y0391504D01*
X0229303Y0391504D01*
X0226689Y0393102D02*
X0224680Y0393102D01*
X0226689Y0393102D01*
X0219303Y0391504D02*
X0212065Y0391504D01*
X0219303Y0391504D01*
X0216689Y0393102D02*
X0214680Y0393102D01*
X0216689Y0393102D01*
X0215813Y0399497D02*
X0215556Y0399497D01*
X0215813Y0399497D01*
X0217116Y0401095D02*
X0214252Y0401095D01*
X0217116Y0401095D01*
X0224252Y0401095D02*
X0227116Y0401095D01*
X0224252Y0401095D01*
X0225556Y0399497D02*
X0225813Y0399497D01*
X0225556Y0399497D01*
X0209303Y0391504D02*
X0202065Y0391504D01*
X0209303Y0391504D01*
X0206689Y0393102D02*
X0204680Y0393102D01*
X0206689Y0393102D01*
X0205813Y0399497D02*
X0205556Y0399497D01*
X0205813Y0399497D01*
X0207116Y0401095D02*
X0204252Y0401095D01*
X0207116Y0401095D01*
X0199303Y0391504D02*
X0191868Y0391504D01*
X0199303Y0391504D01*
X0196689Y0393102D02*
X0194680Y0393102D01*
X0196689Y0393102D01*
X0190884Y0393102D02*
X0190484Y0393102D01*
X0190884Y0393102D01*
X0190884Y0391504D02*
X0190484Y0391504D01*
X0190884Y0391504D01*
X0190884Y0394701D02*
X0190484Y0394701D01*
X0190884Y0394701D01*
X0190884Y0396299D02*
X0190484Y0396299D01*
X0190884Y0396299D01*
X0190884Y0397898D02*
X0190484Y0397898D01*
X0190884Y0397898D01*
X0190884Y0399497D02*
X0190484Y0399497D01*
X0190884Y0399497D01*
X0190884Y0401095D02*
X0190484Y0401095D01*
X0190884Y0401095D01*
X0194247Y0401095D02*
X0197116Y0401095D01*
X0194247Y0401095D01*
X0195526Y0399497D02*
X0195813Y0399497D01*
X0195526Y0399497D01*
X0182318Y0402694D02*
X0420676Y0402694D01*
X0420676Y0388307D02*
X0398958Y0388307D01*
X0400556Y0386708D02*
X0420676Y0386708D01*
X0420676Y0385110D02*
X0402155Y0385110D01*
X0405733Y0383511D02*
X0420676Y0383511D01*
X0420676Y0381913D02*
X0407269Y0381913D01*
X0407269Y0380314D02*
X0420676Y0380314D01*
X0420676Y0378716D02*
X0407269Y0378716D01*
X0406056Y0377117D02*
X0420676Y0377117D01*
X0420676Y0375519D02*
X0395869Y0375519D01*
X0395869Y0373920D02*
X0420676Y0373920D01*
X0420676Y0372322D02*
X0395869Y0372322D01*
X0395869Y0370723D02*
X0420676Y0370723D01*
X0420676Y0369125D02*
X0395869Y0369125D01*
X0395869Y0367526D02*
X0420676Y0367526D01*
X0420676Y0365928D02*
X0395869Y0365928D01*
X0395869Y0364329D02*
X0420676Y0364329D01*
X0420676Y0362731D02*
X0395869Y0362731D01*
X0395869Y0361132D02*
X0420676Y0361132D01*
X0420676Y0359534D02*
X0395869Y0359534D01*
X0395869Y0357935D02*
X0420676Y0357935D01*
X0420676Y0356337D02*
X0395869Y0356337D01*
X0395869Y0354738D02*
X0420676Y0354738D01*
X0420676Y0353140D02*
X0395869Y0353140D01*
X0395869Y0351541D02*
X0420676Y0351541D01*
X0420676Y0349943D02*
X0395869Y0349943D01*
X0395869Y0348344D02*
X0420676Y0348344D01*
X0420676Y0346746D02*
X0395869Y0346746D01*
X0395869Y0345147D02*
X0420676Y0345147D01*
X0420676Y0343549D02*
X0395869Y0343549D01*
X0395869Y0341950D02*
X0420676Y0341950D01*
X0420676Y0340352D02*
X0395869Y0340352D01*
X0395869Y0338753D02*
X0420676Y0338753D01*
X0420676Y0337155D02*
X0395869Y0337155D01*
X0395869Y0335556D02*
X0420676Y0335556D01*
X0420676Y0333958D02*
X0406074Y0333958D01*
X0407269Y0332763D02*
X0404692Y0335340D01*
X0401047Y0335340D01*
X0398469Y0332763D01*
X0398469Y0329118D01*
X0401047Y0326540D01*
X0404692Y0326540D01*
X0407269Y0329118D01*
X0407269Y0332763D01*
X0407269Y0332359D02*
X0420676Y0332359D01*
X0420676Y0330761D02*
X0407269Y0330761D01*
X0407269Y0329162D02*
X0420676Y0329162D01*
X0420676Y0327564D02*
X0405715Y0327564D01*
X0400023Y0327564D02*
X0395869Y0327564D01*
X0395869Y0325965D02*
X0420676Y0325965D01*
X0420676Y0324366D02*
X0395869Y0324366D01*
X0395869Y0322768D02*
X0420676Y0322768D01*
X0420676Y0321169D02*
X0395869Y0321169D01*
X0395869Y0319571D02*
X0420676Y0319571D01*
X0420676Y0317972D02*
X0395869Y0317972D01*
X0395869Y0316374D02*
X0420676Y0316374D01*
X0420676Y0314775D02*
X0395869Y0314775D01*
X0395869Y0313177D02*
X0420676Y0313177D01*
X0420676Y0311578D02*
X0395869Y0311578D01*
X0395869Y0309980D02*
X0420676Y0309980D01*
X0420676Y0308381D02*
X0395869Y0308381D01*
X0395869Y0306783D02*
X0420676Y0306783D01*
X0420676Y0305184D02*
X0395869Y0305184D01*
X0395869Y0303586D02*
X0420676Y0303586D01*
X0420676Y0301987D02*
X0395869Y0301987D01*
X0395869Y0300389D02*
X0420676Y0300389D01*
X0420676Y0298790D02*
X0395869Y0298790D01*
X0395869Y0297192D02*
X0420676Y0297192D01*
X0420676Y0295593D02*
X0395869Y0295593D01*
X0395869Y0293995D02*
X0420676Y0293995D01*
X0420676Y0292396D02*
X0395869Y0292396D01*
X0395869Y0290798D02*
X0420676Y0290798D01*
X0420676Y0289199D02*
X0395869Y0289199D01*
X0395869Y0287601D02*
X0420676Y0287601D01*
X0420676Y0286002D02*
X0404817Y0286002D01*
X0404692Y0286128D02*
X0401047Y0286128D01*
X0398469Y0283550D01*
X0398469Y0279905D01*
X0401047Y0277328D01*
X0404692Y0277328D01*
X0407269Y0279905D01*
X0407269Y0283550D01*
X0404692Y0286128D01*
X0406416Y0284404D02*
X0420676Y0284404D01*
X0420676Y0282805D02*
X0407269Y0282805D01*
X0407269Y0281207D02*
X0420676Y0281207D01*
X0420676Y0279608D02*
X0406972Y0279608D01*
X0405374Y0278010D02*
X0420676Y0278010D01*
X0420676Y0276411D02*
X0395948Y0276411D01*
X0395948Y0274813D02*
X0420676Y0274813D01*
X0420676Y0273214D02*
X0395948Y0273214D01*
X0395948Y0271616D02*
X0420676Y0271616D01*
X0420676Y0270017D02*
X0395948Y0270017D01*
X0395948Y0268419D02*
X0420676Y0268419D01*
X0420676Y0266820D02*
X0395948Y0266820D01*
X0395948Y0265222D02*
X0420676Y0265222D01*
X0420676Y0263623D02*
X0395948Y0263623D01*
X0395948Y0262025D02*
X0420676Y0262025D01*
X0420676Y0260426D02*
X0395948Y0260426D01*
X0395948Y0258828D02*
X0420676Y0258828D01*
X0420676Y0257229D02*
X0395948Y0257229D01*
X0395948Y0255630D02*
X0420676Y0255630D01*
X0420676Y0254032D02*
X0395948Y0254032D01*
X0395948Y0252433D02*
X0420676Y0252433D01*
X0420676Y0250835D02*
X0395948Y0250835D01*
X0395948Y0249236D02*
X0420676Y0249236D01*
X0420676Y0247638D02*
X0417319Y0247638D01*
X0417484Y0247554D02*
X0416713Y0247947D01*
X0415889Y0248214D01*
X0415034Y0248350D01*
X0414802Y0248350D01*
X0414802Y0243050D01*
X0420102Y0243050D01*
X0420102Y0243282D01*
X0419966Y0244138D01*
X0419699Y0244961D01*
X0419306Y0245732D01*
X0418797Y0246433D01*
X0418185Y0247045D01*
X0417484Y0247554D01*
X0419082Y0246039D02*
X0420676Y0246039D01*
X0420676Y0244441D02*
X0419868Y0244441D01*
X0420676Y0242842D02*
X0414802Y0242842D01*
X0414401Y0242842D02*
X0395948Y0242842D01*
X0395948Y0241244D02*
X0409340Y0241244D01*
X0410131Y0239645D02*
X0395948Y0239645D01*
X0395948Y0238047D02*
X0411913Y0238047D01*
X0410422Y0236448D02*
X0405158Y0236448D01*
X0406757Y0234850D02*
X0409477Y0234850D01*
X0409102Y0233251D02*
X0407269Y0233251D01*
X0407269Y0231653D02*
X0409144Y0231653D01*
X0409806Y0230054D02*
X0406631Y0230054D01*
X0405033Y0228456D02*
X0411217Y0228456D01*
X0417986Y0228456D02*
X0420676Y0228456D01*
X0420676Y0230054D02*
X0419397Y0230054D01*
X0420059Y0231653D02*
X0420676Y0231653D01*
X0420676Y0233251D02*
X0420102Y0233251D01*
X0419726Y0234850D02*
X0420676Y0234850D01*
X0420676Y0236448D02*
X0418781Y0236448D01*
X0417290Y0238047D02*
X0420676Y0238047D01*
X0420676Y0239645D02*
X0419072Y0239645D01*
X0419863Y0241244D02*
X0420676Y0241244D01*
X0414802Y0244441D02*
X0414402Y0244441D01*
X0414402Y0246039D02*
X0414802Y0246039D01*
X0414802Y0247638D02*
X0414402Y0247638D01*
X0411884Y0247638D02*
X0395948Y0247638D01*
X0395948Y0246039D02*
X0410121Y0246039D01*
X0409336Y0244441D02*
X0395948Y0244441D01*
X0395948Y0236448D02*
X0400580Y0236448D01*
X0398982Y0234850D02*
X0396757Y0234850D01*
X0397269Y0233251D02*
X0398469Y0233251D01*
X0397765Y0231653D02*
X0397269Y0231653D01*
X0418372Y0226857D02*
X0420676Y0226857D01*
X0420676Y0225259D02*
X0419557Y0225259D01*
X0420102Y0223660D02*
X0420676Y0223660D01*
X0420676Y0222062D02*
X0420102Y0222062D01*
X0419566Y0220463D02*
X0420676Y0220463D01*
X0420676Y0218865D02*
X0418395Y0218865D01*
X0417963Y0217266D02*
X0420676Y0217266D01*
X0420676Y0215668D02*
X0419387Y0215668D01*
X0420050Y0214069D02*
X0420676Y0214069D01*
X0420676Y0212471D02*
X0420102Y0212471D01*
X0419736Y0210872D02*
X0420676Y0210872D01*
X0420676Y0209274D02*
X0418804Y0209274D01*
X0417324Y0207675D02*
X0420676Y0207675D01*
X0420676Y0206077D02*
X0419153Y0206077D01*
X0419880Y0204478D02*
X0420676Y0204478D01*
X0420676Y0202880D02*
X0420102Y0202880D01*
X0419905Y0201281D02*
X0420676Y0201281D01*
X0420676Y0199683D02*
X0419213Y0199683D01*
X0420676Y0198084D02*
X0417469Y0198084D01*
X0418744Y0196486D02*
X0420676Y0196486D01*
X0420676Y0194887D02*
X0419711Y0194887D01*
X0420102Y0193289D02*
X0420676Y0193289D01*
X0420676Y0191690D02*
X0420074Y0191690D01*
X0420676Y0190092D02*
X0419412Y0190092D01*
X0420676Y0188493D02*
X0418023Y0188493D01*
X0418335Y0186895D02*
X0420676Y0186895D01*
X0420676Y0185296D02*
X0419541Y0185296D01*
X0420102Y0183697D02*
X0420676Y0183697D01*
X0420676Y0182099D02*
X0420102Y0182099D01*
X0419582Y0180500D02*
X0420676Y0180500D01*
X0420676Y0178902D02*
X0418432Y0178902D01*
X0417829Y0177303D02*
X0420676Y0177303D01*
X0420676Y0175705D02*
X0419320Y0175705D01*
X0419971Y0174106D02*
X0420676Y0174106D01*
X0420676Y0172508D02*
X0420102Y0172508D01*
X0419754Y0170909D02*
X0420676Y0170909D01*
X0420676Y0169311D02*
X0418829Y0169311D01*
X0414802Y0169311D02*
X0414402Y0169311D01*
X0414402Y0170909D02*
X0414802Y0170909D01*
X0414802Y0172508D02*
X0414402Y0172508D01*
X0407712Y0202987D02*
X0406728Y0203972D01*
X0404759Y0203972D01*
X0356983Y0203735D02*
X0353814Y0203735D01*
X0353578Y0203972D01*
X0352594Y0213814D02*
X0356905Y0213814D01*
X0356983Y0213735D01*
X0346688Y0192161D02*
X0347672Y0191176D01*
X0338814Y0168539D02*
X0338302Y0168027D01*
X0338302Y0154759D01*
X0338302Y0153302D01*
X0340783Y0150822D01*
X0340783Y0138027D01*
X0338814Y0136058D01*
X0338814Y0132121D01*
X0340783Y0130153D01*
X0340783Y0128184D01*
X0338814Y0126216D01*
X0334877Y0126216D01*
X0329956Y0131137D01*
X0308302Y0131137D01*
X0304365Y0127200D01*
X0304365Y0126216D01*
X0298460Y0120310D01*
X0298460Y0118342D01*
X0259090Y0141964D02*
X0259090Y0142948D01*
X0259582Y0143440D01*
X0259582Y0146885D01*
X0259090Y0147377D01*
X0189208Y0188224D02*
X0189208Y0193145D01*
X0188224Y0194129D01*
X0182515Y0194129D01*
X0184454Y0030240D02*
X0155625Y0030240D01*
X0154026Y0028642D02*
X0184987Y0028642D01*
X0299089Y0014255D02*
X0420676Y0014255D01*
X0397998Y0035036D02*
X0397269Y0035036D01*
X0397269Y0036634D02*
X0398469Y0036634D01*
X0399215Y0038233D02*
X0396523Y0038233D01*
X0395869Y0039831D02*
X0400814Y0039831D01*
X0405607Y0081393D02*
X0420676Y0081393D01*
X0420676Y0082991D02*
X0407206Y0082991D01*
X0407269Y0084590D02*
X0420676Y0084590D01*
X0420676Y0086188D02*
X0407269Y0086188D01*
X0406182Y0087787D02*
X0420676Y0087787D01*
X0398469Y0132545D02*
X0397269Y0132545D01*
X0397962Y0134144D02*
X0398469Y0134144D01*
X0356358Y0028642D02*
X0350877Y0028642D01*
X0395948Y0278010D02*
X0400365Y0278010D01*
X0398766Y0279608D02*
X0396972Y0279608D01*
X0397269Y0281207D02*
X0398469Y0281207D01*
X0398469Y0282805D02*
X0397269Y0282805D01*
X0396416Y0284404D02*
X0399323Y0284404D01*
X0400921Y0286002D02*
X0395869Y0286002D01*
X0397269Y0329162D02*
X0398469Y0329162D01*
X0398469Y0330761D02*
X0397269Y0330761D01*
X0397269Y0332359D02*
X0398469Y0332359D01*
X0399664Y0333958D02*
X0396074Y0333958D01*
X0396056Y0377117D02*
X0399682Y0377117D01*
X0398469Y0378716D02*
X0397269Y0378716D01*
X0397269Y0380314D02*
X0398465Y0380314D01*
X0388986Y0388307D02*
X0351635Y0388307D01*
X0352184Y0387758D02*
X0352184Y0387758D01*
X0353233Y0386708D02*
X0387387Y0386708D01*
X0385789Y0385110D02*
X0354832Y0385110D01*
X0355356Y0384586D02*
X0355356Y0384586D01*
X0356521Y0383511D02*
X0384190Y0383511D01*
X0338789Y0388307D02*
X0303407Y0388307D01*
X0305005Y0386708D02*
X0337190Y0386708D01*
X0329332Y0385110D02*
X0306604Y0385110D01*
X0307365Y0383511D02*
X0327103Y0383511D01*
X0173440Y0388307D02*
X0103682Y0388307D01*
X0105281Y0386708D02*
X0140340Y0386708D01*
X0138741Y0385110D02*
X0106879Y0385110D01*
X0110458Y0383511D02*
X0137143Y0383511D01*
X0154493Y0386708D02*
X0171842Y0386708D01*
X0170243Y0385110D02*
X0169020Y0385110D01*
X0164120Y0385110D02*
X0156092Y0385110D01*
X0159670Y0383511D02*
X0162733Y0383511D01*
D31*
X0224149Y0240094D02*
X0220901Y0236846D01*
X0220901Y0224169D01*
X0222869Y0224169D02*
X0222869Y0232515D01*
X0224149Y0233794D01*
X0224838Y0224169D02*
X0224838Y0220015D01*
X0225133Y0219720D01*
X0228578Y0219720D01*
X0229562Y0218735D01*
X0226609Y0197574D02*
X0220212Y0197574D01*
X0219720Y0198066D01*
X0218735Y0198558D01*
X0213814Y0198066D02*
X0212357Y0196609D01*
X0214306Y0195606D02*
X0226117Y0195606D01*
X0226806Y0194917D01*
X0226806Y0190704D01*
X0229070Y0195113D02*
X0236452Y0195113D01*
X0236649Y0194917D01*
X0236649Y0190704D01*
X0229070Y0195113D02*
X0226609Y0197574D01*
X0211846Y0189700D02*
X0211846Y0189208D01*
X0208696Y0167554D02*
X0208893Y0166767D01*
X0208696Y0167554D02*
X0206924Y0167554D01*
X0205448Y0166078D01*
X0205448Y0157220D01*
X0164602Y0179857D02*
X0164109Y0179365D01*
X0182318Y0223657D02*
X0178381Y0227102D01*
X0173952Y0227102D01*
X0173460Y0226609D01*
X0089798Y0217751D02*
X0079956Y0217751D01*
X0078972Y0207909D02*
X0087830Y0207909D01*
X0225625Y0068145D02*
X0225625Y0063224D01*
X0245779Y0062917D02*
X0245779Y0069315D01*
X0343329Y0152823D02*
X0343329Y0158728D01*
D32*
X0287633Y0244326D02*
X0286649Y0244326D01*
D33*
X0221688Y0166767D02*
X0218243Y0163322D01*
X0218243Y0157712D01*
D34*
X0190684Y0066176D02*
X0190684Y0061747D01*
X0185271Y0056334D01*
X0185271Y0024346D01*
X0260684Y0060645D02*
X0264995Y0056334D01*
X0264995Y0021393D01*
X0266964Y0019424D01*
X0260684Y0060645D02*
X0260684Y0066176D01*
X0083893Y0172850D02*
X0078361Y0172850D01*
X0076019Y0170507D01*
X0037633Y0170507D01*
X0037633Y0171491D01*
X0037633Y0170507D02*
X0037633Y0166570D01*
X0038125Y0243342D02*
X0083893Y0242850D01*
D35*
X0323066Y0302397D02*
X0336846Y0302397D01*
X0337909Y0303460D01*
X0337909Y0311531D01*
X0337783Y0302397D02*
X0336846Y0302397D01*
X0337783Y0302397D02*
X0337846Y0302334D01*
M02*
